%TF.GenerationSoftware,KiCad,Pcbnew,6.0.2+dfsg-1*%
%TF.CreationDate,2022-09-03T15:09:50+02:00*%
%TF.ProjectId,LoRa_thing,4c6f5261-5f74-4686-996e-672e6b696361,rev?*%
%TF.SameCoordinates,Original*%
%TF.FileFunction,Soldermask,Top*%
%TF.FilePolarity,Negative*%
%FSLAX46Y46*%
G04 Gerber Fmt 4.6, Leading zero omitted, Abs format (unit mm)*
G04 Created by KiCad (PCBNEW 6.0.2+dfsg-1) date 2022-09-03 15:09:50*
%MOMM*%
%LPD*%
G01*
G04 APERTURE LIST*
%ADD10O,1.800000X1.800000*%
%ADD11O,1.500000X1.500000*%
%ADD12O,1.700000X1.700000*%
%ADD13R,3.500000X1.700000*%
%ADD14R,1.700000X1.700000*%
%ADD15R,1.700000X3.500000*%
%ADD16R,2.000000X1.500000*%
%ADD17O,2.000000X1.200000*%
G04 APERTURE END LIST*
D10*
%TO.C,U2*%
X123375000Y-66170000D03*
X117925000Y-66170000D03*
D11*
X118225000Y-69200000D03*
X123075000Y-69200000D03*
D12*
X111760000Y-66040000D03*
D13*
X110860000Y-66040000D03*
D12*
X111760000Y-68580000D03*
D13*
X110860000Y-68580000D03*
X110860000Y-71120000D03*
D14*
X111760000Y-71120000D03*
D12*
X111760000Y-73660000D03*
D13*
X110860000Y-73660000D03*
D12*
X111760000Y-76200000D03*
D13*
X110860000Y-76200000D03*
D12*
X111760000Y-78740000D03*
D13*
X110860000Y-78740000D03*
X110860000Y-81280000D03*
D12*
X111760000Y-81280000D03*
D14*
X111760000Y-83820000D03*
D13*
X110860000Y-83820000D03*
X110860000Y-86360000D03*
D12*
X111760000Y-86360000D03*
X111760000Y-88900000D03*
D13*
X110860000Y-88900000D03*
X110860000Y-91440000D03*
D12*
X111760000Y-91440000D03*
X111760000Y-93980000D03*
D13*
X110860000Y-93980000D03*
D14*
X111760000Y-96520000D03*
D13*
X110860000Y-96520000D03*
X110860000Y-99060000D03*
D12*
X111760000Y-99060000D03*
X111760000Y-101600000D03*
D13*
X110860000Y-101600000D03*
X110860000Y-104140000D03*
D12*
X111760000Y-104140000D03*
D13*
X110860000Y-106680000D03*
D12*
X111760000Y-106680000D03*
D13*
X110860000Y-109220000D03*
D14*
X111760000Y-109220000D03*
D12*
X111760000Y-111760000D03*
D13*
X110860000Y-111760000D03*
X110860000Y-114300000D03*
D12*
X111760000Y-114300000D03*
D13*
X130440000Y-114300000D03*
D12*
X129540000Y-114300000D03*
D13*
X130440000Y-111760000D03*
D12*
X129540000Y-111760000D03*
D13*
X130440000Y-109220000D03*
D14*
X129540000Y-109220000D03*
D12*
X129540000Y-106680000D03*
D13*
X130440000Y-106680000D03*
X130440000Y-104140000D03*
D12*
X129540000Y-104140000D03*
D13*
X130440000Y-101600000D03*
D12*
X129540000Y-101600000D03*
X129540000Y-99060000D03*
D13*
X130440000Y-99060000D03*
D14*
X129540000Y-96520000D03*
D13*
X130440000Y-96520000D03*
D12*
X129540000Y-93980000D03*
D13*
X130440000Y-93980000D03*
X130440000Y-91440000D03*
D12*
X129540000Y-91440000D03*
X129540000Y-88900000D03*
D13*
X130440000Y-88900000D03*
D12*
X129540000Y-86360000D03*
D13*
X130440000Y-86360000D03*
X130440000Y-83820000D03*
D14*
X129540000Y-83820000D03*
D13*
X130440000Y-81280000D03*
D12*
X129540000Y-81280000D03*
D13*
X130440000Y-78740000D03*
D12*
X129540000Y-78740000D03*
X129540000Y-76200000D03*
D13*
X130440000Y-76200000D03*
X130440000Y-73660000D03*
D12*
X129540000Y-73660000D03*
D13*
X130440000Y-71120000D03*
D14*
X129540000Y-71120000D03*
D13*
X130440000Y-68580000D03*
D12*
X129540000Y-68580000D03*
X129540000Y-66040000D03*
D13*
X130440000Y-66040000D03*
D15*
X118110000Y-114970000D03*
D12*
X118110000Y-114070000D03*
D14*
X120650000Y-114070000D03*
D15*
X120650000Y-114970000D03*
D12*
X123190000Y-114070000D03*
D15*
X123190000Y-114970000D03*
%TD*%
D16*
%TO.C,U1*%
X128905000Y-133920000D03*
D17*
X133985000Y-135890000D03*
D16*
X128905000Y-131920000D03*
D17*
X133985000Y-133350000D03*
D16*
X128905000Y-129920000D03*
D17*
X133985000Y-130810000D03*
X133985000Y-128270000D03*
D16*
X128905000Y-127920000D03*
X128905000Y-125920000D03*
D17*
X133985000Y-125730000D03*
X133985000Y-123190000D03*
D16*
X128905000Y-123920000D03*
D17*
X133985000Y-120650000D03*
D16*
X128905000Y-121920000D03*
D17*
X133985000Y-118110000D03*
D16*
X128905000Y-119920000D03*
D17*
X108585000Y-118110000D03*
D16*
X112905000Y-119920000D03*
D17*
X108585000Y-120650000D03*
D16*
X112905000Y-121920000D03*
D17*
X108585000Y-123190000D03*
D16*
X112905000Y-123920000D03*
X112905000Y-125920000D03*
D17*
X108585000Y-125730000D03*
D16*
X112905000Y-127920000D03*
D17*
X108585000Y-128270000D03*
X108585000Y-130810000D03*
D16*
X112905000Y-129920000D03*
D17*
X108585000Y-133350000D03*
D16*
X112905000Y-131920000D03*
D17*
X108585000Y-135890000D03*
D16*
X112905000Y-133920000D03*
%TD*%
M02*
