M48
; DRILL file {KiCad 6.0.2+dfsg-1} date za 03 sep 2022 15:09:45
; FORMAT={-:-/ absolute / inch / decimal}
; #@! TF.CreationDate,2022-09-03T15:09:45+02:00
; #@! TF.GenerationSoftware,Kicad,Pcbnew,6.0.2+dfsg-1
; #@! TF.FileFunction,Plated,1,2,PTH
FMAT,2
INCH
; #@! TA.AperFunction,Plated,PTH,ViaDrill
T1C0.0157
; #@! TA.AperFunction,Plated,PTH,ComponentDrill
T2C0.0315
; #@! TA.AperFunction,Plated,PTH,ComponentDrill
T3C0.0402
%
G90
G05
T1
X4.675Y-4.975
X4.675Y-5.1
X4.875Y-4.975
X4.875Y-5.1
T2
X4.275Y-4.65
X4.275Y-4.75
X4.275Y-4.85
X4.275Y-4.95
X4.275Y-5.05
X4.275Y-5.15
X4.275Y-5.25
X4.275Y-5.35
X5.275Y-4.65
X5.275Y-4.75
X5.275Y-4.85
X5.275Y-4.95
X5.275Y-5.05
X5.275Y-5.15
X5.275Y-5.25
X5.275Y-5.35
T3
X4.4Y-2.6
X4.4Y-2.7
X4.4Y-2.8
X4.4Y-2.9
X4.4Y-3.0
X4.4Y-3.1
X4.4Y-3.2
X4.4Y-3.3
X4.4Y-3.4
X4.4Y-3.5
X4.4Y-3.6
X4.4Y-3.7
X4.4Y-3.8
X4.4Y-3.9
X4.4Y-4.0
X4.4Y-4.1
X4.4Y-4.2
X4.4Y-4.3
X4.4Y-4.4
X4.4Y-4.5
X4.65Y-4.4909
X4.75Y-4.4909
X4.85Y-4.4909
X5.1Y-2.6
X5.1Y-2.7
X5.1Y-2.8
X5.1Y-2.9
X5.1Y-3.0
X5.1Y-3.1
X5.1Y-3.2
X5.1Y-3.3
X5.1Y-3.4
X5.1Y-3.5
X5.1Y-3.6
X5.1Y-3.7
X5.1Y-3.8
X5.1Y-3.9
X5.1Y-4.0
X5.1Y-4.1
X5.1Y-4.2
X5.1Y-4.3
X5.1Y-4.4
X5.1Y-4.5
T0
M30
