%TF.GenerationSoftware,KiCad,Pcbnew,6.0.2+dfsg-1*%
%TF.CreationDate,2022-09-03T15:09:50+02:00*%
%TF.ProjectId,LoRa_thing,4c6f5261-5f74-4686-996e-672e6b696361,rev?*%
%TF.SameCoordinates,Original*%
%TF.FileFunction,Copper,L1,Top*%
%TF.FilePolarity,Positive*%
%FSLAX46Y46*%
G04 Gerber Fmt 4.6, Leading zero omitted, Abs format (unit mm)*
G04 Created by KiCad (PCBNEW 6.0.2+dfsg-1) date 2022-09-03 15:09:50*
%MOMM*%
%LPD*%
G01*
G04 APERTURE LIST*
%TA.AperFunction,ComponentPad*%
%ADD10O,1.700000X1.700000*%
%TD*%
%TA.AperFunction,SMDPad,CuDef*%
%ADD11R,3.500000X1.700000*%
%TD*%
%TA.AperFunction,ComponentPad*%
%ADD12R,1.700000X1.700000*%
%TD*%
%TA.AperFunction,SMDPad,CuDef*%
%ADD13R,1.700000X3.500000*%
%TD*%
%TA.AperFunction,SMDPad,CuDef*%
%ADD14R,2.000000X1.500000*%
%TD*%
%TA.AperFunction,ComponentPad*%
%ADD15O,2.000000X1.200000*%
%TD*%
%TA.AperFunction,ViaPad*%
%ADD16C,0.800000*%
%TD*%
%TA.AperFunction,Conductor*%
%ADD17C,0.250000*%
%TD*%
%TA.AperFunction,Conductor*%
%ADD18C,0.400000*%
%TD*%
G04 APERTURE END LIST*
D10*
%TO.P,U2,1,GPIO0*%
%TO.N,unconnected-(U2-Pad1)*%
X111760000Y-66040000D03*
D11*
X110860000Y-66040000D03*
D10*
%TO.P,U2,2,GPIO1*%
%TO.N,unconnected-(U2-Pad2)*%
X111760000Y-68580000D03*
D11*
X110860000Y-68580000D03*
%TO.P,U2,3,GND*%
%TO.N,GND*%
X110860000Y-71120000D03*
D12*
X111760000Y-71120000D03*
D10*
%TO.P,U2,4,GPIO2*%
%TO.N,unconnected-(U2-Pad4)*%
X111760000Y-73660000D03*
D11*
X110860000Y-73660000D03*
D10*
%TO.P,U2,5,GPIO3*%
%TO.N,unconnected-(U2-Pad5)*%
X111760000Y-76200000D03*
D11*
X110860000Y-76200000D03*
D10*
%TO.P,U2,6,GPIO4*%
%TO.N,unconnected-(U2-Pad6)*%
X111760000Y-78740000D03*
D11*
X110860000Y-78740000D03*
%TO.P,U2,7,GPIO5*%
%TO.N,unconnected-(U2-Pad7)*%
X110860000Y-81280000D03*
D10*
X111760000Y-81280000D03*
D12*
%TO.P,U2,8,GND*%
%TO.N,GND*%
X111760000Y-83820000D03*
D11*
X110860000Y-83820000D03*
%TO.P,U2,9,GPIO6*%
%TO.N,unconnected-(U2-Pad9)*%
X110860000Y-86360000D03*
D10*
X111760000Y-86360000D03*
%TO.P,U2,10,GPIO7*%
%TO.N,Net-(U1-Pad4)*%
X111760000Y-88900000D03*
D11*
X110860000Y-88900000D03*
%TO.P,U2,11,SPI1 RX*%
%TO.N,Net-(U1-Pad13)*%
X110860000Y-91440000D03*
D10*
X111760000Y-91440000D03*
%TO.P,U2,12,SPI1 CSn*%
%TO.N,Net-(U1-Pad15)*%
X111760000Y-93980000D03*
D11*
X110860000Y-93980000D03*
D12*
%TO.P,U2,13,GND*%
%TO.N,GND*%
X111760000Y-96520000D03*
D11*
X110860000Y-96520000D03*
%TO.P,U2,14,SPI1 SCK*%
%TO.N,Net-(U1-Pad12)*%
X110860000Y-99060000D03*
D10*
X111760000Y-99060000D03*
%TO.P,U2,15,SPI1 TX*%
%TO.N,Net-(U1-Pad14)*%
X111760000Y-101600000D03*
D11*
X110860000Y-101600000D03*
%TO.P,U2,16,GPIO12*%
%TO.N,unconnected-(U2-Pad16)*%
X110860000Y-104140000D03*
D10*
X111760000Y-104140000D03*
D11*
%TO.P,U2,17,GPIO13*%
%TO.N,unconnected-(U2-Pad17)*%
X110860000Y-106680000D03*
D10*
X111760000Y-106680000D03*
D11*
%TO.P,U2,18,GND*%
%TO.N,GND*%
X110860000Y-109220000D03*
D12*
X111760000Y-109220000D03*
D10*
%TO.P,U2,19,GPIO14*%
%TO.N,unconnected-(U2-Pad19)*%
X111760000Y-111760000D03*
D11*
X110860000Y-111760000D03*
%TO.P,U2,20,GPIO15*%
%TO.N,unconnected-(U2-Pad20)*%
X110860000Y-114300000D03*
D10*
X111760000Y-114300000D03*
D11*
%TO.P,U2,21,GPIO16*%
%TO.N,unconnected-(U2-Pad21)*%
X130440000Y-114300000D03*
D10*
X129540000Y-114300000D03*
D11*
%TO.P,U2,22,GPIO17*%
%TO.N,unconnected-(U2-Pad22)*%
X130440000Y-111760000D03*
D10*
X129540000Y-111760000D03*
D11*
%TO.P,U2,23,GND*%
%TO.N,GND*%
X130440000Y-109220000D03*
D12*
X129540000Y-109220000D03*
D10*
%TO.P,U2,24,GPIO18*%
%TO.N,unconnected-(U2-Pad24)*%
X129540000Y-106680000D03*
D11*
X130440000Y-106680000D03*
%TO.P,U2,25,GPIO19*%
%TO.N,unconnected-(U2-Pad25)*%
X130440000Y-104140000D03*
D10*
X129540000Y-104140000D03*
D11*
%TO.P,U2,26,GPIO20*%
%TO.N,unconnected-(U2-Pad26)*%
X130440000Y-101600000D03*
D10*
X129540000Y-101600000D03*
%TO.P,U2,27,GPIO21*%
%TO.N,unconnected-(U2-Pad27)*%
X129540000Y-99060000D03*
D11*
X130440000Y-99060000D03*
D12*
%TO.P,U2,28,GND*%
%TO.N,GND*%
X129540000Y-96520000D03*
D11*
X130440000Y-96520000D03*
D10*
%TO.P,U2,29,GPIO22*%
%TO.N,unconnected-(U2-Pad29)*%
X129540000Y-93980000D03*
D11*
X130440000Y-93980000D03*
%TO.P,U2,30,RUN*%
%TO.N,unconnected-(U2-Pad30)*%
X130440000Y-91440000D03*
D10*
X129540000Y-91440000D03*
%TO.P,U2,31,GPIO26_ADC0*%
%TO.N,unconnected-(U2-Pad31)*%
X129540000Y-88900000D03*
D11*
X130440000Y-88900000D03*
D10*
%TO.P,U2,32,GPIO27_ADC1*%
%TO.N,unconnected-(U2-Pad32)*%
X129540000Y-86360000D03*
D11*
X130440000Y-86360000D03*
%TO.P,U2,33,AGND*%
%TO.N,unconnected-(U2-Pad33)*%
X130440000Y-83820000D03*
D12*
X129540000Y-83820000D03*
D11*
%TO.P,U2,34,GPIO28_ADC2*%
%TO.N,unconnected-(U2-Pad34)*%
X130440000Y-81280000D03*
D10*
X129540000Y-81280000D03*
D11*
%TO.P,U2,35,ADC_VREF*%
%TO.N,unconnected-(U2-Pad35)*%
X130440000Y-78740000D03*
D10*
X129540000Y-78740000D03*
%TO.P,U2,36,3V3*%
%TO.N,Net-(U1-Pad3)*%
X129540000Y-76200000D03*
D11*
X130440000Y-76200000D03*
%TO.P,U2,37,3V3_EN*%
%TO.N,unconnected-(U2-Pad37)*%
X130440000Y-73660000D03*
D10*
X129540000Y-73660000D03*
D11*
%TO.P,U2,38,GND*%
%TO.N,GND*%
X130440000Y-71120000D03*
D12*
X129540000Y-71120000D03*
D11*
%TO.P,U2,39,VSYS*%
%TO.N,unconnected-(U2-Pad39)*%
X130440000Y-68580000D03*
D10*
X129540000Y-68580000D03*
%TO.P,U2,40,VBUS*%
%TO.N,unconnected-(U2-Pad40)*%
X129540000Y-66040000D03*
D11*
X130440000Y-66040000D03*
D13*
%TO.P,U2,41,SWCLK*%
%TO.N,unconnected-(U2-Pad41)*%
X118110000Y-114970000D03*
D10*
X118110000Y-114070000D03*
D12*
%TO.P,U2,42,GND*%
%TO.N,unconnected-(U2-Pad42)*%
X120650000Y-114070000D03*
D13*
X120650000Y-114970000D03*
D10*
%TO.P,U2,43,SWDIO*%
%TO.N,unconnected-(U2-Pad43)*%
X123190000Y-114070000D03*
D13*
X123190000Y-114970000D03*
%TD*%
D14*
%TO.P,U1,1,GND*%
%TO.N,GND*%
X128905000Y-133920000D03*
D15*
X133985000Y-135890000D03*
D14*
%TO.P,U1,2,GND*%
X128905000Y-131920000D03*
D15*
X133985000Y-133350000D03*
D14*
%TO.P,U1,3,VDD*%
%TO.N,Net-(U1-Pad3)*%
X128905000Y-129920000D03*
D15*
X133985000Y-130810000D03*
%TO.P,U1,4,~{RESET}*%
%TO.N,Net-(U1-Pad4)*%
X133985000Y-128270000D03*
D14*
X128905000Y-127920000D03*
%TO.P,U1,5,DIO0*%
%TO.N,unconnected-(U1-Pad5)*%
X128905000Y-125920000D03*
D15*
X133985000Y-125730000D03*
%TO.P,U1,6,DIO1*%
%TO.N,unconnected-(U1-Pad6)*%
X133985000Y-123190000D03*
D14*
X128905000Y-123920000D03*
D15*
%TO.P,U1,7,DIO2*%
%TO.N,unconnected-(U1-Pad7)*%
X133985000Y-120650000D03*
D14*
X128905000Y-121920000D03*
D15*
%TO.P,U1,8,DIO3*%
%TO.N,unconnected-(U1-Pad8)*%
X133985000Y-118110000D03*
D14*
X128905000Y-119920000D03*
D15*
%TO.P,U1,9,GND*%
%TO.N,GND*%
X108585000Y-118110000D03*
D14*
X112905000Y-119920000D03*
D15*
%TO.P,U1,10,DIO4*%
%TO.N,unconnected-(U1-Pad10)*%
X108585000Y-120650000D03*
D14*
X112905000Y-121920000D03*
D15*
%TO.P,U1,11,DIO5*%
%TO.N,unconnected-(U1-Pad11)*%
X108585000Y-123190000D03*
D14*
X112905000Y-123920000D03*
%TO.P,U1,12,SCK*%
%TO.N,Net-(U1-Pad12)*%
X112905000Y-125920000D03*
D15*
X108585000Y-125730000D03*
D14*
%TO.P,U1,13,MISO*%
%TO.N,Net-(U1-Pad13)*%
X112905000Y-127920000D03*
D15*
X108585000Y-128270000D03*
%TO.P,U1,14,MOSI*%
%TO.N,Net-(U1-Pad14)*%
X108585000Y-130810000D03*
D14*
X112905000Y-129920000D03*
D15*
%TO.P,U1,15,~{NSS}*%
%TO.N,Net-(U1-Pad15)*%
X108585000Y-133350000D03*
D14*
X112905000Y-131920000D03*
D15*
%TO.P,U1,16,GND*%
%TO.N,GND*%
X108585000Y-135890000D03*
D14*
X112905000Y-133920000D03*
%TD*%
D16*
%TO.N,GND*%
X123825000Y-129540000D03*
X118745000Y-129540000D03*
X118745000Y-126365000D03*
X123825000Y-126365000D03*
%TD*%
D17*
%TO.N,unconnected-(U1-Pad8)*%
X130715000Y-118110000D02*
X128905000Y-119920000D01*
X133985000Y-118110000D02*
X130715000Y-118110000D01*
D18*
%TO.N,Net-(U1-Pad3)*%
X133985000Y-130810000D02*
X135255000Y-130810000D01*
X136383462Y-129681538D02*
X136383462Y-81434440D01*
X135255000Y-130810000D02*
X136383462Y-129681538D01*
X136383462Y-81434440D02*
X131149022Y-76200000D01*
D17*
X131149022Y-76200000D02*
X129540000Y-76200000D01*
%TO.N,Net-(U1-Pad4)*%
X111760000Y-88900000D02*
X115570000Y-92710000D01*
X115570000Y-92710000D02*
X115570000Y-125730000D01*
X117760000Y-127920000D02*
X128905000Y-127920000D01*
X115570000Y-125730000D02*
X117760000Y-127920000D01*
%TO.N,Net-(U1-Pad15)*%
X112905000Y-131920000D02*
X113155000Y-131920000D01*
X114935000Y-130140000D02*
X114935000Y-95250000D01*
X113155000Y-131920000D02*
X114935000Y-130140000D01*
X114935000Y-95250000D02*
X113665000Y-93980000D01*
X113665000Y-93980000D02*
X111760000Y-93980000D01*
%TO.N,Net-(U1-Pad14)*%
X112905000Y-129920000D02*
X113155000Y-129920000D01*
X113155000Y-129920000D02*
X114300000Y-128775000D01*
X114300000Y-128775000D02*
X114300000Y-102870000D01*
X114300000Y-102870000D02*
X113030000Y-101600000D01*
X113030000Y-101600000D02*
X111760000Y-101600000D01*
%TO.N,Net-(U1-Pad13)*%
X108585000Y-128270000D02*
X106810960Y-126495960D01*
X106810960Y-126495960D02*
X106810960Y-94484040D01*
X106810960Y-94484040D02*
X109855000Y-91440000D01*
X109855000Y-91440000D02*
X111760000Y-91440000D01*
%TO.N,Net-(U1-Pad12)*%
X108585000Y-125730000D02*
X107260480Y-124405480D01*
X107260480Y-101019520D02*
X109220000Y-99060000D01*
X107260480Y-124405480D02*
X107260480Y-101019520D01*
X109220000Y-99060000D02*
X111760000Y-99060000D01*
%TO.N,GND*%
X112905000Y-119920000D02*
X111095000Y-118110000D01*
X111095000Y-118110000D02*
X108585000Y-118110000D01*
%TO.N,unconnected-(U1-Pad10)*%
X112905000Y-121920000D02*
X111125000Y-121920000D01*
X111125000Y-121920000D02*
X109855000Y-120650000D01*
X109855000Y-120650000D02*
X108585000Y-120650000D01*
%TO.N,unconnected-(U1-Pad11)*%
X112905000Y-123920000D02*
X111220000Y-123920000D01*
X111220000Y-123920000D02*
X110490000Y-123190000D01*
X110490000Y-123190000D02*
X108585000Y-123190000D01*
%TO.N,Net-(U1-Pad12)*%
X108585000Y-125730000D02*
X109855000Y-125730000D01*
X109855000Y-125730000D02*
X110045000Y-125920000D01*
X110045000Y-125920000D02*
X112905000Y-125920000D01*
%TO.N,Net-(U1-Pad13)*%
X108585000Y-128270000D02*
X110490000Y-128270000D01*
X110490000Y-128270000D02*
X110840000Y-127920000D01*
X110840000Y-127920000D02*
X112905000Y-127920000D01*
%TO.N,Net-(U1-Pad14)*%
X108585000Y-130810000D02*
X109855000Y-130810000D01*
X109855000Y-130810000D02*
X110745000Y-129920000D01*
X110745000Y-129920000D02*
X112905000Y-129920000D01*
%TO.N,Net-(U1-Pad15)*%
X108585000Y-133350000D02*
X109855000Y-133350000D01*
X109855000Y-133350000D02*
X111285000Y-131920000D01*
X111285000Y-131920000D02*
X112905000Y-131920000D01*
%TO.N,GND*%
X108585000Y-135890000D02*
X110935000Y-135890000D01*
X110935000Y-135890000D02*
X112905000Y-133920000D01*
X133985000Y-135890000D02*
X130875000Y-135890000D01*
X130875000Y-135890000D02*
X128905000Y-133920000D01*
X133985000Y-133350000D02*
X132715000Y-133350000D01*
X132715000Y-133350000D02*
X131285000Y-131920000D01*
X131285000Y-131920000D02*
X128905000Y-131920000D01*
D18*
%TO.N,Net-(U1-Pad3)*%
X133985000Y-130810000D02*
X132715000Y-130810000D01*
X132715000Y-130810000D02*
X131825000Y-129920000D01*
X131825000Y-129920000D02*
X128905000Y-129920000D01*
D17*
%TO.N,Net-(U1-Pad4)*%
X132080000Y-128270000D02*
X131730000Y-127920000D01*
X131730000Y-127920000D02*
X128905000Y-127920000D01*
X133985000Y-128270000D02*
X132080000Y-128270000D01*
%TO.N,unconnected-(U1-Pad5)*%
X133985000Y-125730000D02*
X131445000Y-125730000D01*
X131445000Y-125730000D02*
X131255000Y-125920000D01*
X131255000Y-125920000D02*
X128905000Y-125920000D01*
%TO.N,unconnected-(U1-Pad6)*%
X133985000Y-123190000D02*
X132080000Y-123190000D01*
X132080000Y-123190000D02*
X131350000Y-123920000D01*
X131350000Y-123920000D02*
X128905000Y-123920000D01*
%TO.N,unconnected-(U1-Pad7)*%
X132715000Y-120650000D02*
X131445000Y-121920000D01*
X133985000Y-120650000D02*
X132715000Y-120650000D01*
X131445000Y-121920000D02*
X128905000Y-121920000D01*
%TD*%
%TA.AperFunction,Conductor*%
%TO.N,GND*%
G36*
X106253512Y-126812046D02*
G01*
X106272934Y-126833207D01*
X106277393Y-126839344D01*
X106283912Y-126849267D01*
X106299587Y-126875771D01*
X106306418Y-126887322D01*
X106320739Y-126901643D01*
X106333579Y-126916676D01*
X106345488Y-126933067D01*
X106351594Y-126938118D01*
X106379565Y-126961258D01*
X106388344Y-126969248D01*
X107130358Y-127711262D01*
X107164384Y-127773574D01*
X107160291Y-127841690D01*
X107103139Y-128006271D01*
X107072787Y-128215604D01*
X107082567Y-128426899D01*
X107083971Y-128432724D01*
X107083971Y-128432725D01*
X107127027Y-128611379D01*
X107132125Y-128632534D01*
X107134607Y-128637992D01*
X107134608Y-128637996D01*
X107184342Y-128747379D01*
X107219674Y-128825087D01*
X107289338Y-128923295D01*
X107338585Y-128992720D01*
X107342054Y-128997611D01*
X107494850Y-129143881D01*
X107672548Y-129258620D01*
X107678114Y-129260863D01*
X107863168Y-129335442D01*
X107863171Y-129335443D01*
X107868737Y-129337686D01*
X108076337Y-129378228D01*
X108081899Y-129378500D01*
X109037846Y-129378500D01*
X109195566Y-129363452D01*
X109398534Y-129303908D01*
X109482111Y-129260863D01*
X109581249Y-129209804D01*
X109581252Y-129209802D01*
X109586580Y-129207058D01*
X109752920Y-129076396D01*
X109865275Y-128946918D01*
X109925027Y-128908579D01*
X109960439Y-128903500D01*
X110411233Y-128903500D01*
X110422416Y-128904027D01*
X110429909Y-128905702D01*
X110437835Y-128905453D01*
X110437836Y-128905453D01*
X110497986Y-128903562D01*
X110501945Y-128903500D01*
X110529856Y-128903500D01*
X110533791Y-128903003D01*
X110533856Y-128902995D01*
X110545693Y-128902062D01*
X110577951Y-128901048D01*
X110581970Y-128900922D01*
X110589889Y-128900673D01*
X110609343Y-128895021D01*
X110628700Y-128891013D01*
X110640930Y-128889468D01*
X110640931Y-128889468D01*
X110648797Y-128888474D01*
X110656168Y-128885555D01*
X110656170Y-128885555D01*
X110689912Y-128872196D01*
X110701142Y-128868351D01*
X110735983Y-128858229D01*
X110735984Y-128858229D01*
X110743593Y-128856018D01*
X110750412Y-128851985D01*
X110750417Y-128851983D01*
X110761028Y-128845707D01*
X110778776Y-128837012D01*
X110797617Y-128829552D01*
X110833387Y-128803564D01*
X110843307Y-128797048D01*
X110870173Y-128781159D01*
X110881362Y-128774542D01*
X110886969Y-128768936D01*
X110895685Y-128760220D01*
X110910719Y-128747379D01*
X110920695Y-128740131D01*
X110920696Y-128740130D01*
X110927107Y-128735472D01*
X110955288Y-128701407D01*
X110963277Y-128692627D01*
X111065501Y-128590404D01*
X111127813Y-128556379D01*
X111154596Y-128553500D01*
X111270500Y-128553500D01*
X111338621Y-128573502D01*
X111385114Y-128627158D01*
X111396500Y-128679500D01*
X111396500Y-128718134D01*
X111403255Y-128780316D01*
X111406027Y-128787712D01*
X111406029Y-128787718D01*
X111439039Y-128875771D01*
X111444222Y-128946578D01*
X111439039Y-128964229D01*
X111406029Y-129052282D01*
X111406027Y-129052288D01*
X111403255Y-129059684D01*
X111396500Y-129121866D01*
X111396500Y-129160500D01*
X111376498Y-129228621D01*
X111322842Y-129275114D01*
X111270500Y-129286500D01*
X110823767Y-129286500D01*
X110812584Y-129285973D01*
X110805091Y-129284298D01*
X110797165Y-129284547D01*
X110797164Y-129284547D01*
X110737014Y-129286438D01*
X110733055Y-129286500D01*
X110705144Y-129286500D01*
X110701210Y-129286997D01*
X110701209Y-129286997D01*
X110701144Y-129287005D01*
X110689307Y-129287938D01*
X110657049Y-129288952D01*
X110653030Y-129289078D01*
X110645111Y-129289327D01*
X110625657Y-129294979D01*
X110606300Y-129298987D01*
X110594070Y-129300532D01*
X110594069Y-129300532D01*
X110586203Y-129301526D01*
X110578832Y-129304445D01*
X110578830Y-129304445D01*
X110545088Y-129317804D01*
X110533858Y-129321649D01*
X110499017Y-129331771D01*
X110499016Y-129331771D01*
X110491407Y-129333982D01*
X110484588Y-129338015D01*
X110484583Y-129338017D01*
X110473972Y-129344293D01*
X110456224Y-129352988D01*
X110437383Y-129360448D01*
X110430967Y-129365110D01*
X110430966Y-129365110D01*
X110401613Y-129386436D01*
X110391693Y-129392952D01*
X110360465Y-129411420D01*
X110360462Y-129411422D01*
X110353638Y-129415458D01*
X110339317Y-129429779D01*
X110324284Y-129442619D01*
X110307893Y-129454528D01*
X110302842Y-129460633D01*
X110302837Y-129460638D01*
X110279701Y-129488604D01*
X110271713Y-129497382D01*
X109842170Y-129926925D01*
X109779858Y-129960951D01*
X109709043Y-129955886D01*
X109676893Y-129937787D01*
X109675150Y-129936119D01*
X109670122Y-129932873D01*
X109670119Y-129932870D01*
X109573054Y-129870196D01*
X109497452Y-129821380D01*
X109437354Y-129797160D01*
X109306832Y-129744558D01*
X109306829Y-129744557D01*
X109301263Y-129742314D01*
X109093663Y-129701772D01*
X109088101Y-129701500D01*
X108132154Y-129701500D01*
X107974434Y-129716548D01*
X107771466Y-129776092D01*
X107766139Y-129778836D01*
X107766138Y-129778836D01*
X107588751Y-129870196D01*
X107588748Y-129870198D01*
X107583420Y-129872942D01*
X107417080Y-130003604D01*
X107413148Y-130008135D01*
X107413145Y-130008138D01*
X107324646Y-130110125D01*
X107278448Y-130163363D01*
X107275448Y-130168549D01*
X107275445Y-130168553D01*
X107220890Y-130262856D01*
X107172527Y-130346454D01*
X107103139Y-130546271D01*
X107102278Y-130552206D01*
X107102278Y-130552208D01*
X107083822Y-130679500D01*
X107072787Y-130755604D01*
X107082567Y-130966899D01*
X107083971Y-130972724D01*
X107083971Y-130972725D01*
X107120738Y-131125283D01*
X107132125Y-131172534D01*
X107134607Y-131177992D01*
X107134608Y-131177996D01*
X107178928Y-131275472D01*
X107219674Y-131365087D01*
X107291421Y-131466232D01*
X107328840Y-131518982D01*
X107342054Y-131537611D01*
X107494850Y-131683881D01*
X107672548Y-131798620D01*
X107678114Y-131800863D01*
X107863168Y-131875442D01*
X107863171Y-131875443D01*
X107868737Y-131877686D01*
X108076337Y-131918228D01*
X108081899Y-131918500D01*
X109037846Y-131918500D01*
X109195566Y-131903452D01*
X109398534Y-131843908D01*
X109482111Y-131800863D01*
X109581249Y-131749804D01*
X109581252Y-131749802D01*
X109586580Y-131747058D01*
X109752920Y-131616396D01*
X109756852Y-131611865D01*
X109756855Y-131611862D01*
X109868434Y-131483278D01*
X109928187Y-131444937D01*
X109943888Y-131441409D01*
X109946962Y-131440922D01*
X109954889Y-131440673D01*
X109974343Y-131435021D01*
X109993700Y-131431013D01*
X110005930Y-131429468D01*
X110005931Y-131429468D01*
X110013797Y-131428474D01*
X110021168Y-131425555D01*
X110021170Y-131425555D01*
X110054912Y-131412196D01*
X110066142Y-131408351D01*
X110100983Y-131398229D01*
X110100984Y-131398229D01*
X110108593Y-131396018D01*
X110115412Y-131391985D01*
X110115417Y-131391983D01*
X110126028Y-131385707D01*
X110143776Y-131377012D01*
X110162617Y-131369552D01*
X110185408Y-131352994D01*
X110198387Y-131343564D01*
X110208307Y-131337048D01*
X110239535Y-131318580D01*
X110239538Y-131318578D01*
X110246362Y-131314542D01*
X110260683Y-131300221D01*
X110275717Y-131287380D01*
X110276928Y-131286500D01*
X110292107Y-131275472D01*
X110297158Y-131269367D01*
X110297163Y-131269362D01*
X110320299Y-131241396D01*
X110328287Y-131232618D01*
X110970500Y-130590405D01*
X111032812Y-130556379D01*
X111059595Y-130553500D01*
X111270500Y-130553500D01*
X111338621Y-130573502D01*
X111385114Y-130627158D01*
X111396500Y-130679500D01*
X111396500Y-130718134D01*
X111403255Y-130780316D01*
X111406027Y-130787712D01*
X111406029Y-130787718D01*
X111439039Y-130875771D01*
X111444222Y-130946578D01*
X111439039Y-130964229D01*
X111406029Y-131052282D01*
X111406027Y-131052288D01*
X111403255Y-131059684D01*
X111396500Y-131121866D01*
X111396500Y-131160500D01*
X111376498Y-131228621D01*
X111322842Y-131275114D01*
X111270500Y-131286500D01*
X111245144Y-131286500D01*
X111241229Y-131286995D01*
X111241225Y-131286995D01*
X111241167Y-131287003D01*
X111241138Y-131287006D01*
X111229296Y-131287939D01*
X111185110Y-131289327D01*
X111170532Y-131293562D01*
X111165658Y-131294978D01*
X111146306Y-131298986D01*
X111134068Y-131300532D01*
X111134066Y-131300533D01*
X111126203Y-131301526D01*
X111085086Y-131317806D01*
X111073885Y-131321641D01*
X111031406Y-131333982D01*
X111024587Y-131338015D01*
X111024582Y-131338017D01*
X111013971Y-131344293D01*
X110996221Y-131352990D01*
X110977383Y-131360448D01*
X110970967Y-131365109D01*
X110970966Y-131365110D01*
X110941625Y-131386428D01*
X110931701Y-131392947D01*
X110900460Y-131411422D01*
X110900455Y-131411426D01*
X110893637Y-131415458D01*
X110879313Y-131429782D01*
X110864281Y-131442621D01*
X110847893Y-131454528D01*
X110838211Y-131466232D01*
X110819712Y-131488593D01*
X110811722Y-131497373D01*
X109842170Y-132466925D01*
X109779858Y-132500951D01*
X109709043Y-132495886D01*
X109676893Y-132477787D01*
X109675150Y-132476119D01*
X109670122Y-132472873D01*
X109670119Y-132472870D01*
X109573054Y-132410196D01*
X109497452Y-132361380D01*
X109393043Y-132319302D01*
X109306832Y-132284558D01*
X109306829Y-132284557D01*
X109301263Y-132282314D01*
X109093663Y-132241772D01*
X109088101Y-132241500D01*
X108132154Y-132241500D01*
X107974434Y-132256548D01*
X107771466Y-132316092D01*
X107766139Y-132318836D01*
X107766138Y-132318836D01*
X107588751Y-132410196D01*
X107588748Y-132410198D01*
X107583420Y-132412942D01*
X107417080Y-132543604D01*
X107413148Y-132548135D01*
X107413145Y-132548138D01*
X107352023Y-132618575D01*
X107278448Y-132703363D01*
X107275448Y-132708549D01*
X107275445Y-132708553D01*
X107238474Y-132772460D01*
X107172527Y-132886454D01*
X107103139Y-133086271D01*
X107102278Y-133092206D01*
X107102278Y-133092208D01*
X107097476Y-133125331D01*
X107072787Y-133295604D01*
X107082567Y-133506899D01*
X107083971Y-133512724D01*
X107083971Y-133512725D01*
X107130680Y-133706537D01*
X107132125Y-133712534D01*
X107219674Y-133905087D01*
X107342054Y-134077611D01*
X107494850Y-134223881D01*
X107672548Y-134338620D01*
X107678114Y-134340863D01*
X107863168Y-134415442D01*
X107863171Y-134415443D01*
X107868737Y-134417686D01*
X108076337Y-134458228D01*
X108081899Y-134458500D01*
X109037846Y-134458500D01*
X109195566Y-134443452D01*
X109398534Y-134383908D01*
X109482977Y-134340417D01*
X109581249Y-134289804D01*
X109581252Y-134289802D01*
X109586580Y-134287058D01*
X109752920Y-134156396D01*
X109756852Y-134151865D01*
X109756855Y-134151862D01*
X109868434Y-134023278D01*
X109928187Y-133984937D01*
X109943888Y-133981409D01*
X109946962Y-133980922D01*
X109954889Y-133980673D01*
X109974343Y-133975021D01*
X109993700Y-133971013D01*
X110005930Y-133969468D01*
X110005931Y-133969468D01*
X110013797Y-133968474D01*
X110021168Y-133965555D01*
X110021170Y-133965555D01*
X110054912Y-133952196D01*
X110066142Y-133948351D01*
X110100983Y-133938229D01*
X110100984Y-133938229D01*
X110108593Y-133936018D01*
X110115412Y-133931985D01*
X110115417Y-133931983D01*
X110126028Y-133925707D01*
X110143776Y-133917012D01*
X110162617Y-133909552D01*
X110198387Y-133883564D01*
X110208307Y-133877048D01*
X110239535Y-133858580D01*
X110239538Y-133858578D01*
X110246362Y-133854542D01*
X110260683Y-133840221D01*
X110275717Y-133827380D01*
X110285694Y-133820131D01*
X110292107Y-133815472D01*
X110320298Y-133781395D01*
X110328288Y-133772616D01*
X111210005Y-132890899D01*
X111272317Y-132856873D01*
X111343132Y-132861938D01*
X111399968Y-132904485D01*
X111424779Y-132971005D01*
X111417082Y-133024223D01*
X111406522Y-133052391D01*
X111402895Y-133067649D01*
X111397369Y-133118514D01*
X111397000Y-133125328D01*
X111397000Y-133647885D01*
X111401475Y-133663124D01*
X111402865Y-133664329D01*
X111410548Y-133666000D01*
X114394884Y-133666000D01*
X114410123Y-133661525D01*
X114411328Y-133660135D01*
X114412999Y-133652452D01*
X114412999Y-133647885D01*
X127397000Y-133647885D01*
X127401475Y-133663124D01*
X127402865Y-133664329D01*
X127410548Y-133666000D01*
X128632885Y-133666000D01*
X128648124Y-133661525D01*
X128649329Y-133660135D01*
X128651000Y-133652452D01*
X128651000Y-133647885D01*
X129159000Y-133647885D01*
X129163475Y-133663124D01*
X129164865Y-133664329D01*
X129172548Y-133666000D01*
X130394884Y-133666000D01*
X130410123Y-133661525D01*
X130411328Y-133660135D01*
X130412999Y-133652452D01*
X130412999Y-133617399D01*
X132509712Y-133617399D01*
X132531194Y-133706537D01*
X132535083Y-133717832D01*
X132617629Y-133899382D01*
X132623576Y-133909724D01*
X132738968Y-134072397D01*
X132746761Y-134081425D01*
X132890831Y-134219342D01*
X132900196Y-134226738D01*
X133067741Y-134334921D01*
X133078345Y-134340417D01*
X133263312Y-134414961D01*
X133274770Y-134418355D01*
X133471928Y-134456857D01*
X133480791Y-134457934D01*
X133483500Y-134458000D01*
X133712885Y-134458000D01*
X133728124Y-134453525D01*
X133729329Y-134452135D01*
X133731000Y-134444452D01*
X133731000Y-134439885D01*
X134239000Y-134439885D01*
X134243475Y-134455124D01*
X134244865Y-134456329D01*
X134252548Y-134458000D01*
X134434832Y-134458000D01*
X134440808Y-134457715D01*
X134589494Y-134443529D01*
X134601228Y-134441270D01*
X134792599Y-134385128D01*
X134803675Y-134380698D01*
X134980978Y-134289381D01*
X134991024Y-134282931D01*
X135147857Y-134159738D01*
X135156506Y-134151501D01*
X135287212Y-134000877D01*
X135294147Y-133991153D01*
X135394010Y-133818533D01*
X135398984Y-133807669D01*
X135464407Y-133619273D01*
X135464648Y-133618284D01*
X135463180Y-133607992D01*
X135449615Y-133604000D01*
X134257115Y-133604000D01*
X134241876Y-133608475D01*
X134240671Y-133609865D01*
X134239000Y-133617548D01*
X134239000Y-134439885D01*
X133731000Y-134439885D01*
X133731000Y-133622115D01*
X133726525Y-133606876D01*
X133725135Y-133605671D01*
X133717452Y-133604000D01*
X132524598Y-133604000D01*
X132511067Y-133607973D01*
X132509712Y-133617399D01*
X130412999Y-133617399D01*
X130412999Y-133125331D01*
X130412629Y-133118510D01*
X130408633Y-133081716D01*
X132505352Y-133081716D01*
X132506820Y-133092008D01*
X132520385Y-133096000D01*
X133712885Y-133096000D01*
X133728124Y-133091525D01*
X133729329Y-133090135D01*
X133731000Y-133082452D01*
X133731000Y-133077885D01*
X134239000Y-133077885D01*
X134243475Y-133093124D01*
X134244865Y-133094329D01*
X134252548Y-133096000D01*
X135445402Y-133096000D01*
X135458933Y-133092027D01*
X135460288Y-133082601D01*
X135438806Y-132993463D01*
X135434917Y-132982168D01*
X135352371Y-132800618D01*
X135346424Y-132790276D01*
X135231032Y-132627603D01*
X135223239Y-132618575D01*
X135079169Y-132480658D01*
X135069804Y-132473262D01*
X134902259Y-132365079D01*
X134891655Y-132359583D01*
X134706688Y-132285039D01*
X134695230Y-132281645D01*
X134498072Y-132243143D01*
X134489209Y-132242066D01*
X134486500Y-132242000D01*
X134257115Y-132242000D01*
X134241876Y-132246475D01*
X134240671Y-132247865D01*
X134239000Y-132255548D01*
X134239000Y-133077885D01*
X133731000Y-133077885D01*
X133731000Y-132260115D01*
X133726525Y-132244876D01*
X133725135Y-132243671D01*
X133717452Y-132242000D01*
X133535168Y-132242000D01*
X133529192Y-132242285D01*
X133380506Y-132256471D01*
X133368772Y-132258730D01*
X133177401Y-132314872D01*
X133166325Y-132319302D01*
X132989022Y-132410619D01*
X132978976Y-132417069D01*
X132822143Y-132540262D01*
X132813494Y-132548499D01*
X132682788Y-132699123D01*
X132675853Y-132708847D01*
X132575990Y-132881467D01*
X132571016Y-132892331D01*
X132505593Y-133080727D01*
X132505352Y-133081716D01*
X130408633Y-133081716D01*
X130407105Y-133067648D01*
X130403479Y-133052396D01*
X130370427Y-132964230D01*
X130365244Y-132893422D01*
X130370427Y-132875770D01*
X130403478Y-132787606D01*
X130407105Y-132772351D01*
X130412631Y-132721486D01*
X130413000Y-132714672D01*
X130413000Y-132192115D01*
X130408525Y-132176876D01*
X130407135Y-132175671D01*
X130399452Y-132174000D01*
X129177115Y-132174000D01*
X129161876Y-132178475D01*
X129160671Y-132179865D01*
X129159000Y-132187548D01*
X129159000Y-133647885D01*
X128651000Y-133647885D01*
X128651000Y-132192115D01*
X128646525Y-132176876D01*
X128645135Y-132175671D01*
X128637452Y-132174000D01*
X127415116Y-132174000D01*
X127399877Y-132178475D01*
X127398672Y-132179865D01*
X127397001Y-132187548D01*
X127397001Y-132714669D01*
X127397371Y-132721490D01*
X127402895Y-132772352D01*
X127406521Y-132787604D01*
X127439573Y-132875770D01*
X127444756Y-132946578D01*
X127439573Y-132964230D01*
X127406522Y-133052394D01*
X127402895Y-133067649D01*
X127397369Y-133118514D01*
X127397000Y-133125328D01*
X127397000Y-133647885D01*
X114412999Y-133647885D01*
X114412999Y-133125331D01*
X114412629Y-133118510D01*
X114407105Y-133067648D01*
X114403478Y-133052394D01*
X114370694Y-132964941D01*
X114365511Y-132894134D01*
X114370694Y-132876483D01*
X114403971Y-132787718D01*
X114403973Y-132787712D01*
X114406745Y-132780316D01*
X114413500Y-132718134D01*
X114413500Y-131609594D01*
X114433502Y-131541473D01*
X114450405Y-131520499D01*
X115327247Y-130643657D01*
X115335537Y-130636113D01*
X115342018Y-130632000D01*
X115388659Y-130582332D01*
X115391413Y-130579491D01*
X115411134Y-130559770D01*
X115413612Y-130556575D01*
X115421318Y-130547553D01*
X115446158Y-130521101D01*
X115451586Y-130515321D01*
X115461346Y-130497568D01*
X115472199Y-130481045D01*
X115479753Y-130471306D01*
X115484613Y-130465041D01*
X115502176Y-130424457D01*
X115507383Y-130413827D01*
X115528695Y-130375060D01*
X115530666Y-130367383D01*
X115530668Y-130367378D01*
X115533732Y-130355442D01*
X115540138Y-130336730D01*
X115545033Y-130325419D01*
X115548181Y-130318145D01*
X115549421Y-130310317D01*
X115549423Y-130310310D01*
X115555099Y-130274476D01*
X115557505Y-130262856D01*
X115566528Y-130227711D01*
X115566528Y-130227710D01*
X115568500Y-130220030D01*
X115568500Y-130199776D01*
X115570051Y-130180065D01*
X115571980Y-130167886D01*
X115573220Y-130160057D01*
X115569059Y-130116038D01*
X115568500Y-130104181D01*
X115568500Y-126928594D01*
X115588502Y-126860473D01*
X115642158Y-126813980D01*
X115712432Y-126803876D01*
X115777012Y-126833370D01*
X115783595Y-126839499D01*
X117256343Y-128312247D01*
X117263887Y-128320537D01*
X117268000Y-128327018D01*
X117273777Y-128332443D01*
X117317667Y-128373658D01*
X117320509Y-128376413D01*
X117340231Y-128396135D01*
X117343373Y-128398572D01*
X117343433Y-128398619D01*
X117352445Y-128406317D01*
X117374363Y-128426899D01*
X117384679Y-128436586D01*
X117391622Y-128440403D01*
X117402431Y-128446345D01*
X117418953Y-128457198D01*
X117434959Y-128469614D01*
X117442237Y-128472764D01*
X117442238Y-128472764D01*
X117475537Y-128487174D01*
X117486187Y-128492391D01*
X117524940Y-128513695D01*
X117532615Y-128515666D01*
X117532616Y-128515666D01*
X117544562Y-128518733D01*
X117563267Y-128525137D01*
X117581855Y-128533181D01*
X117589678Y-128534420D01*
X117589688Y-128534423D01*
X117625524Y-128540099D01*
X117637144Y-128542505D01*
X117672289Y-128551528D01*
X117679970Y-128553500D01*
X117700224Y-128553500D01*
X117719934Y-128555051D01*
X117739943Y-128558220D01*
X117747835Y-128557474D01*
X117783961Y-128554059D01*
X117795819Y-128553500D01*
X127270500Y-128553500D01*
X127338621Y-128573502D01*
X127385114Y-128627158D01*
X127396500Y-128679500D01*
X127396500Y-128718134D01*
X127403255Y-128780316D01*
X127406027Y-128787712D01*
X127406029Y-128787718D01*
X127439039Y-128875771D01*
X127444222Y-128946578D01*
X127439039Y-128964229D01*
X127406029Y-129052282D01*
X127406027Y-129052288D01*
X127403255Y-129059684D01*
X127396500Y-129121866D01*
X127396500Y-130718134D01*
X127403255Y-130780316D01*
X127406027Y-130787712D01*
X127406029Y-130787718D01*
X127439306Y-130876483D01*
X127444489Y-130947290D01*
X127439306Y-130964941D01*
X127406522Y-131052391D01*
X127402895Y-131067649D01*
X127397369Y-131118514D01*
X127397000Y-131125328D01*
X127397000Y-131647885D01*
X127401475Y-131663124D01*
X127402865Y-131664329D01*
X127410548Y-131666000D01*
X130394884Y-131666000D01*
X130410123Y-131661525D01*
X130411328Y-131660135D01*
X130412999Y-131652452D01*
X130412999Y-131125331D01*
X130412629Y-131118510D01*
X130407105Y-131067648D01*
X130403478Y-131052394D01*
X130370694Y-130964941D01*
X130365511Y-130894134D01*
X130370694Y-130876483D01*
X130403971Y-130787718D01*
X130403973Y-130787712D01*
X130406745Y-130780316D01*
X130411028Y-130740892D01*
X130438270Y-130675330D01*
X130496634Y-130634904D01*
X130536291Y-130628500D01*
X131479340Y-130628500D01*
X131547461Y-130648502D01*
X131568435Y-130665405D01*
X132193550Y-131290520D01*
X132199404Y-131296785D01*
X132237439Y-131340385D01*
X132279540Y-131369974D01*
X132289719Y-131377128D01*
X132295014Y-131381061D01*
X132345282Y-131420476D01*
X132352198Y-131423599D01*
X132354484Y-131424983D01*
X132369165Y-131433357D01*
X132371525Y-131434622D01*
X132377739Y-131438990D01*
X132384818Y-131441750D01*
X132384820Y-131441751D01*
X132437275Y-131462202D01*
X132443344Y-131464753D01*
X132501573Y-131491045D01*
X132509046Y-131492430D01*
X132511612Y-131493234D01*
X132527835Y-131497855D01*
X132530427Y-131498520D01*
X132537509Y-131501282D01*
X132545044Y-131502274D01*
X132600861Y-131509622D01*
X132607377Y-131510654D01*
X132645770Y-131517770D01*
X132670186Y-131522295D01*
X132677770Y-131521858D01*
X132683004Y-131522187D01*
X132749734Y-131546425D01*
X132762221Y-131556917D01*
X132894850Y-131683881D01*
X133072548Y-131798620D01*
X133078114Y-131800863D01*
X133263168Y-131875442D01*
X133263171Y-131875443D01*
X133268737Y-131877686D01*
X133476337Y-131918228D01*
X133481899Y-131918500D01*
X134437846Y-131918500D01*
X134595566Y-131903452D01*
X134798534Y-131843908D01*
X134882111Y-131800863D01*
X134981249Y-131749804D01*
X134981252Y-131749802D01*
X134986580Y-131747058D01*
X135152920Y-131616396D01*
X135197168Y-131565404D01*
X135256920Y-131527064D01*
X135285253Y-131522241D01*
X135292352Y-131522725D01*
X135299829Y-131521420D01*
X135299831Y-131521420D01*
X135339130Y-131514561D01*
X135355303Y-131511738D01*
X135361821Y-131510777D01*
X135425242Y-131503102D01*
X135432343Y-131500419D01*
X135434952Y-131499778D01*
X135451262Y-131495315D01*
X135453798Y-131494550D01*
X135461284Y-131493243D01*
X135519800Y-131467556D01*
X135525904Y-131465065D01*
X135578548Y-131445173D01*
X135578549Y-131445172D01*
X135585656Y-131442487D01*
X135591919Y-131438183D01*
X135594285Y-131436946D01*
X135609097Y-131428701D01*
X135611351Y-131427368D01*
X135618305Y-131424315D01*
X135669002Y-131385413D01*
X135674332Y-131381541D01*
X135720720Y-131349661D01*
X135720725Y-131349656D01*
X135726981Y-131345357D01*
X135750839Y-131318580D01*
X135768427Y-131298839D01*
X135773408Y-131293562D01*
X136309905Y-130757066D01*
X136372217Y-130723041D01*
X136443033Y-130728106D01*
X136499868Y-130770653D01*
X136524679Y-130837173D01*
X136525000Y-130846162D01*
X136525000Y-137034000D01*
X136504998Y-137102121D01*
X136451342Y-137148614D01*
X136399000Y-137160000D01*
X134858870Y-137160000D01*
X134790749Y-137139998D01*
X134744256Y-137086342D01*
X134734152Y-137016068D01*
X134763646Y-136951488D01*
X134801178Y-136921984D01*
X134980978Y-136829381D01*
X134991024Y-136822931D01*
X135147857Y-136699738D01*
X135156506Y-136691501D01*
X135287212Y-136540877D01*
X135294147Y-136531153D01*
X135394010Y-136358533D01*
X135398984Y-136347669D01*
X135464407Y-136159273D01*
X135464648Y-136158284D01*
X135463180Y-136147992D01*
X135449615Y-136144000D01*
X132524598Y-136144000D01*
X132511067Y-136147973D01*
X132509712Y-136157399D01*
X132531194Y-136246537D01*
X132535083Y-136257832D01*
X132617629Y-136439382D01*
X132623576Y-136449724D01*
X132738968Y-136612397D01*
X132746761Y-136621425D01*
X132890831Y-136759342D01*
X132900196Y-136766738D01*
X133067741Y-136874921D01*
X133078341Y-136880415D01*
X133169452Y-136917134D01*
X133225157Y-136961149D01*
X133248224Y-137028294D01*
X133231327Y-137097251D01*
X133179832Y-137146126D01*
X133122353Y-137160000D01*
X109458870Y-137160000D01*
X109390749Y-137139998D01*
X109344256Y-137086342D01*
X109334152Y-137016068D01*
X109363646Y-136951488D01*
X109401178Y-136921984D01*
X109580978Y-136829381D01*
X109591024Y-136822931D01*
X109747857Y-136699738D01*
X109756506Y-136691501D01*
X109887212Y-136540877D01*
X109894147Y-136531153D01*
X109994010Y-136358533D01*
X109998984Y-136347669D01*
X110064407Y-136159273D01*
X110064648Y-136158284D01*
X110063180Y-136147992D01*
X110049615Y-136144000D01*
X107124598Y-136144000D01*
X107111067Y-136147973D01*
X107109712Y-136157399D01*
X107131194Y-136246537D01*
X107135083Y-136257832D01*
X107217629Y-136439382D01*
X107223576Y-136449724D01*
X107338968Y-136612397D01*
X107346761Y-136621425D01*
X107490831Y-136759342D01*
X107500196Y-136766738D01*
X107667741Y-136874921D01*
X107678341Y-136880415D01*
X107769452Y-136917134D01*
X107825157Y-136961149D01*
X107848224Y-137028294D01*
X107831327Y-137097251D01*
X107779832Y-137146126D01*
X107722353Y-137160000D01*
X106171000Y-137160000D01*
X106102879Y-137139998D01*
X106056386Y-137086342D01*
X106045000Y-137034000D01*
X106045000Y-135621716D01*
X107105352Y-135621716D01*
X107106820Y-135632008D01*
X107120385Y-135636000D01*
X108312885Y-135636000D01*
X108328124Y-135631525D01*
X108329329Y-135630135D01*
X108331000Y-135622452D01*
X108331000Y-135617885D01*
X108839000Y-135617885D01*
X108843475Y-135633124D01*
X108844865Y-135634329D01*
X108852548Y-135636000D01*
X110045402Y-135636000D01*
X110058933Y-135632027D01*
X110060288Y-135622601D01*
X110060075Y-135621716D01*
X132505352Y-135621716D01*
X132506820Y-135632008D01*
X132520385Y-135636000D01*
X133712885Y-135636000D01*
X133728124Y-135631525D01*
X133729329Y-135630135D01*
X133731000Y-135622452D01*
X133731000Y-135617885D01*
X134239000Y-135617885D01*
X134243475Y-135633124D01*
X134244865Y-135634329D01*
X134252548Y-135636000D01*
X135445402Y-135636000D01*
X135458933Y-135632027D01*
X135460288Y-135622601D01*
X135438806Y-135533463D01*
X135434917Y-135522168D01*
X135352371Y-135340618D01*
X135346424Y-135330276D01*
X135231032Y-135167603D01*
X135223239Y-135158575D01*
X135079169Y-135020658D01*
X135069804Y-135013262D01*
X134902259Y-134905079D01*
X134891655Y-134899583D01*
X134706688Y-134825039D01*
X134695230Y-134821645D01*
X134498072Y-134783143D01*
X134489209Y-134782066D01*
X134486500Y-134782000D01*
X134257115Y-134782000D01*
X134241876Y-134786475D01*
X134240671Y-134787865D01*
X134239000Y-134795548D01*
X134239000Y-135617885D01*
X133731000Y-135617885D01*
X133731000Y-134800115D01*
X133726525Y-134784876D01*
X133725135Y-134783671D01*
X133717452Y-134782000D01*
X133535168Y-134782000D01*
X133529192Y-134782285D01*
X133380506Y-134796471D01*
X133368772Y-134798730D01*
X133177401Y-134854872D01*
X133166325Y-134859302D01*
X132989022Y-134950619D01*
X132978976Y-134957069D01*
X132822143Y-135080262D01*
X132813494Y-135088499D01*
X132682788Y-135239123D01*
X132675853Y-135248847D01*
X132575990Y-135421467D01*
X132571016Y-135432331D01*
X132505593Y-135620727D01*
X132505352Y-135621716D01*
X110060075Y-135621716D01*
X110038806Y-135533463D01*
X110034917Y-135522168D01*
X109952371Y-135340618D01*
X109946424Y-135330276D01*
X109831032Y-135167603D01*
X109823239Y-135158575D01*
X109679169Y-135020658D01*
X109669804Y-135013262D01*
X109502259Y-134905079D01*
X109491655Y-134899583D01*
X109306688Y-134825039D01*
X109295230Y-134821645D01*
X109098072Y-134783143D01*
X109089209Y-134782066D01*
X109086500Y-134782000D01*
X108857115Y-134782000D01*
X108841876Y-134786475D01*
X108840671Y-134787865D01*
X108839000Y-134795548D01*
X108839000Y-135617885D01*
X108331000Y-135617885D01*
X108331000Y-134800115D01*
X108326525Y-134784876D01*
X108325135Y-134783671D01*
X108317452Y-134782000D01*
X108135168Y-134782000D01*
X108129192Y-134782285D01*
X107980506Y-134796471D01*
X107968772Y-134798730D01*
X107777401Y-134854872D01*
X107766325Y-134859302D01*
X107589022Y-134950619D01*
X107578976Y-134957069D01*
X107422143Y-135080262D01*
X107413494Y-135088499D01*
X107282788Y-135239123D01*
X107275853Y-135248847D01*
X107175990Y-135421467D01*
X107171016Y-135432331D01*
X107105593Y-135620727D01*
X107105352Y-135621716D01*
X106045000Y-135621716D01*
X106045000Y-134714669D01*
X111397001Y-134714669D01*
X111397371Y-134721490D01*
X111402895Y-134772352D01*
X111406521Y-134787604D01*
X111451676Y-134908054D01*
X111460214Y-134923649D01*
X111536715Y-135025724D01*
X111549276Y-135038285D01*
X111651351Y-135114786D01*
X111666946Y-135123324D01*
X111787394Y-135168478D01*
X111802649Y-135172105D01*
X111853514Y-135177631D01*
X111860328Y-135178000D01*
X112632885Y-135178000D01*
X112648124Y-135173525D01*
X112649329Y-135172135D01*
X112651000Y-135164452D01*
X112651000Y-135159884D01*
X113159000Y-135159884D01*
X113163475Y-135175123D01*
X113164865Y-135176328D01*
X113172548Y-135177999D01*
X113949669Y-135177999D01*
X113956490Y-135177629D01*
X114007352Y-135172105D01*
X114022604Y-135168479D01*
X114143054Y-135123324D01*
X114158649Y-135114786D01*
X114260724Y-135038285D01*
X114273285Y-135025724D01*
X114349786Y-134923649D01*
X114358324Y-134908054D01*
X114403478Y-134787606D01*
X114407105Y-134772351D01*
X114412631Y-134721486D01*
X114413000Y-134714672D01*
X114413000Y-134714669D01*
X127397001Y-134714669D01*
X127397371Y-134721490D01*
X127402895Y-134772352D01*
X127406521Y-134787604D01*
X127451676Y-134908054D01*
X127460214Y-134923649D01*
X127536715Y-135025724D01*
X127549276Y-135038285D01*
X127651351Y-135114786D01*
X127666946Y-135123324D01*
X127787394Y-135168478D01*
X127802649Y-135172105D01*
X127853514Y-135177631D01*
X127860328Y-135178000D01*
X128632885Y-135178000D01*
X128648124Y-135173525D01*
X128649329Y-135172135D01*
X128651000Y-135164452D01*
X128651000Y-135159884D01*
X129159000Y-135159884D01*
X129163475Y-135175123D01*
X129164865Y-135176328D01*
X129172548Y-135177999D01*
X129949669Y-135177999D01*
X129956490Y-135177629D01*
X130007352Y-135172105D01*
X130022604Y-135168479D01*
X130143054Y-135123324D01*
X130158649Y-135114786D01*
X130260724Y-135038285D01*
X130273285Y-135025724D01*
X130349786Y-134923649D01*
X130358324Y-134908054D01*
X130403478Y-134787606D01*
X130407105Y-134772351D01*
X130412631Y-134721486D01*
X130413000Y-134714672D01*
X130413000Y-134192115D01*
X130408525Y-134176876D01*
X130407135Y-134175671D01*
X130399452Y-134174000D01*
X129177115Y-134174000D01*
X129161876Y-134178475D01*
X129160671Y-134179865D01*
X129159000Y-134187548D01*
X129159000Y-135159884D01*
X128651000Y-135159884D01*
X128651000Y-134192115D01*
X128646525Y-134176876D01*
X128645135Y-134175671D01*
X128637452Y-134174000D01*
X127415116Y-134174000D01*
X127399877Y-134178475D01*
X127398672Y-134179865D01*
X127397001Y-134187548D01*
X127397001Y-134714669D01*
X114413000Y-134714669D01*
X114413000Y-134192115D01*
X114408525Y-134176876D01*
X114407135Y-134175671D01*
X114399452Y-134174000D01*
X113177115Y-134174000D01*
X113161876Y-134178475D01*
X113160671Y-134179865D01*
X113159000Y-134187548D01*
X113159000Y-135159884D01*
X112651000Y-135159884D01*
X112651000Y-134192115D01*
X112646525Y-134176876D01*
X112645135Y-134175671D01*
X112637452Y-134174000D01*
X111415116Y-134174000D01*
X111399877Y-134178475D01*
X111398672Y-134179865D01*
X111397001Y-134187548D01*
X111397001Y-134714669D01*
X106045000Y-134714669D01*
X106045000Y-126907270D01*
X106065002Y-126839149D01*
X106118658Y-126792656D01*
X106188932Y-126782552D01*
X106253512Y-126812046D01*
G37*
%TD.AperFunction*%
%TA.AperFunction,Conductor*%
G36*
X108611202Y-64790002D02*
G01*
X108657695Y-64843658D01*
X108667799Y-64913932D01*
X108658161Y-64942836D01*
X108659385Y-64943295D01*
X108608255Y-65079684D01*
X108601500Y-65141866D01*
X108601500Y-66938134D01*
X108608255Y-67000316D01*
X108659385Y-67136705D01*
X108664771Y-67143891D01*
X108732630Y-67234435D01*
X108757478Y-67300941D01*
X108742425Y-67370324D01*
X108732632Y-67385562D01*
X108659385Y-67483295D01*
X108608255Y-67619684D01*
X108601500Y-67681866D01*
X108601500Y-69478134D01*
X108608255Y-69540316D01*
X108659385Y-69676705D01*
X108664771Y-69683891D01*
X108732942Y-69774852D01*
X108757790Y-69841358D01*
X108742737Y-69910741D01*
X108732942Y-69925982D01*
X108665214Y-70016351D01*
X108656676Y-70031946D01*
X108611522Y-70152394D01*
X108607895Y-70167649D01*
X108602369Y-70218514D01*
X108602000Y-70225328D01*
X108602000Y-70847885D01*
X108606475Y-70863124D01*
X108607865Y-70864329D01*
X108615548Y-70866000D01*
X113099884Y-70866000D01*
X113115123Y-70861525D01*
X113116328Y-70860135D01*
X113117999Y-70852452D01*
X113117999Y-70225331D01*
X113117629Y-70218510D01*
X113112105Y-70167648D01*
X113108479Y-70152396D01*
X113063324Y-70031946D01*
X113054786Y-70016351D01*
X112987058Y-69925982D01*
X112962210Y-69859475D01*
X112977263Y-69790093D01*
X112987058Y-69774852D01*
X113055229Y-69683891D01*
X113060615Y-69676705D01*
X113111745Y-69540316D01*
X113118500Y-69478134D01*
X113118500Y-69200000D01*
X116961693Y-69200000D01*
X116980885Y-69419371D01*
X117037880Y-69632076D01*
X117040205Y-69637061D01*
X117128618Y-69826666D01*
X117128621Y-69826671D01*
X117130944Y-69831653D01*
X117134100Y-69836160D01*
X117134101Y-69836162D01*
X117165228Y-69880615D01*
X117257251Y-70012038D01*
X117412962Y-70167749D01*
X117593346Y-70294056D01*
X117792924Y-70387120D01*
X118005629Y-70444115D01*
X118225000Y-70463307D01*
X118444371Y-70444115D01*
X118657076Y-70387120D01*
X118856654Y-70294056D01*
X119037038Y-70167749D01*
X119192749Y-70012038D01*
X119284773Y-69880615D01*
X119315899Y-69836162D01*
X119315900Y-69836160D01*
X119319056Y-69831653D01*
X119321379Y-69826671D01*
X119321382Y-69826666D01*
X119409795Y-69637061D01*
X119412120Y-69632076D01*
X119469115Y-69419371D01*
X119488307Y-69200000D01*
X121811693Y-69200000D01*
X121830885Y-69419371D01*
X121887880Y-69632076D01*
X121890205Y-69637061D01*
X121978618Y-69826666D01*
X121978621Y-69826671D01*
X121980944Y-69831653D01*
X121984100Y-69836160D01*
X121984101Y-69836162D01*
X122015228Y-69880615D01*
X122107251Y-70012038D01*
X122262962Y-70167749D01*
X122443346Y-70294056D01*
X122642924Y-70387120D01*
X122855629Y-70444115D01*
X123075000Y-70463307D01*
X123294371Y-70444115D01*
X123507076Y-70387120D01*
X123706654Y-70294056D01*
X123887038Y-70167749D01*
X124042749Y-70012038D01*
X124134773Y-69880615D01*
X124165899Y-69836162D01*
X124165900Y-69836160D01*
X124169056Y-69831653D01*
X124171379Y-69826671D01*
X124171382Y-69826666D01*
X124259795Y-69637061D01*
X124262120Y-69632076D01*
X124319115Y-69419371D01*
X124338307Y-69200000D01*
X124319115Y-68980629D01*
X124262120Y-68767924D01*
X124212451Y-68661409D01*
X124171382Y-68573334D01*
X124171379Y-68573329D01*
X124169056Y-68568347D01*
X124165899Y-68563838D01*
X124045908Y-68392473D01*
X124045906Y-68392470D01*
X124042749Y-68387962D01*
X123887038Y-68232251D01*
X123706654Y-68105944D01*
X123507076Y-68012880D01*
X123294371Y-67955885D01*
X123075000Y-67936693D01*
X122855629Y-67955885D01*
X122642924Y-68012880D01*
X122549562Y-68056415D01*
X122448334Y-68103618D01*
X122448329Y-68103621D01*
X122443347Y-68105944D01*
X122438840Y-68109100D01*
X122438838Y-68109101D01*
X122267473Y-68229092D01*
X122267470Y-68229094D01*
X122262962Y-68232251D01*
X122107251Y-68387962D01*
X122104094Y-68392470D01*
X122104092Y-68392473D01*
X121984101Y-68563838D01*
X121980944Y-68568347D01*
X121978621Y-68573329D01*
X121978618Y-68573334D01*
X121937549Y-68661409D01*
X121887880Y-68767924D01*
X121830885Y-68980629D01*
X121811693Y-69200000D01*
X119488307Y-69200000D01*
X119469115Y-68980629D01*
X119412120Y-68767924D01*
X119362451Y-68661409D01*
X119321382Y-68573334D01*
X119321379Y-68573329D01*
X119319056Y-68568347D01*
X119315899Y-68563838D01*
X119195908Y-68392473D01*
X119195906Y-68392470D01*
X119192749Y-68387962D01*
X119037038Y-68232251D01*
X118856654Y-68105944D01*
X118657076Y-68012880D01*
X118444371Y-67955885D01*
X118225000Y-67936693D01*
X118005629Y-67955885D01*
X117792924Y-68012880D01*
X117699562Y-68056415D01*
X117598334Y-68103618D01*
X117598329Y-68103621D01*
X117593347Y-68105944D01*
X117588840Y-68109100D01*
X117588838Y-68109101D01*
X117417473Y-68229092D01*
X117417470Y-68229094D01*
X117412962Y-68232251D01*
X117257251Y-68387962D01*
X117254094Y-68392470D01*
X117254092Y-68392473D01*
X117134101Y-68563838D01*
X117130944Y-68568347D01*
X117128621Y-68573329D01*
X117128618Y-68573334D01*
X117087549Y-68661409D01*
X117037880Y-68767924D01*
X116980885Y-68980629D01*
X116961693Y-69200000D01*
X113118500Y-69200000D01*
X113118500Y-68677856D01*
X113119578Y-68661409D01*
X113121092Y-68649908D01*
X113121529Y-68646590D01*
X113123156Y-68580000D01*
X113118924Y-68528524D01*
X113118500Y-68518200D01*
X113118500Y-67681866D01*
X113111745Y-67619684D01*
X113060615Y-67483295D01*
X112987370Y-67385564D01*
X112962522Y-67319059D01*
X112977575Y-67249676D01*
X112987370Y-67234435D01*
X113055229Y-67143891D01*
X113060615Y-67136705D01*
X113111745Y-67000316D01*
X113118500Y-66938134D01*
X113118500Y-66137856D01*
X113119578Y-66121409D01*
X113121092Y-66109908D01*
X113121529Y-66106590D01*
X113123156Y-66040000D01*
X113118924Y-65988524D01*
X113118500Y-65978200D01*
X113118500Y-65141866D01*
X113111745Y-65079684D01*
X113060615Y-64943295D01*
X113063289Y-64942292D01*
X113051230Y-64887150D01*
X113075968Y-64820602D01*
X113132757Y-64777993D01*
X113176919Y-64770000D01*
X117065975Y-64770000D01*
X117134096Y-64790002D01*
X117180589Y-64843658D01*
X117190693Y-64913932D01*
X117161199Y-64978512D01*
X117141628Y-64996760D01*
X117031184Y-65079684D01*
X116986655Y-65113117D01*
X116826639Y-65280564D01*
X116823725Y-65284836D01*
X116823724Y-65284837D01*
X116808152Y-65307665D01*
X116696119Y-65471899D01*
X116598602Y-65681981D01*
X116536707Y-65905169D01*
X116512095Y-66135469D01*
X116512392Y-66140622D01*
X116512392Y-66140625D01*
X116518067Y-66239041D01*
X116525427Y-66366697D01*
X116526564Y-66371743D01*
X116526565Y-66371749D01*
X116558741Y-66514523D01*
X116576346Y-66592642D01*
X116578288Y-66597424D01*
X116578289Y-66597428D01*
X116661540Y-66802450D01*
X116663484Y-66807237D01*
X116784501Y-67004719D01*
X116936147Y-67179784D01*
X117114349Y-67327730D01*
X117314322Y-67444584D01*
X117530694Y-67527209D01*
X117535760Y-67528240D01*
X117535761Y-67528240D01*
X117588846Y-67539040D01*
X117757656Y-67573385D01*
X117888324Y-67578176D01*
X117983949Y-67581683D01*
X117983953Y-67581683D01*
X117989113Y-67581872D01*
X117994233Y-67581216D01*
X117994235Y-67581216D01*
X118067270Y-67571860D01*
X118218847Y-67552442D01*
X118223795Y-67550957D01*
X118223802Y-67550956D01*
X118435747Y-67487369D01*
X118440690Y-67485886D01*
X118445979Y-67483295D01*
X118644049Y-67386262D01*
X118644052Y-67386260D01*
X118648684Y-67383991D01*
X118837243Y-67249494D01*
X119001303Y-67086005D01*
X119136458Y-66897917D01*
X119183641Y-66802450D01*
X119236784Y-66694922D01*
X119236785Y-66694920D01*
X119239078Y-66690280D01*
X119306408Y-66468671D01*
X119336640Y-66239041D01*
X119338327Y-66170000D01*
X119330960Y-66080388D01*
X119319773Y-65944318D01*
X119319772Y-65944312D01*
X119319349Y-65939167D01*
X119262925Y-65714533D01*
X119260866Y-65709797D01*
X119172630Y-65506868D01*
X119172628Y-65506865D01*
X119170570Y-65502131D01*
X119044764Y-65307665D01*
X118888887Y-65136358D01*
X118884836Y-65133159D01*
X118884832Y-65133155D01*
X118709747Y-64994882D01*
X118668684Y-64936965D01*
X118665452Y-64866042D01*
X118701077Y-64804630D01*
X118764248Y-64772228D01*
X118787839Y-64770000D01*
X122515975Y-64770000D01*
X122584096Y-64790002D01*
X122630589Y-64843658D01*
X122640693Y-64913932D01*
X122611199Y-64978512D01*
X122591628Y-64996760D01*
X122481184Y-65079684D01*
X122436655Y-65113117D01*
X122276639Y-65280564D01*
X122273725Y-65284836D01*
X122273724Y-65284837D01*
X122258152Y-65307665D01*
X122146119Y-65471899D01*
X122048602Y-65681981D01*
X121986707Y-65905169D01*
X121962095Y-66135469D01*
X121962392Y-66140622D01*
X121962392Y-66140625D01*
X121968067Y-66239041D01*
X121975427Y-66366697D01*
X121976564Y-66371743D01*
X121976565Y-66371749D01*
X122008741Y-66514523D01*
X122026346Y-66592642D01*
X122028288Y-66597424D01*
X122028289Y-66597428D01*
X122111540Y-66802450D01*
X122113484Y-66807237D01*
X122234501Y-67004719D01*
X122386147Y-67179784D01*
X122564349Y-67327730D01*
X122764322Y-67444584D01*
X122980694Y-67527209D01*
X122985760Y-67528240D01*
X122985761Y-67528240D01*
X123038846Y-67539040D01*
X123207656Y-67573385D01*
X123338324Y-67578176D01*
X123433949Y-67581683D01*
X123433953Y-67581683D01*
X123439113Y-67581872D01*
X123444233Y-67581216D01*
X123444235Y-67581216D01*
X123517270Y-67571860D01*
X123668847Y-67552442D01*
X123673795Y-67550957D01*
X123673802Y-67550956D01*
X123885747Y-67487369D01*
X123890690Y-67485886D01*
X123895979Y-67483295D01*
X124094049Y-67386262D01*
X124094052Y-67386260D01*
X124098684Y-67383991D01*
X124287243Y-67249494D01*
X124451303Y-67086005D01*
X124586458Y-66897917D01*
X124633641Y-66802450D01*
X124686784Y-66694922D01*
X124686785Y-66694920D01*
X124689078Y-66690280D01*
X124756408Y-66468671D01*
X124786640Y-66239041D01*
X124788327Y-66170000D01*
X124780960Y-66080388D01*
X124769773Y-65944318D01*
X124769772Y-65944312D01*
X124769349Y-65939167D01*
X124712925Y-65714533D01*
X124710866Y-65709797D01*
X124622630Y-65506868D01*
X124622628Y-65506865D01*
X124620570Y-65502131D01*
X124494764Y-65307665D01*
X124338887Y-65136358D01*
X124334836Y-65133159D01*
X124334832Y-65133155D01*
X124159747Y-64994882D01*
X124118684Y-64936965D01*
X124115452Y-64866042D01*
X124151077Y-64804630D01*
X124214248Y-64772228D01*
X124237839Y-64770000D01*
X128123081Y-64770000D01*
X128191202Y-64790002D01*
X128237695Y-64843658D01*
X128247799Y-64913932D01*
X128238161Y-64942836D01*
X128239385Y-64943295D01*
X128188255Y-65079684D01*
X128181500Y-65141866D01*
X128181500Y-65960219D01*
X128180787Y-65973607D01*
X128177251Y-66006695D01*
X128177548Y-66011848D01*
X128177548Y-66011851D01*
X128181291Y-66076763D01*
X128181500Y-66084016D01*
X128181500Y-66938134D01*
X128188255Y-67000316D01*
X128239385Y-67136705D01*
X128244771Y-67143891D01*
X128312630Y-67234435D01*
X128337478Y-67300941D01*
X128322425Y-67370324D01*
X128312632Y-67385562D01*
X128239385Y-67483295D01*
X128188255Y-67619684D01*
X128181500Y-67681866D01*
X128181500Y-68500219D01*
X128180787Y-68513607D01*
X128177251Y-68546695D01*
X128177548Y-68551848D01*
X128177548Y-68551851D01*
X128181291Y-68616763D01*
X128181500Y-68624016D01*
X128181500Y-69478134D01*
X128188255Y-69540316D01*
X128239385Y-69676705D01*
X128244771Y-69683891D01*
X128312942Y-69774852D01*
X128337790Y-69841358D01*
X128322737Y-69910741D01*
X128312942Y-69925982D01*
X128245214Y-70016351D01*
X128236676Y-70031946D01*
X128191522Y-70152394D01*
X128187895Y-70167649D01*
X128182369Y-70218514D01*
X128182000Y-70225328D01*
X128182000Y-70847885D01*
X128186475Y-70863124D01*
X128187865Y-70864329D01*
X128195548Y-70866000D01*
X132679884Y-70866000D01*
X132695123Y-70861525D01*
X132696328Y-70860135D01*
X132697999Y-70852452D01*
X132697999Y-70225331D01*
X132697629Y-70218510D01*
X132692105Y-70167648D01*
X132688479Y-70152396D01*
X132643324Y-70031946D01*
X132634786Y-70016351D01*
X132567058Y-69925982D01*
X132542210Y-69859475D01*
X132557263Y-69790093D01*
X132567058Y-69774852D01*
X132635229Y-69683891D01*
X132640615Y-69676705D01*
X132691745Y-69540316D01*
X132698500Y-69478134D01*
X132698500Y-67681866D01*
X132691745Y-67619684D01*
X132640615Y-67483295D01*
X132567370Y-67385564D01*
X132542522Y-67319059D01*
X132557575Y-67249676D01*
X132567370Y-67234435D01*
X132635229Y-67143891D01*
X132640615Y-67136705D01*
X132691745Y-67000316D01*
X132698500Y-66938134D01*
X132698500Y-65141866D01*
X132691745Y-65079684D01*
X132640615Y-64943295D01*
X132643289Y-64942292D01*
X132631230Y-64887150D01*
X132655968Y-64820602D01*
X132712757Y-64777993D01*
X132756919Y-64770000D01*
X136399000Y-64770000D01*
X136467121Y-64790002D01*
X136513614Y-64843658D01*
X136525000Y-64896000D01*
X136525000Y-80269818D01*
X136504998Y-80337939D01*
X136451342Y-80384432D01*
X136381068Y-80394536D01*
X136316488Y-80365042D01*
X136309905Y-80358913D01*
X132735405Y-76784413D01*
X132701379Y-76722101D01*
X132698500Y-76695318D01*
X132698500Y-75301866D01*
X132691745Y-75239684D01*
X132640615Y-75103295D01*
X132567370Y-75005564D01*
X132542522Y-74939059D01*
X132557575Y-74869676D01*
X132567370Y-74854435D01*
X132635229Y-74763891D01*
X132640615Y-74756705D01*
X132691745Y-74620316D01*
X132698500Y-74558134D01*
X132698500Y-72761866D01*
X132691745Y-72699684D01*
X132640615Y-72563295D01*
X132567058Y-72465148D01*
X132542210Y-72398642D01*
X132557263Y-72329259D01*
X132567058Y-72314018D01*
X132634786Y-72223649D01*
X132643324Y-72208054D01*
X132688478Y-72087606D01*
X132692105Y-72072351D01*
X132697631Y-72021486D01*
X132698000Y-72014672D01*
X132698000Y-71392115D01*
X132693525Y-71376876D01*
X132692135Y-71375671D01*
X132684452Y-71374000D01*
X128200116Y-71374000D01*
X128184877Y-71378475D01*
X128183672Y-71379865D01*
X128182001Y-71387548D01*
X128182001Y-72014669D01*
X128182371Y-72021490D01*
X128187895Y-72072352D01*
X128191521Y-72087604D01*
X128236676Y-72208054D01*
X128245214Y-72223649D01*
X128312942Y-72314018D01*
X128337790Y-72380525D01*
X128322737Y-72449907D01*
X128312942Y-72465148D01*
X128239385Y-72563295D01*
X128188255Y-72699684D01*
X128181500Y-72761866D01*
X128181500Y-73580219D01*
X128180787Y-73593607D01*
X128177251Y-73626695D01*
X128177548Y-73631848D01*
X128177548Y-73631851D01*
X128181291Y-73696763D01*
X128181500Y-73704016D01*
X128181500Y-74558134D01*
X128188255Y-74620316D01*
X128239385Y-74756705D01*
X128244771Y-74763891D01*
X128312630Y-74854435D01*
X128337478Y-74920941D01*
X128322425Y-74990324D01*
X128312632Y-75005562D01*
X128239385Y-75103295D01*
X128188255Y-75239684D01*
X128181500Y-75301866D01*
X128181500Y-76120219D01*
X128180787Y-76133607D01*
X128177251Y-76166695D01*
X128177548Y-76171848D01*
X128177548Y-76171851D01*
X128181291Y-76236763D01*
X128181500Y-76244016D01*
X128181500Y-77098134D01*
X128188255Y-77160316D01*
X128239385Y-77296705D01*
X128244771Y-77303891D01*
X128312630Y-77394435D01*
X128337478Y-77460941D01*
X128322425Y-77530324D01*
X128312632Y-77545562D01*
X128239385Y-77643295D01*
X128188255Y-77779684D01*
X128181500Y-77841866D01*
X128181500Y-78660219D01*
X128180787Y-78673607D01*
X128177251Y-78706695D01*
X128177548Y-78711848D01*
X128177548Y-78711851D01*
X128181291Y-78776763D01*
X128181500Y-78784016D01*
X128181500Y-79638134D01*
X128188255Y-79700316D01*
X128239385Y-79836705D01*
X128244771Y-79843891D01*
X128312630Y-79934435D01*
X128337478Y-80000941D01*
X128322425Y-80070324D01*
X128312632Y-80085562D01*
X128239385Y-80183295D01*
X128188255Y-80319684D01*
X128181500Y-80381866D01*
X128181500Y-81200219D01*
X128180787Y-81213607D01*
X128177251Y-81246695D01*
X128177548Y-81251848D01*
X128177548Y-81251851D01*
X128181291Y-81316763D01*
X128181500Y-81324016D01*
X128181500Y-82178134D01*
X128188255Y-82240316D01*
X128239385Y-82376705D01*
X128244771Y-82383891D01*
X128312630Y-82474435D01*
X128337478Y-82540941D01*
X128322425Y-82610324D01*
X128312632Y-82625562D01*
X128239385Y-82723295D01*
X128188255Y-82859684D01*
X128181500Y-82921866D01*
X128181500Y-84718134D01*
X128188255Y-84780316D01*
X128239385Y-84916705D01*
X128307998Y-85008255D01*
X128312630Y-85014435D01*
X128337478Y-85080941D01*
X128322425Y-85150324D01*
X128312632Y-85165562D01*
X128239385Y-85263295D01*
X128188255Y-85399684D01*
X128181500Y-85461866D01*
X128181500Y-86280219D01*
X128180787Y-86293607D01*
X128177251Y-86326695D01*
X128177548Y-86331848D01*
X128177548Y-86331851D01*
X128181291Y-86396763D01*
X128181500Y-86404016D01*
X128181500Y-87258134D01*
X128188255Y-87320316D01*
X128239385Y-87456705D01*
X128244771Y-87463891D01*
X128312630Y-87554435D01*
X128337478Y-87620941D01*
X128322425Y-87690324D01*
X128312632Y-87705562D01*
X128239385Y-87803295D01*
X128188255Y-87939684D01*
X128181500Y-88001866D01*
X128181500Y-88820219D01*
X128180787Y-88833607D01*
X128177251Y-88866695D01*
X128177548Y-88871848D01*
X128177548Y-88871851D01*
X128181291Y-88936763D01*
X128181500Y-88944016D01*
X128181500Y-89798134D01*
X128188255Y-89860316D01*
X128239385Y-89996705D01*
X128244771Y-90003891D01*
X128312630Y-90094435D01*
X128337478Y-90160941D01*
X128322425Y-90230324D01*
X128312632Y-90245562D01*
X128239385Y-90343295D01*
X128188255Y-90479684D01*
X128181500Y-90541866D01*
X128181500Y-91360219D01*
X128180787Y-91373607D01*
X128177251Y-91406695D01*
X128177548Y-91411848D01*
X128177548Y-91411851D01*
X128181291Y-91476763D01*
X128181500Y-91484016D01*
X128181500Y-92338134D01*
X128188255Y-92400316D01*
X128239385Y-92536705D01*
X128312630Y-92634435D01*
X128337478Y-92700941D01*
X128322425Y-92770324D01*
X128312632Y-92785562D01*
X128239385Y-92883295D01*
X128188255Y-93019684D01*
X128181500Y-93081866D01*
X128181500Y-93900219D01*
X128180787Y-93913607D01*
X128177251Y-93946695D01*
X128177548Y-93951848D01*
X128177548Y-93951851D01*
X128181291Y-94016763D01*
X128181500Y-94024016D01*
X128181500Y-94878134D01*
X128188255Y-94940316D01*
X128239385Y-95076705D01*
X128244771Y-95083891D01*
X128312942Y-95174852D01*
X128337790Y-95241358D01*
X128322737Y-95310741D01*
X128312942Y-95325982D01*
X128245214Y-95416351D01*
X128236676Y-95431946D01*
X128191522Y-95552394D01*
X128187895Y-95567649D01*
X128182369Y-95618514D01*
X128182000Y-95625328D01*
X128182000Y-96247885D01*
X128186475Y-96263124D01*
X128187865Y-96264329D01*
X128195548Y-96266000D01*
X132679884Y-96266000D01*
X132695123Y-96261525D01*
X132696328Y-96260135D01*
X132697999Y-96252452D01*
X132697999Y-95625331D01*
X132697629Y-95618510D01*
X132692105Y-95567648D01*
X132688479Y-95552396D01*
X132643324Y-95431946D01*
X132634786Y-95416351D01*
X132567058Y-95325982D01*
X132542210Y-95259475D01*
X132557263Y-95190093D01*
X132567058Y-95174852D01*
X132635229Y-95083891D01*
X132640615Y-95076705D01*
X132691745Y-94940316D01*
X132698500Y-94878134D01*
X132698500Y-93081866D01*
X132691745Y-93019684D01*
X132640615Y-92883295D01*
X132567370Y-92785564D01*
X132542522Y-92719059D01*
X132557575Y-92649676D01*
X132567370Y-92634435D01*
X132640615Y-92536705D01*
X132691745Y-92400316D01*
X132698500Y-92338134D01*
X132698500Y-90541866D01*
X132691745Y-90479684D01*
X132640615Y-90343295D01*
X132567370Y-90245564D01*
X132542522Y-90179059D01*
X132557575Y-90109676D01*
X132567370Y-90094435D01*
X132635229Y-90003891D01*
X132640615Y-89996705D01*
X132691745Y-89860316D01*
X132698500Y-89798134D01*
X132698500Y-88001866D01*
X132691745Y-87939684D01*
X132640615Y-87803295D01*
X132567370Y-87705564D01*
X132542522Y-87639059D01*
X132557575Y-87569676D01*
X132567370Y-87554435D01*
X132635229Y-87463891D01*
X132640615Y-87456705D01*
X132691745Y-87320316D01*
X132698500Y-87258134D01*
X132698500Y-85461866D01*
X132691745Y-85399684D01*
X132640615Y-85263295D01*
X132567370Y-85165564D01*
X132542522Y-85099059D01*
X132557575Y-85029676D01*
X132567370Y-85014435D01*
X132572002Y-85008255D01*
X132640615Y-84916705D01*
X132691745Y-84780316D01*
X132698500Y-84718134D01*
X132698500Y-82921866D01*
X132691745Y-82859684D01*
X132640615Y-82723295D01*
X132567370Y-82625564D01*
X132542522Y-82559059D01*
X132557575Y-82489676D01*
X132567370Y-82474435D01*
X132635229Y-82383891D01*
X132640615Y-82376705D01*
X132691745Y-82240316D01*
X132698500Y-82178134D01*
X132698500Y-80381866D01*
X132691745Y-80319684D01*
X132640615Y-80183295D01*
X132567370Y-80085564D01*
X132542522Y-80019059D01*
X132557575Y-79949676D01*
X132567370Y-79934435D01*
X132635229Y-79843891D01*
X132640615Y-79836705D01*
X132691745Y-79700316D01*
X132698500Y-79638134D01*
X132698500Y-79055638D01*
X132718502Y-78987517D01*
X132772158Y-78941024D01*
X132842432Y-78930920D01*
X132907012Y-78960414D01*
X132913595Y-78966543D01*
X135638057Y-81691005D01*
X135672083Y-81753317D01*
X135674962Y-81780100D01*
X135674962Y-117687366D01*
X135654960Y-117755487D01*
X135601304Y-117801980D01*
X135531030Y-117812084D01*
X135466450Y-117782590D01*
X135434261Y-117739518D01*
X135350326Y-117554913D01*
X135227946Y-117382389D01*
X135075150Y-117236119D01*
X134897452Y-117121380D01*
X134802866Y-117083261D01*
X134706832Y-117044558D01*
X134706829Y-117044557D01*
X134701263Y-117042314D01*
X134493663Y-117001772D01*
X134488101Y-117001500D01*
X133532154Y-117001500D01*
X133374434Y-117016548D01*
X133171466Y-117076092D01*
X133166139Y-117078836D01*
X133166138Y-117078836D01*
X132988751Y-117170196D01*
X132988748Y-117170198D01*
X132983420Y-117172942D01*
X132817080Y-117303604D01*
X132704725Y-117433082D01*
X132644973Y-117471421D01*
X132609561Y-117476500D01*
X130793768Y-117476500D01*
X130782585Y-117475973D01*
X130775092Y-117474298D01*
X130767166Y-117474547D01*
X130767165Y-117474547D01*
X130707002Y-117476438D01*
X130703044Y-117476500D01*
X130675144Y-117476500D01*
X130671154Y-117477004D01*
X130659320Y-117477936D01*
X130615111Y-117479326D01*
X130607495Y-117481539D01*
X130607493Y-117481539D01*
X130595652Y-117484979D01*
X130576293Y-117488988D01*
X130574983Y-117489154D01*
X130556203Y-117491526D01*
X130548837Y-117494442D01*
X130548831Y-117494444D01*
X130515098Y-117507800D01*
X130503868Y-117511645D01*
X130469017Y-117521770D01*
X130461407Y-117523981D01*
X130454584Y-117528016D01*
X130443966Y-117534295D01*
X130426213Y-117542992D01*
X130418568Y-117546019D01*
X130407383Y-117550448D01*
X130393385Y-117560618D01*
X130371612Y-117576437D01*
X130361695Y-117582951D01*
X130323638Y-117605458D01*
X130309317Y-117619779D01*
X130294284Y-117632619D01*
X130277893Y-117644528D01*
X130272842Y-117650634D01*
X130249702Y-117678605D01*
X130241722Y-117687374D01*
X129304498Y-118624597D01*
X129242188Y-118658621D01*
X129215405Y-118661500D01*
X127856866Y-118661500D01*
X127794684Y-118668255D01*
X127658295Y-118719385D01*
X127541739Y-118806739D01*
X127454385Y-118923295D01*
X127403255Y-119059684D01*
X127396500Y-119121866D01*
X127396500Y-120718134D01*
X127403255Y-120780316D01*
X127406027Y-120787712D01*
X127406029Y-120787718D01*
X127439039Y-120875771D01*
X127444222Y-120946578D01*
X127439039Y-120964229D01*
X127406029Y-121052282D01*
X127406027Y-121052288D01*
X127403255Y-121059684D01*
X127396500Y-121121866D01*
X127396500Y-122718134D01*
X127403255Y-122780316D01*
X127406027Y-122787712D01*
X127406029Y-122787718D01*
X127439039Y-122875771D01*
X127444222Y-122946578D01*
X127439039Y-122964229D01*
X127406029Y-123052282D01*
X127406027Y-123052288D01*
X127403255Y-123059684D01*
X127396500Y-123121866D01*
X127396500Y-124718134D01*
X127403255Y-124780316D01*
X127406027Y-124787712D01*
X127406029Y-124787718D01*
X127439039Y-124875771D01*
X127444222Y-124946578D01*
X127439039Y-124964229D01*
X127406029Y-125052282D01*
X127406027Y-125052288D01*
X127403255Y-125059684D01*
X127396500Y-125121866D01*
X127396500Y-126718134D01*
X127403255Y-126780316D01*
X127406027Y-126787712D01*
X127406029Y-126787718D01*
X127439039Y-126875771D01*
X127444222Y-126946578D01*
X127439039Y-126964229D01*
X127406029Y-127052282D01*
X127406027Y-127052288D01*
X127403255Y-127059684D01*
X127396500Y-127121866D01*
X127396500Y-127160500D01*
X127376498Y-127228621D01*
X127322842Y-127275114D01*
X127270500Y-127286500D01*
X118074594Y-127286500D01*
X118006473Y-127266498D01*
X117985499Y-127249595D01*
X116240405Y-125504500D01*
X116206379Y-125442188D01*
X116203500Y-125415405D01*
X116203500Y-114036695D01*
X116747251Y-114036695D01*
X116747548Y-114041848D01*
X116747548Y-114041851D01*
X116751291Y-114106763D01*
X116751500Y-114114016D01*
X116751500Y-116768134D01*
X116758255Y-116830316D01*
X116809385Y-116966705D01*
X116896739Y-117083261D01*
X117013295Y-117170615D01*
X117149684Y-117221745D01*
X117211866Y-117228500D01*
X119008134Y-117228500D01*
X119070316Y-117221745D01*
X119206705Y-117170615D01*
X119304436Y-117097370D01*
X119370941Y-117072522D01*
X119440324Y-117087575D01*
X119455562Y-117097368D01*
X119553295Y-117170615D01*
X119689684Y-117221745D01*
X119751866Y-117228500D01*
X121548134Y-117228500D01*
X121610316Y-117221745D01*
X121746705Y-117170615D01*
X121844436Y-117097370D01*
X121910941Y-117072522D01*
X121980324Y-117087575D01*
X121995562Y-117097368D01*
X122093295Y-117170615D01*
X122229684Y-117221745D01*
X122291866Y-117228500D01*
X124088134Y-117228500D01*
X124150316Y-117221745D01*
X124286705Y-117170615D01*
X124403261Y-117083261D01*
X124490615Y-116966705D01*
X124541745Y-116830316D01*
X124548500Y-116768134D01*
X124548500Y-114266695D01*
X128177251Y-114266695D01*
X128177548Y-114271848D01*
X128177548Y-114271851D01*
X128181291Y-114336763D01*
X128181500Y-114344016D01*
X128181500Y-115198134D01*
X128188255Y-115260316D01*
X128239385Y-115396705D01*
X128326739Y-115513261D01*
X128443295Y-115600615D01*
X128579684Y-115651745D01*
X128641866Y-115658500D01*
X129510826Y-115658500D01*
X129515443Y-115658585D01*
X129596673Y-115661564D01*
X129596677Y-115661564D01*
X129601837Y-115661753D01*
X129606957Y-115661097D01*
X129606959Y-115661097D01*
X129619261Y-115659521D01*
X129635271Y-115658500D01*
X132238134Y-115658500D01*
X132300316Y-115651745D01*
X132436705Y-115600615D01*
X132553261Y-115513261D01*
X132640615Y-115396705D01*
X132691745Y-115260316D01*
X132698500Y-115198134D01*
X132698500Y-113401866D01*
X132691745Y-113339684D01*
X132640615Y-113203295D01*
X132567370Y-113105564D01*
X132542522Y-113039059D01*
X132557575Y-112969676D01*
X132567370Y-112954435D01*
X132635229Y-112863891D01*
X132640615Y-112856705D01*
X132691745Y-112720316D01*
X132698500Y-112658134D01*
X132698500Y-110861866D01*
X132691745Y-110799684D01*
X132640615Y-110663295D01*
X132567058Y-110565148D01*
X132542210Y-110498642D01*
X132557263Y-110429259D01*
X132567058Y-110414018D01*
X132634786Y-110323649D01*
X132643324Y-110308054D01*
X132688478Y-110187606D01*
X132692105Y-110172351D01*
X132697631Y-110121486D01*
X132698000Y-110114672D01*
X132698000Y-109492115D01*
X132693525Y-109476876D01*
X132692135Y-109475671D01*
X132684452Y-109474000D01*
X128200116Y-109474000D01*
X128184877Y-109478475D01*
X128183672Y-109479865D01*
X128182001Y-109487548D01*
X128182001Y-110114669D01*
X128182371Y-110121490D01*
X128187895Y-110172352D01*
X128191521Y-110187604D01*
X128236676Y-110308054D01*
X128245214Y-110323649D01*
X128312942Y-110414018D01*
X128337790Y-110480525D01*
X128322737Y-110549907D01*
X128312942Y-110565148D01*
X128239385Y-110663295D01*
X128188255Y-110799684D01*
X128181500Y-110861866D01*
X128181500Y-111680219D01*
X128180787Y-111693607D01*
X128177251Y-111726695D01*
X128177548Y-111731848D01*
X128177548Y-111731851D01*
X128181291Y-111796763D01*
X128181500Y-111804016D01*
X128181500Y-112658134D01*
X128188255Y-112720316D01*
X128239385Y-112856705D01*
X128244771Y-112863891D01*
X128312630Y-112954435D01*
X128337478Y-113020941D01*
X128322425Y-113090324D01*
X128312632Y-113105562D01*
X128239385Y-113203295D01*
X128188255Y-113339684D01*
X128181500Y-113401866D01*
X128181500Y-114220219D01*
X128180787Y-114233607D01*
X128177251Y-114266695D01*
X124548500Y-114266695D01*
X124548500Y-114167856D01*
X124549578Y-114151409D01*
X124551092Y-114139908D01*
X124551529Y-114136590D01*
X124553156Y-114070000D01*
X124548924Y-114018524D01*
X124548500Y-114008200D01*
X124548500Y-113171866D01*
X124541745Y-113109684D01*
X124490615Y-112973295D01*
X124403261Y-112856739D01*
X124286705Y-112769385D01*
X124150316Y-112718255D01*
X124088134Y-112711500D01*
X123204985Y-112711500D01*
X123203446Y-112711491D01*
X123100081Y-112710228D01*
X123100079Y-112710228D01*
X123094911Y-112710165D01*
X123089797Y-112710948D01*
X123086289Y-112711193D01*
X123077496Y-112711500D01*
X122291866Y-112711500D01*
X122229684Y-112718255D01*
X122093295Y-112769385D01*
X121995565Y-112842630D01*
X121929059Y-112867478D01*
X121859676Y-112852425D01*
X121844435Y-112842630D01*
X121746705Y-112769385D01*
X121610316Y-112718255D01*
X121548134Y-112711500D01*
X119751866Y-112711500D01*
X119689684Y-112718255D01*
X119553295Y-112769385D01*
X119455565Y-112842630D01*
X119389059Y-112867478D01*
X119319676Y-112852425D01*
X119304435Y-112842630D01*
X119206705Y-112769385D01*
X119070316Y-112718255D01*
X119008134Y-112711500D01*
X118124985Y-112711500D01*
X118123446Y-112711491D01*
X118020081Y-112710228D01*
X118020079Y-112710228D01*
X118014911Y-112710165D01*
X118009797Y-112710948D01*
X118006289Y-112711193D01*
X117997496Y-112711500D01*
X117211866Y-112711500D01*
X117149684Y-112718255D01*
X117013295Y-112769385D01*
X116896739Y-112856739D01*
X116809385Y-112973295D01*
X116758255Y-113109684D01*
X116751500Y-113171866D01*
X116751500Y-113990219D01*
X116750787Y-114003607D01*
X116747251Y-114036695D01*
X116203500Y-114036695D01*
X116203500Y-106646695D01*
X128177251Y-106646695D01*
X128177548Y-106651848D01*
X128177548Y-106651851D01*
X128181291Y-106716763D01*
X128181500Y-106724016D01*
X128181500Y-107578134D01*
X128188255Y-107640316D01*
X128239385Y-107776705D01*
X128244771Y-107783891D01*
X128312942Y-107874852D01*
X128337790Y-107941358D01*
X128322737Y-108010741D01*
X128312942Y-108025982D01*
X128245214Y-108116351D01*
X128236676Y-108131946D01*
X128191522Y-108252394D01*
X128187895Y-108267649D01*
X128182369Y-108318514D01*
X128182000Y-108325328D01*
X128182000Y-108947885D01*
X128186475Y-108963124D01*
X128187865Y-108964329D01*
X128195548Y-108966000D01*
X132679884Y-108966000D01*
X132695123Y-108961525D01*
X132696328Y-108960135D01*
X132697999Y-108952452D01*
X132697999Y-108325331D01*
X132697629Y-108318510D01*
X132692105Y-108267648D01*
X132688479Y-108252396D01*
X132643324Y-108131946D01*
X132634786Y-108116351D01*
X132567058Y-108025982D01*
X132542210Y-107959475D01*
X132557263Y-107890093D01*
X132567058Y-107874852D01*
X132635229Y-107783891D01*
X132640615Y-107776705D01*
X132691745Y-107640316D01*
X132698500Y-107578134D01*
X132698500Y-105781866D01*
X132691745Y-105719684D01*
X132640615Y-105583295D01*
X132567370Y-105485564D01*
X132542522Y-105419059D01*
X132557575Y-105349676D01*
X132567370Y-105334435D01*
X132635229Y-105243891D01*
X132640615Y-105236705D01*
X132691745Y-105100316D01*
X132698500Y-105038134D01*
X132698500Y-103241866D01*
X132691745Y-103179684D01*
X132640615Y-103043295D01*
X132567370Y-102945564D01*
X132542522Y-102879059D01*
X132557575Y-102809676D01*
X132567370Y-102794435D01*
X132640615Y-102696705D01*
X132691745Y-102560316D01*
X132698500Y-102498134D01*
X132698500Y-100701866D01*
X132691745Y-100639684D01*
X132640615Y-100503295D01*
X132567370Y-100405564D01*
X132542522Y-100339059D01*
X132557575Y-100269676D01*
X132567370Y-100254435D01*
X132635229Y-100163891D01*
X132640615Y-100156705D01*
X132691745Y-100020316D01*
X132698500Y-99958134D01*
X132698500Y-98161866D01*
X132691745Y-98099684D01*
X132640615Y-97963295D01*
X132567058Y-97865148D01*
X132542210Y-97798642D01*
X132557263Y-97729259D01*
X132567058Y-97714018D01*
X132634786Y-97623649D01*
X132643324Y-97608054D01*
X132688478Y-97487606D01*
X132692105Y-97472351D01*
X132697631Y-97421486D01*
X132698000Y-97414672D01*
X132698000Y-96792115D01*
X132693525Y-96776876D01*
X132692135Y-96775671D01*
X132684452Y-96774000D01*
X128200116Y-96774000D01*
X128184877Y-96778475D01*
X128183672Y-96779865D01*
X128182001Y-96787548D01*
X128182001Y-97414669D01*
X128182371Y-97421490D01*
X128187895Y-97472352D01*
X128191521Y-97487604D01*
X128236676Y-97608054D01*
X128245214Y-97623649D01*
X128312942Y-97714018D01*
X128337790Y-97780525D01*
X128322737Y-97849907D01*
X128312942Y-97865148D01*
X128239385Y-97963295D01*
X128188255Y-98099684D01*
X128181500Y-98161866D01*
X128181500Y-98980219D01*
X128180787Y-98993607D01*
X128177251Y-99026695D01*
X128177548Y-99031848D01*
X128177548Y-99031851D01*
X128181291Y-99096763D01*
X128181500Y-99104016D01*
X128181500Y-99958134D01*
X128188255Y-100020316D01*
X128239385Y-100156705D01*
X128244771Y-100163891D01*
X128312630Y-100254435D01*
X128337478Y-100320941D01*
X128322425Y-100390324D01*
X128312632Y-100405562D01*
X128239385Y-100503295D01*
X128188255Y-100639684D01*
X128181500Y-100701866D01*
X128181500Y-101520219D01*
X128180787Y-101533607D01*
X128177251Y-101566695D01*
X128177548Y-101571848D01*
X128177548Y-101571851D01*
X128181291Y-101636763D01*
X128181500Y-101644016D01*
X128181500Y-102498134D01*
X128188255Y-102560316D01*
X128239385Y-102696705D01*
X128312630Y-102794435D01*
X128337478Y-102860941D01*
X128322425Y-102930324D01*
X128312632Y-102945562D01*
X128239385Y-103043295D01*
X128188255Y-103179684D01*
X128181500Y-103241866D01*
X128181500Y-104060219D01*
X128180787Y-104073607D01*
X128177251Y-104106695D01*
X128177548Y-104111848D01*
X128177548Y-104111851D01*
X128181291Y-104176763D01*
X128181500Y-104184016D01*
X128181500Y-105038134D01*
X128188255Y-105100316D01*
X128239385Y-105236705D01*
X128244771Y-105243891D01*
X128312630Y-105334435D01*
X128337478Y-105400941D01*
X128322425Y-105470324D01*
X128312632Y-105485562D01*
X128239385Y-105583295D01*
X128188255Y-105719684D01*
X128181500Y-105781866D01*
X128181500Y-106600219D01*
X128180787Y-106613607D01*
X128177251Y-106646695D01*
X116203500Y-106646695D01*
X116203500Y-92788768D01*
X116204027Y-92777585D01*
X116205702Y-92770092D01*
X116203562Y-92702001D01*
X116203500Y-92698044D01*
X116203500Y-92670144D01*
X116202996Y-92666153D01*
X116202063Y-92654311D01*
X116201918Y-92649676D01*
X116200674Y-92610111D01*
X116195021Y-92590652D01*
X116191012Y-92571293D01*
X116190846Y-92569983D01*
X116188474Y-92551203D01*
X116185558Y-92543837D01*
X116185556Y-92543831D01*
X116172200Y-92510098D01*
X116168355Y-92498868D01*
X116158230Y-92464017D01*
X116158230Y-92464016D01*
X116156019Y-92456407D01*
X116145705Y-92438966D01*
X116137008Y-92421213D01*
X116132472Y-92409758D01*
X116129552Y-92402383D01*
X116103563Y-92366612D01*
X116097047Y-92356692D01*
X116078578Y-92325463D01*
X116074542Y-92318638D01*
X116060221Y-92304317D01*
X116047380Y-92289283D01*
X116040131Y-92279306D01*
X116035472Y-92272893D01*
X116001395Y-92244702D01*
X115992616Y-92236712D01*
X113155405Y-89399500D01*
X113121379Y-89337188D01*
X113118500Y-89310405D01*
X113118500Y-88997856D01*
X113119578Y-88981409D01*
X113121092Y-88969908D01*
X113121529Y-88966590D01*
X113123156Y-88900000D01*
X113118924Y-88848524D01*
X113118500Y-88838200D01*
X113118500Y-88001866D01*
X113111745Y-87939684D01*
X113060615Y-87803295D01*
X112987370Y-87705564D01*
X112962522Y-87639059D01*
X112977575Y-87569676D01*
X112987370Y-87554435D01*
X113055229Y-87463891D01*
X113060615Y-87456705D01*
X113111745Y-87320316D01*
X113118500Y-87258134D01*
X113118500Y-86457856D01*
X113119578Y-86441409D01*
X113121092Y-86429908D01*
X113121529Y-86426590D01*
X113123156Y-86360000D01*
X113118924Y-86308524D01*
X113118500Y-86298200D01*
X113118500Y-85461866D01*
X113111745Y-85399684D01*
X113060615Y-85263295D01*
X113010422Y-85196323D01*
X112987058Y-85165148D01*
X112962210Y-85098642D01*
X112977263Y-85029259D01*
X112987058Y-85014018D01*
X113054786Y-84923649D01*
X113063324Y-84908054D01*
X113108478Y-84787606D01*
X113112105Y-84772351D01*
X113117631Y-84721486D01*
X113118000Y-84714672D01*
X113118000Y-84092115D01*
X113113525Y-84076876D01*
X113112135Y-84075671D01*
X113104452Y-84074000D01*
X108620116Y-84074000D01*
X108604877Y-84078475D01*
X108603672Y-84079865D01*
X108602001Y-84087548D01*
X108602001Y-84714669D01*
X108602371Y-84721490D01*
X108607895Y-84772352D01*
X108611521Y-84787604D01*
X108656676Y-84908054D01*
X108665214Y-84923649D01*
X108732942Y-85014018D01*
X108757790Y-85080525D01*
X108742737Y-85149907D01*
X108732942Y-85165148D01*
X108709578Y-85196323D01*
X108659385Y-85263295D01*
X108608255Y-85399684D01*
X108601500Y-85461866D01*
X108601500Y-87258134D01*
X108608255Y-87320316D01*
X108659385Y-87456705D01*
X108664771Y-87463891D01*
X108732630Y-87554435D01*
X108757478Y-87620941D01*
X108742425Y-87690324D01*
X108732632Y-87705562D01*
X108659385Y-87803295D01*
X108608255Y-87939684D01*
X108601500Y-88001866D01*
X108601500Y-89798134D01*
X108608255Y-89860316D01*
X108659385Y-89996705D01*
X108664771Y-90003891D01*
X108732630Y-90094435D01*
X108757478Y-90160941D01*
X108742425Y-90230324D01*
X108732632Y-90245562D01*
X108659385Y-90343295D01*
X108608255Y-90479684D01*
X108601500Y-90541866D01*
X108601500Y-91745406D01*
X108581498Y-91813527D01*
X108564595Y-91834501D01*
X106418707Y-93980388D01*
X106410421Y-93987928D01*
X106403942Y-93992040D01*
X106398517Y-93997817D01*
X106357317Y-94041691D01*
X106354562Y-94044533D01*
X106334825Y-94064270D01*
X106332345Y-94067467D01*
X106324642Y-94076487D01*
X106294374Y-94108719D01*
X106290555Y-94115665D01*
X106290553Y-94115668D01*
X106284612Y-94126474D01*
X106273766Y-94142986D01*
X106270567Y-94147111D01*
X106213015Y-94188684D01*
X106142124Y-94192541D01*
X106080400Y-94157460D01*
X106047441Y-94094577D01*
X106045000Y-94069895D01*
X106045000Y-82178134D01*
X108601500Y-82178134D01*
X108608255Y-82240316D01*
X108659385Y-82376705D01*
X108664771Y-82383891D01*
X108732942Y-82474852D01*
X108757790Y-82541358D01*
X108742737Y-82610741D01*
X108732942Y-82625982D01*
X108665214Y-82716351D01*
X108656676Y-82731946D01*
X108611522Y-82852394D01*
X108607895Y-82867649D01*
X108602369Y-82918514D01*
X108602000Y-82925328D01*
X108602000Y-83547885D01*
X108606475Y-83563124D01*
X108607865Y-83564329D01*
X108615548Y-83566000D01*
X113099884Y-83566000D01*
X113115123Y-83561525D01*
X113116328Y-83560135D01*
X113117999Y-83552452D01*
X113117999Y-82925331D01*
X113117629Y-82918510D01*
X113112105Y-82867648D01*
X113108479Y-82852396D01*
X113063324Y-82731946D01*
X113054786Y-82716351D01*
X112987058Y-82625982D01*
X112962210Y-82559475D01*
X112977263Y-82490093D01*
X112987058Y-82474852D01*
X113055229Y-82383891D01*
X113060615Y-82376705D01*
X113111745Y-82240316D01*
X113118500Y-82178134D01*
X113118500Y-81377856D01*
X113119578Y-81361409D01*
X113121092Y-81349908D01*
X113121529Y-81346590D01*
X113123156Y-81280000D01*
X113118924Y-81228524D01*
X113118500Y-81218200D01*
X113118500Y-80381866D01*
X113111745Y-80319684D01*
X113060615Y-80183295D01*
X112987370Y-80085564D01*
X112962522Y-80019059D01*
X112977575Y-79949676D01*
X112987370Y-79934435D01*
X113055229Y-79843891D01*
X113060615Y-79836705D01*
X113111745Y-79700316D01*
X113118500Y-79638134D01*
X113118500Y-78837856D01*
X113119578Y-78821409D01*
X113121092Y-78809908D01*
X113121529Y-78806590D01*
X113123156Y-78740000D01*
X113118924Y-78688524D01*
X113118500Y-78678200D01*
X113118500Y-77841866D01*
X113111745Y-77779684D01*
X113060615Y-77643295D01*
X112987370Y-77545564D01*
X112962522Y-77479059D01*
X112977575Y-77409676D01*
X112987370Y-77394435D01*
X113055229Y-77303891D01*
X113060615Y-77296705D01*
X113111745Y-77160316D01*
X113118500Y-77098134D01*
X113118500Y-76297856D01*
X113119578Y-76281409D01*
X113121092Y-76269908D01*
X113121529Y-76266590D01*
X113123156Y-76200000D01*
X113118924Y-76148524D01*
X113118500Y-76138200D01*
X113118500Y-75301866D01*
X113111745Y-75239684D01*
X113060615Y-75103295D01*
X112987370Y-75005564D01*
X112962522Y-74939059D01*
X112977575Y-74869676D01*
X112987370Y-74854435D01*
X113055229Y-74763891D01*
X113060615Y-74756705D01*
X113111745Y-74620316D01*
X113118500Y-74558134D01*
X113118500Y-73757856D01*
X113119578Y-73741409D01*
X113121092Y-73729908D01*
X113121529Y-73726590D01*
X113123156Y-73660000D01*
X113118924Y-73608524D01*
X113118500Y-73598200D01*
X113118500Y-72761866D01*
X113111745Y-72699684D01*
X113060615Y-72563295D01*
X112987058Y-72465148D01*
X112962210Y-72398642D01*
X112977263Y-72329259D01*
X112987058Y-72314018D01*
X113054786Y-72223649D01*
X113063324Y-72208054D01*
X113108478Y-72087606D01*
X113112105Y-72072351D01*
X113117631Y-72021486D01*
X113118000Y-72014672D01*
X113118000Y-71392115D01*
X113113525Y-71376876D01*
X113112135Y-71375671D01*
X113104452Y-71374000D01*
X108620116Y-71374000D01*
X108604877Y-71378475D01*
X108603672Y-71379865D01*
X108602001Y-71387548D01*
X108602001Y-72014669D01*
X108602371Y-72021490D01*
X108607895Y-72072352D01*
X108611521Y-72087604D01*
X108656676Y-72208054D01*
X108665214Y-72223649D01*
X108732942Y-72314018D01*
X108757790Y-72380525D01*
X108742737Y-72449907D01*
X108732942Y-72465148D01*
X108659385Y-72563295D01*
X108608255Y-72699684D01*
X108601500Y-72761866D01*
X108601500Y-74558134D01*
X108608255Y-74620316D01*
X108659385Y-74756705D01*
X108664771Y-74763891D01*
X108732630Y-74854435D01*
X108757478Y-74920941D01*
X108742425Y-74990324D01*
X108732632Y-75005562D01*
X108659385Y-75103295D01*
X108608255Y-75239684D01*
X108601500Y-75301866D01*
X108601500Y-77098134D01*
X108608255Y-77160316D01*
X108659385Y-77296705D01*
X108664771Y-77303891D01*
X108732630Y-77394435D01*
X108757478Y-77460941D01*
X108742425Y-77530324D01*
X108732632Y-77545562D01*
X108659385Y-77643295D01*
X108608255Y-77779684D01*
X108601500Y-77841866D01*
X108601500Y-79638134D01*
X108608255Y-79700316D01*
X108659385Y-79836705D01*
X108664771Y-79843891D01*
X108732630Y-79934435D01*
X108757478Y-80000941D01*
X108742425Y-80070324D01*
X108732632Y-80085562D01*
X108659385Y-80183295D01*
X108608255Y-80319684D01*
X108601500Y-80381866D01*
X108601500Y-82178134D01*
X106045000Y-82178134D01*
X106045000Y-64896000D01*
X106065002Y-64827879D01*
X106118658Y-64781386D01*
X106171000Y-64770000D01*
X108543081Y-64770000D01*
X108611202Y-64790002D01*
G37*
%TD.AperFunction*%
%TA.AperFunction,Conductor*%
G36*
X108519532Y-100760538D02*
G01*
X108576368Y-100803085D01*
X108601179Y-100869605D01*
X108601500Y-100878594D01*
X108601500Y-102498134D01*
X108608255Y-102560316D01*
X108659385Y-102696705D01*
X108732630Y-102794435D01*
X108757478Y-102860941D01*
X108742425Y-102930324D01*
X108732632Y-102945562D01*
X108659385Y-103043295D01*
X108608255Y-103179684D01*
X108601500Y-103241866D01*
X108601500Y-105038134D01*
X108608255Y-105100316D01*
X108659385Y-105236705D01*
X108664771Y-105243891D01*
X108732630Y-105334435D01*
X108757478Y-105400941D01*
X108742425Y-105470324D01*
X108732632Y-105485562D01*
X108659385Y-105583295D01*
X108608255Y-105719684D01*
X108601500Y-105781866D01*
X108601500Y-107578134D01*
X108608255Y-107640316D01*
X108659385Y-107776705D01*
X108664771Y-107783891D01*
X108732942Y-107874852D01*
X108757790Y-107941358D01*
X108742737Y-108010741D01*
X108732942Y-108025982D01*
X108665214Y-108116351D01*
X108656676Y-108131946D01*
X108611522Y-108252394D01*
X108607895Y-108267649D01*
X108602369Y-108318514D01*
X108602000Y-108325328D01*
X108602000Y-108947885D01*
X108606475Y-108963124D01*
X108607865Y-108964329D01*
X108615548Y-108966000D01*
X113099884Y-108966000D01*
X113115123Y-108961525D01*
X113116328Y-108960135D01*
X113117999Y-108952452D01*
X113117999Y-108325331D01*
X113117629Y-108318510D01*
X113112105Y-108267648D01*
X113108479Y-108252396D01*
X113063324Y-108131946D01*
X113054786Y-108116351D01*
X112987058Y-108025982D01*
X112962210Y-107959475D01*
X112977263Y-107890093D01*
X112987058Y-107874852D01*
X113055229Y-107783891D01*
X113060615Y-107776705D01*
X113111745Y-107640316D01*
X113118500Y-107578134D01*
X113118500Y-106777856D01*
X113119578Y-106761409D01*
X113121092Y-106749908D01*
X113121529Y-106746590D01*
X113123156Y-106680000D01*
X113118924Y-106628524D01*
X113118500Y-106618200D01*
X113118500Y-105781866D01*
X113111745Y-105719684D01*
X113060615Y-105583295D01*
X112987370Y-105485564D01*
X112962522Y-105419059D01*
X112977575Y-105349676D01*
X112987370Y-105334435D01*
X113055229Y-105243891D01*
X113060615Y-105236705D01*
X113111745Y-105100316D01*
X113118500Y-105038134D01*
X113118500Y-104237856D01*
X113119578Y-104221409D01*
X113121092Y-104209908D01*
X113121529Y-104206590D01*
X113123156Y-104140000D01*
X113118924Y-104088524D01*
X113118500Y-104078200D01*
X113118500Y-103241866D01*
X113111745Y-103179684D01*
X113060615Y-103043295D01*
X112987370Y-102945564D01*
X112962522Y-102879059D01*
X112977575Y-102809676D01*
X112987370Y-102794435D01*
X113046366Y-102715718D01*
X113103223Y-102673204D01*
X113174041Y-102668178D01*
X113236285Y-102702189D01*
X113629595Y-103095499D01*
X113663621Y-103157811D01*
X113666500Y-103184594D01*
X113666500Y-118536000D01*
X113646498Y-118604121D01*
X113592842Y-118650614D01*
X113540500Y-118662000D01*
X113177115Y-118662000D01*
X113161876Y-118666475D01*
X113160671Y-118667865D01*
X113159000Y-118675548D01*
X113159000Y-120048000D01*
X113138998Y-120116121D01*
X113085342Y-120162614D01*
X113033000Y-120174000D01*
X111415116Y-120174000D01*
X111399877Y-120178475D01*
X111398672Y-120179865D01*
X111397001Y-120187548D01*
X111397001Y-120714669D01*
X111397371Y-120721490D01*
X111402895Y-120772352D01*
X111406522Y-120787606D01*
X111439306Y-120875059D01*
X111444489Y-120945866D01*
X111439306Y-120963518D01*
X111405784Y-121052937D01*
X111363142Y-121109701D01*
X111296581Y-121134401D01*
X111227232Y-121119193D01*
X111198707Y-121097802D01*
X110358652Y-120257747D01*
X110351112Y-120249461D01*
X110347000Y-120242982D01*
X110297348Y-120196356D01*
X110294507Y-120193602D01*
X110274770Y-120173865D01*
X110271573Y-120171385D01*
X110262551Y-120163680D01*
X110249116Y-120151064D01*
X110230321Y-120133414D01*
X110223375Y-120129595D01*
X110223372Y-120129593D01*
X110212566Y-120123652D01*
X110196047Y-120112801D01*
X110195583Y-120112441D01*
X110180041Y-120100386D01*
X110172772Y-120097241D01*
X110172768Y-120097238D01*
X110139463Y-120082826D01*
X110128813Y-120077609D01*
X110090060Y-120056305D01*
X110070437Y-120051267D01*
X110051734Y-120044863D01*
X110040420Y-120039967D01*
X110040419Y-120039967D01*
X110033145Y-120036819D01*
X110025322Y-120035580D01*
X110025312Y-120035577D01*
X109989476Y-120029901D01*
X109977856Y-120027495D01*
X109935031Y-120016500D01*
X109935617Y-120014217D01*
X109881384Y-119990569D01*
X109859480Y-119966844D01*
X109827946Y-119922389D01*
X109675150Y-119776119D01*
X109497452Y-119661380D01*
X109463966Y-119647885D01*
X111397000Y-119647885D01*
X111401475Y-119663124D01*
X111402865Y-119664329D01*
X111410548Y-119666000D01*
X112632885Y-119666000D01*
X112648124Y-119661525D01*
X112649329Y-119660135D01*
X112651000Y-119652452D01*
X112651000Y-118680116D01*
X112646525Y-118664877D01*
X112645135Y-118663672D01*
X112637452Y-118662001D01*
X111860331Y-118662001D01*
X111853510Y-118662371D01*
X111802648Y-118667895D01*
X111787396Y-118671521D01*
X111666946Y-118716676D01*
X111651351Y-118725214D01*
X111549276Y-118801715D01*
X111536715Y-118814276D01*
X111460214Y-118916351D01*
X111451676Y-118931946D01*
X111406522Y-119052394D01*
X111402895Y-119067649D01*
X111397369Y-119118514D01*
X111397000Y-119125328D01*
X111397000Y-119647885D01*
X109463966Y-119647885D01*
X109437354Y-119637160D01*
X109306832Y-119584558D01*
X109306829Y-119584557D01*
X109301263Y-119582314D01*
X109093663Y-119541772D01*
X109088101Y-119541500D01*
X108132154Y-119541500D01*
X108031947Y-119551061D01*
X107962235Y-119537620D01*
X107910856Y-119488623D01*
X107893980Y-119425631D01*
X107893980Y-119335093D01*
X107913982Y-119266972D01*
X107967638Y-119220479D01*
X108044129Y-119211429D01*
X108071925Y-119216857D01*
X108080791Y-119217934D01*
X108083500Y-119218000D01*
X108312885Y-119218000D01*
X108328124Y-119213525D01*
X108329329Y-119212135D01*
X108331000Y-119204452D01*
X108331000Y-119199885D01*
X108839000Y-119199885D01*
X108843475Y-119215124D01*
X108844865Y-119216329D01*
X108852548Y-119218000D01*
X109034832Y-119218000D01*
X109040808Y-119217715D01*
X109189494Y-119203529D01*
X109201228Y-119201270D01*
X109392599Y-119145128D01*
X109403675Y-119140698D01*
X109580978Y-119049381D01*
X109591024Y-119042931D01*
X109747857Y-118919738D01*
X109756506Y-118911501D01*
X109887212Y-118760877D01*
X109894147Y-118751153D01*
X109994010Y-118578533D01*
X109998984Y-118567669D01*
X110064407Y-118379273D01*
X110064648Y-118378284D01*
X110063180Y-118367992D01*
X110049615Y-118364000D01*
X108857115Y-118364000D01*
X108841876Y-118368475D01*
X108840671Y-118369865D01*
X108839000Y-118377548D01*
X108839000Y-119199885D01*
X108331000Y-119199885D01*
X108331000Y-117837885D01*
X108839000Y-117837885D01*
X108843475Y-117853124D01*
X108844865Y-117854329D01*
X108852548Y-117856000D01*
X110045402Y-117856000D01*
X110058933Y-117852027D01*
X110060288Y-117842601D01*
X110038806Y-117753463D01*
X110034917Y-117742168D01*
X109952371Y-117560618D01*
X109946424Y-117550276D01*
X109831032Y-117387603D01*
X109823239Y-117378575D01*
X109679169Y-117240658D01*
X109669804Y-117233262D01*
X109502259Y-117125079D01*
X109491655Y-117119583D01*
X109306688Y-117045039D01*
X109295230Y-117041645D01*
X109098072Y-117003143D01*
X109089209Y-117002066D01*
X109086500Y-117002000D01*
X108857115Y-117002000D01*
X108841876Y-117006475D01*
X108840671Y-117007865D01*
X108839000Y-117015548D01*
X108839000Y-117837885D01*
X108331000Y-117837885D01*
X108331000Y-117020115D01*
X108326525Y-117004876D01*
X108325135Y-117003671D01*
X108317452Y-117002000D01*
X108135168Y-117002000D01*
X108129194Y-117002285D01*
X108031948Y-117011563D01*
X107962235Y-116998122D01*
X107910856Y-116949125D01*
X107893980Y-116886133D01*
X107893980Y-115198134D01*
X108601500Y-115198134D01*
X108608255Y-115260316D01*
X108659385Y-115396705D01*
X108746739Y-115513261D01*
X108863295Y-115600615D01*
X108999684Y-115651745D01*
X109061866Y-115658500D01*
X111730826Y-115658500D01*
X111735443Y-115658585D01*
X111816673Y-115661564D01*
X111816677Y-115661564D01*
X111821837Y-115661753D01*
X111826957Y-115661097D01*
X111826959Y-115661097D01*
X111839261Y-115659521D01*
X111855271Y-115658500D01*
X112658134Y-115658500D01*
X112720316Y-115651745D01*
X112856705Y-115600615D01*
X112973261Y-115513261D01*
X113060615Y-115396705D01*
X113111745Y-115260316D01*
X113118500Y-115198134D01*
X113118500Y-114397856D01*
X113119578Y-114381409D01*
X113121092Y-114369908D01*
X113121529Y-114366590D01*
X113123156Y-114300000D01*
X113118924Y-114248524D01*
X113118500Y-114238200D01*
X113118500Y-113401866D01*
X113111745Y-113339684D01*
X113060615Y-113203295D01*
X112987370Y-113105564D01*
X112962522Y-113039059D01*
X112977575Y-112969676D01*
X112987370Y-112954435D01*
X113055229Y-112863891D01*
X113060615Y-112856705D01*
X113111745Y-112720316D01*
X113118500Y-112658134D01*
X113118500Y-111857856D01*
X113119578Y-111841409D01*
X113121092Y-111829908D01*
X113121529Y-111826590D01*
X113123156Y-111760000D01*
X113118924Y-111708524D01*
X113118500Y-111698200D01*
X113118500Y-110861866D01*
X113111745Y-110799684D01*
X113060615Y-110663295D01*
X112987058Y-110565148D01*
X112962210Y-110498642D01*
X112977263Y-110429259D01*
X112987058Y-110414018D01*
X113054786Y-110323649D01*
X113063324Y-110308054D01*
X113108478Y-110187606D01*
X113112105Y-110172351D01*
X113117631Y-110121486D01*
X113118000Y-110114672D01*
X113118000Y-109492115D01*
X113113525Y-109476876D01*
X113112135Y-109475671D01*
X113104452Y-109474000D01*
X108620116Y-109474000D01*
X108604877Y-109478475D01*
X108603672Y-109479865D01*
X108602001Y-109487548D01*
X108602001Y-110114669D01*
X108602371Y-110121490D01*
X108607895Y-110172352D01*
X108611521Y-110187604D01*
X108656676Y-110308054D01*
X108665214Y-110323649D01*
X108732942Y-110414018D01*
X108757790Y-110480525D01*
X108742737Y-110549907D01*
X108732942Y-110565148D01*
X108659385Y-110663295D01*
X108608255Y-110799684D01*
X108601500Y-110861866D01*
X108601500Y-112658134D01*
X108608255Y-112720316D01*
X108659385Y-112856705D01*
X108664771Y-112863891D01*
X108732630Y-112954435D01*
X108757478Y-113020941D01*
X108742425Y-113090324D01*
X108732632Y-113105562D01*
X108659385Y-113203295D01*
X108608255Y-113339684D01*
X108601500Y-113401866D01*
X108601500Y-115198134D01*
X107893980Y-115198134D01*
X107893980Y-101334114D01*
X107913982Y-101265993D01*
X107930885Y-101245019D01*
X108386405Y-100789499D01*
X108448717Y-100755473D01*
X108519532Y-100760538D01*
G37*
%TD.AperFunction*%
%TA.AperFunction,Conductor*%
G36*
X108519532Y-93775538D02*
G01*
X108576368Y-93818085D01*
X108601179Y-93884605D01*
X108601500Y-93893594D01*
X108601500Y-94878134D01*
X108608255Y-94940316D01*
X108659385Y-95076705D01*
X108664771Y-95083891D01*
X108732942Y-95174852D01*
X108757790Y-95241358D01*
X108742737Y-95310741D01*
X108732942Y-95325982D01*
X108665214Y-95416351D01*
X108656676Y-95431946D01*
X108611522Y-95552394D01*
X108607895Y-95567649D01*
X108602369Y-95618514D01*
X108602000Y-95625328D01*
X108602000Y-96247885D01*
X108606475Y-96263124D01*
X108607865Y-96264329D01*
X108615548Y-96266000D01*
X113099884Y-96266000D01*
X113115123Y-96261525D01*
X113116328Y-96260135D01*
X113117999Y-96252452D01*
X113117999Y-95625331D01*
X113117629Y-95618510D01*
X113112105Y-95567648D01*
X113108479Y-95552396D01*
X113063324Y-95431946D01*
X113054786Y-95416351D01*
X112987058Y-95325982D01*
X112962210Y-95259475D01*
X112977263Y-95190093D01*
X112987058Y-95174852D01*
X113055229Y-95083891D01*
X113060615Y-95076705D01*
X113111745Y-94940316D01*
X113118500Y-94878134D01*
X113118500Y-94739500D01*
X113138502Y-94671379D01*
X113192158Y-94624886D01*
X113244500Y-94613500D01*
X113350406Y-94613500D01*
X113418527Y-94633502D01*
X113439501Y-94650405D01*
X114264595Y-95475499D01*
X114298621Y-95537811D01*
X114301500Y-95564594D01*
X114301500Y-101671405D01*
X114281498Y-101739526D01*
X114227842Y-101786019D01*
X114157568Y-101796123D01*
X114092988Y-101766629D01*
X114086405Y-101760500D01*
X113533652Y-101207747D01*
X113526112Y-101199461D01*
X113522000Y-101192982D01*
X113472348Y-101146356D01*
X113469507Y-101143602D01*
X113449770Y-101123865D01*
X113446573Y-101121385D01*
X113437551Y-101113680D01*
X113411100Y-101088841D01*
X113405321Y-101083414D01*
X113398375Y-101079595D01*
X113398372Y-101079593D01*
X113387566Y-101073652D01*
X113371047Y-101062801D01*
X113370583Y-101062441D01*
X113355041Y-101050386D01*
X113347772Y-101047241D01*
X113347768Y-101047238D01*
X113314463Y-101032826D01*
X113303813Y-101027609D01*
X113265060Y-101006305D01*
X113245437Y-101001267D01*
X113226734Y-100994863D01*
X113215424Y-100989969D01*
X113215425Y-100989969D01*
X113208145Y-100986819D01*
X113206860Y-100986616D01*
X113149511Y-100949989D01*
X113119834Y-100885493D01*
X113118500Y-100867206D01*
X113118500Y-100701866D01*
X113111745Y-100639684D01*
X113060615Y-100503295D01*
X112987370Y-100405564D01*
X112962522Y-100339059D01*
X112977575Y-100269676D01*
X112987370Y-100254435D01*
X113055229Y-100163891D01*
X113060615Y-100156705D01*
X113111745Y-100020316D01*
X113118500Y-99958134D01*
X113118500Y-99157856D01*
X113119578Y-99141409D01*
X113121092Y-99129908D01*
X113121529Y-99126590D01*
X113123156Y-99060000D01*
X113118924Y-99008524D01*
X113118500Y-98998200D01*
X113118500Y-98161866D01*
X113111745Y-98099684D01*
X113060615Y-97963295D01*
X112987058Y-97865148D01*
X112962210Y-97798642D01*
X112977263Y-97729259D01*
X112987058Y-97714018D01*
X113054786Y-97623649D01*
X113063324Y-97608054D01*
X113108478Y-97487606D01*
X113112105Y-97472351D01*
X113117631Y-97421486D01*
X113118000Y-97414672D01*
X113118000Y-96792115D01*
X113113525Y-96776876D01*
X113112135Y-96775671D01*
X113104452Y-96774000D01*
X108620116Y-96774000D01*
X108604877Y-96778475D01*
X108603672Y-96779865D01*
X108602001Y-96787548D01*
X108602001Y-97414669D01*
X108602371Y-97421490D01*
X108607895Y-97472352D01*
X108611521Y-97487604D01*
X108656676Y-97608054D01*
X108665214Y-97623649D01*
X108732942Y-97714018D01*
X108757790Y-97780525D01*
X108742737Y-97849907D01*
X108732942Y-97865148D01*
X108659385Y-97963295D01*
X108608255Y-98099684D01*
X108601500Y-98161866D01*
X108601500Y-98730406D01*
X108581498Y-98798527D01*
X108564599Y-98819497D01*
X107659553Y-99724542D01*
X107597243Y-99758566D01*
X107526427Y-99753501D01*
X107469592Y-99710954D01*
X107444781Y-99644434D01*
X107444460Y-99635445D01*
X107444460Y-94798634D01*
X107464462Y-94730513D01*
X107481365Y-94709539D01*
X108386405Y-93804499D01*
X108448717Y-93770473D01*
X108519532Y-93775538D01*
G37*
%TD.AperFunction*%
%TD*%
M02*
