%TF.GenerationSoftware,KiCad,Pcbnew,6.0.2+dfsg-1*%
%TF.CreationDate,2022-09-03T15:09:50+02:00*%
%TF.ProjectId,LoRa_thing,4c6f5261-5f74-4686-996e-672e6b696361,rev?*%
%TF.SameCoordinates,Original*%
%TF.FileFunction,Legend,Top*%
%TF.FilePolarity,Positive*%
%FSLAX46Y46*%
G04 Gerber Fmt 4.6, Leading zero omitted, Abs format (unit mm)*
G04 Created by KiCad (PCBNEW 6.0.2+dfsg-1) date 2022-09-03 15:09:50*
%MOMM*%
%LPD*%
G01*
G04 APERTURE LIST*
%ADD10C,0.150000*%
%ADD11C,0.120000*%
G04 APERTURE END LIST*
D10*
X125879903Y-133350000D02*
G75*
G03*
X125879903Y-133350000I-1419903J0D01*
G01*
X127000000Y-135255000D02*
X122555000Y-135255000D01*
X122555000Y-135255000D02*
X122555000Y-131445000D01*
X122555000Y-131445000D02*
X127000000Y-131445000D01*
X127000000Y-131445000D02*
X127000000Y-135255000D01*
%TO.C,U2*%
X119888095Y-89622380D02*
X119888095Y-90431904D01*
X119935714Y-90527142D01*
X119983333Y-90574761D01*
X120078571Y-90622380D01*
X120269047Y-90622380D01*
X120364285Y-90574761D01*
X120411904Y-90527142D01*
X120459523Y-90431904D01*
X120459523Y-89622380D01*
X120888095Y-89717619D02*
X120935714Y-89670000D01*
X121030952Y-89622380D01*
X121269047Y-89622380D01*
X121364285Y-89670000D01*
X121411904Y-89717619D01*
X121459523Y-89812857D01*
X121459523Y-89908095D01*
X121411904Y-90050952D01*
X120840476Y-90622380D01*
X121459523Y-90622380D01*
X106493722Y-101990592D02*
X106412910Y-102017529D01*
X106332097Y-102098341D01*
X106278223Y-102206091D01*
X106278223Y-102313841D01*
X106305160Y-102394653D01*
X106385972Y-102529340D01*
X106466784Y-102610152D01*
X106601471Y-102690964D01*
X106682284Y-102717902D01*
X106790033Y-102717902D01*
X106897783Y-102664027D01*
X106951658Y-102610152D01*
X107005532Y-102502402D01*
X107005532Y-102448528D01*
X106816971Y-102259966D01*
X106709221Y-102367715D01*
X107301844Y-102259966D02*
X106736158Y-101694280D01*
X106951658Y-101478781D01*
X107032470Y-101451844D01*
X107086345Y-101451844D01*
X107167157Y-101478781D01*
X107247969Y-101559593D01*
X107274906Y-101640406D01*
X107274906Y-101694280D01*
X107247969Y-101775093D01*
X107032470Y-101990592D01*
X108163841Y-101397969D02*
X107840592Y-101721218D01*
X108002216Y-101559593D02*
X107436531Y-100993908D01*
X107463468Y-101128595D01*
X107463468Y-101236345D01*
X107436531Y-101317157D01*
X108702589Y-100859221D02*
X108379340Y-101182470D01*
X108540964Y-101020845D02*
X107975279Y-100455160D01*
X108002216Y-100589847D01*
X108002216Y-100697597D01*
X107975279Y-100778409D01*
X132801597Y-84910964D02*
X133070971Y-84641590D01*
X132909346Y-85126463D02*
X132532223Y-84372216D01*
X133286470Y-84749340D01*
X133232595Y-83725719D02*
X133151783Y-83752656D01*
X133070971Y-83833468D01*
X133017096Y-83941218D01*
X133017096Y-84048967D01*
X133044033Y-84129780D01*
X133124845Y-84264467D01*
X133205658Y-84345279D01*
X133340345Y-84426091D01*
X133421157Y-84453028D01*
X133528906Y-84453028D01*
X133636656Y-84399154D01*
X133690531Y-84345279D01*
X133744406Y-84237529D01*
X133744406Y-84183654D01*
X133555844Y-83995093D01*
X133448094Y-84102842D01*
X134040717Y-83995093D02*
X133475032Y-83429407D01*
X134363966Y-83671844D01*
X133798280Y-83106158D01*
X134633340Y-83402470D02*
X134067654Y-82836784D01*
X134202341Y-82702097D01*
X134310091Y-82648223D01*
X134417841Y-82648223D01*
X134498653Y-82675160D01*
X134633340Y-82755972D01*
X134714152Y-82836784D01*
X134794964Y-82971471D01*
X134821902Y-83052284D01*
X134821902Y-83160033D01*
X134768027Y-83267783D01*
X134633340Y-83402470D01*
X132736158Y-109368155D02*
X132655346Y-109395093D01*
X132574534Y-109475905D01*
X132520659Y-109583654D01*
X132520659Y-109691404D01*
X132547597Y-109772216D01*
X132628409Y-109906903D01*
X132709221Y-109987715D01*
X132843908Y-110068528D01*
X132924720Y-110095465D01*
X133032470Y-110095465D01*
X133140219Y-110041590D01*
X133194094Y-109987715D01*
X133247969Y-109879966D01*
X133247969Y-109826091D01*
X133059407Y-109637529D01*
X132951658Y-109745279D01*
X133544280Y-109637529D02*
X132978595Y-109071844D01*
X133867529Y-109314280D01*
X133301844Y-108748595D01*
X134136903Y-109044906D02*
X133571218Y-108479221D01*
X133705905Y-108344534D01*
X133813654Y-108290659D01*
X133921404Y-108290659D01*
X134002216Y-108317597D01*
X134136903Y-108398409D01*
X134217715Y-108479221D01*
X134298528Y-108613908D01*
X134325465Y-108694720D01*
X134325465Y-108802470D01*
X134271590Y-108910219D01*
X134136903Y-109044906D01*
X132603129Y-66697309D02*
X133357377Y-67074433D01*
X132980253Y-66320186D01*
X133626751Y-66212436D02*
X133734500Y-66158561D01*
X133788375Y-66158561D01*
X133869187Y-66185499D01*
X133949999Y-66266311D01*
X133976937Y-66347123D01*
X133976937Y-66400998D01*
X133950000Y-66481810D01*
X133734500Y-66697309D01*
X133168815Y-66131624D01*
X133357377Y-65943062D01*
X133438189Y-65916125D01*
X133492064Y-65916125D01*
X133572876Y-65943062D01*
X133626751Y-65996937D01*
X133653688Y-66077749D01*
X133653688Y-66131624D01*
X133626751Y-66212436D01*
X133438189Y-66400998D01*
X133734500Y-65565938D02*
X134192436Y-66023874D01*
X134273248Y-66050812D01*
X134327123Y-66050812D01*
X134407935Y-66023874D01*
X134515685Y-65916125D01*
X134542622Y-65835312D01*
X134542622Y-65781438D01*
X134515685Y-65700625D01*
X134057749Y-65242690D01*
X134838934Y-65539001D02*
X134946683Y-65485126D01*
X135081370Y-65350439D01*
X135108308Y-65269627D01*
X135108308Y-65215752D01*
X135081370Y-65134940D01*
X135027496Y-65081065D01*
X134946683Y-65054128D01*
X134892809Y-65054128D01*
X134811996Y-65081065D01*
X134677309Y-65161877D01*
X134596497Y-65188815D01*
X134542622Y-65188815D01*
X134461810Y-65161877D01*
X134407935Y-65108003D01*
X134380998Y-65027190D01*
X134380998Y-64973316D01*
X134407935Y-64892503D01*
X134542622Y-64757816D01*
X134650372Y-64703942D01*
X132736158Y-71268155D02*
X132655346Y-71295093D01*
X132574534Y-71375905D01*
X132520659Y-71483654D01*
X132520659Y-71591404D01*
X132547597Y-71672216D01*
X132628409Y-71806903D01*
X132709221Y-71887715D01*
X132843908Y-71968528D01*
X132924720Y-71995465D01*
X133032470Y-71995465D01*
X133140219Y-71941590D01*
X133194094Y-71887715D01*
X133247969Y-71779966D01*
X133247969Y-71726091D01*
X133059407Y-71537529D01*
X132951658Y-71645279D01*
X133544280Y-71537529D02*
X132978595Y-70971844D01*
X133867529Y-71214280D01*
X133301844Y-70648595D01*
X134136903Y-70944906D02*
X133571218Y-70379221D01*
X133705905Y-70244534D01*
X133813654Y-70190659D01*
X133921404Y-70190659D01*
X134002216Y-70217597D01*
X134136903Y-70298409D01*
X134217715Y-70379221D01*
X134298528Y-70513908D01*
X134325465Y-70594720D01*
X134325465Y-70702470D01*
X134271590Y-70810219D01*
X134136903Y-70944906D01*
X106639722Y-107070592D02*
X106558910Y-107097529D01*
X106478097Y-107178341D01*
X106424223Y-107286091D01*
X106424223Y-107393841D01*
X106451160Y-107474653D01*
X106531972Y-107609340D01*
X106612784Y-107690152D01*
X106747471Y-107770964D01*
X106828284Y-107797902D01*
X106936033Y-107797902D01*
X107043783Y-107744027D01*
X107097658Y-107690152D01*
X107151532Y-107582402D01*
X107151532Y-107528528D01*
X106962971Y-107339966D01*
X106855221Y-107447715D01*
X107447844Y-107339966D02*
X106882158Y-106774280D01*
X107097658Y-106558781D01*
X107178470Y-106531844D01*
X107232345Y-106531844D01*
X107313157Y-106558781D01*
X107393969Y-106639593D01*
X107420906Y-106720406D01*
X107420906Y-106774280D01*
X107393969Y-106855093D01*
X107178470Y-107070592D01*
X108309841Y-106477969D02*
X107986592Y-106801218D01*
X108148216Y-106639593D02*
X107582531Y-106073908D01*
X107609468Y-106208595D01*
X107609468Y-106316345D01*
X107582531Y-106397157D01*
X107932717Y-105723722D02*
X108282903Y-105373536D01*
X108309841Y-105777597D01*
X108390653Y-105696784D01*
X108471465Y-105669847D01*
X108525340Y-105669847D01*
X108606152Y-105696784D01*
X108740839Y-105831471D01*
X108767776Y-105912284D01*
X108767776Y-105966158D01*
X108740839Y-106046971D01*
X108579215Y-106208595D01*
X108498402Y-106235532D01*
X108444528Y-106235532D01*
X132804788Y-79703773D02*
X133074162Y-79434399D01*
X132912537Y-79919272D02*
X132535414Y-79165025D01*
X133289661Y-79542149D01*
X133478223Y-79353587D02*
X132912537Y-78787902D01*
X133047224Y-78653215D01*
X133154974Y-78599340D01*
X133262723Y-78599340D01*
X133343536Y-78626277D01*
X133478223Y-78707089D01*
X133559035Y-78787902D01*
X133639847Y-78922589D01*
X133666784Y-79003401D01*
X133666784Y-79111150D01*
X133612910Y-79218900D01*
X133478223Y-79353587D01*
X134313282Y-78410778D02*
X134313282Y-78464653D01*
X134259407Y-78572402D01*
X134205532Y-78626277D01*
X134097783Y-78680152D01*
X133990033Y-78680152D01*
X133909221Y-78653215D01*
X133774534Y-78572402D01*
X133693722Y-78491590D01*
X133612910Y-78356903D01*
X133585972Y-78276091D01*
X133585972Y-78168341D01*
X133639847Y-78060592D01*
X133693722Y-78006717D01*
X133801471Y-77952842D01*
X133855346Y-77952842D01*
X134528781Y-78410778D02*
X134959780Y-77979780D01*
X134394094Y-77306345D02*
X135148341Y-77683468D01*
X134771218Y-76929221D01*
X135848714Y-76983096D02*
X135390778Y-76902284D01*
X135525465Y-77306345D02*
X134959780Y-76740659D01*
X135175279Y-76525160D01*
X135256091Y-76498223D01*
X135309966Y-76498223D01*
X135390778Y-76525160D01*
X135471590Y-76605972D01*
X135498528Y-76686784D01*
X135498528Y-76740659D01*
X135471590Y-76821471D01*
X135256091Y-77036971D01*
X135794839Y-76444348D02*
X135983401Y-76255786D01*
X136360524Y-76471285D02*
X136091150Y-76740659D01*
X135525465Y-76174974D01*
X135794839Y-75905600D01*
X136495211Y-75743975D02*
X136306650Y-75932537D01*
X136602961Y-76228849D02*
X136037276Y-75663163D01*
X136306650Y-75393789D01*
X107163096Y-78861218D02*
X107082284Y-78888155D01*
X107001471Y-78968967D01*
X106947597Y-79076717D01*
X106947597Y-79184467D01*
X106974534Y-79265279D01*
X107055346Y-79399966D01*
X107136158Y-79480778D01*
X107270845Y-79561590D01*
X107351658Y-79588528D01*
X107459407Y-79588528D01*
X107567157Y-79534653D01*
X107621032Y-79480778D01*
X107674906Y-79373028D01*
X107674906Y-79319154D01*
X107486345Y-79130592D01*
X107378595Y-79238341D01*
X107971218Y-79130592D02*
X107405532Y-78564906D01*
X107621032Y-78349407D01*
X107701844Y-78322470D01*
X107755719Y-78322470D01*
X107836531Y-78349407D01*
X107917343Y-78430219D01*
X107944280Y-78511032D01*
X107944280Y-78564906D01*
X107917343Y-78645719D01*
X107701844Y-78861218D01*
X108402216Y-77945346D02*
X108779340Y-78322470D01*
X108052030Y-77864534D02*
X108321404Y-78403282D01*
X108671590Y-78053096D01*
X107263096Y-88991218D02*
X107182284Y-89018155D01*
X107101471Y-89098967D01*
X107047597Y-89206717D01*
X107047597Y-89314467D01*
X107074534Y-89395279D01*
X107155346Y-89529966D01*
X107236158Y-89610778D01*
X107370845Y-89691590D01*
X107451658Y-89718528D01*
X107559407Y-89718528D01*
X107667157Y-89664653D01*
X107721032Y-89610778D01*
X107774906Y-89503028D01*
X107774906Y-89449154D01*
X107586345Y-89260592D01*
X107478595Y-89368341D01*
X108071218Y-89260592D02*
X107505532Y-88694906D01*
X107721032Y-88479407D01*
X107801844Y-88452470D01*
X107855719Y-88452470D01*
X107936531Y-88479407D01*
X108017343Y-88560219D01*
X108044280Y-88641032D01*
X108044280Y-88694906D01*
X108017343Y-88775719D01*
X107801844Y-88991218D01*
X108017343Y-88183096D02*
X108394467Y-87805972D01*
X108717715Y-88614094D01*
X106639722Y-114690592D02*
X106558910Y-114717529D01*
X106478097Y-114798341D01*
X106424223Y-114906091D01*
X106424223Y-115013841D01*
X106451160Y-115094653D01*
X106531972Y-115229340D01*
X106612784Y-115310152D01*
X106747471Y-115390964D01*
X106828284Y-115417902D01*
X106936033Y-115417902D01*
X107043783Y-115364027D01*
X107097658Y-115310152D01*
X107151532Y-115202402D01*
X107151532Y-115148528D01*
X106962971Y-114959966D01*
X106855221Y-115067715D01*
X107447844Y-114959966D02*
X106882158Y-114394280D01*
X107097658Y-114178781D01*
X107178470Y-114151844D01*
X107232345Y-114151844D01*
X107313157Y-114178781D01*
X107393969Y-114259593D01*
X107420906Y-114340406D01*
X107420906Y-114394280D01*
X107393969Y-114475093D01*
X107178470Y-114690592D01*
X108309841Y-114097969D02*
X107986592Y-114421218D01*
X108148216Y-114259593D02*
X107582531Y-113693908D01*
X107609468Y-113828595D01*
X107609468Y-113936345D01*
X107582531Y-114017157D01*
X108255966Y-113020473D02*
X107986592Y-113289847D01*
X108229028Y-113586158D01*
X108229028Y-113532284D01*
X108255966Y-113451471D01*
X108390653Y-113316784D01*
X108471465Y-113289847D01*
X108525340Y-113289847D01*
X108606152Y-113316784D01*
X108740839Y-113451471D01*
X108767776Y-113532284D01*
X108767776Y-113586158D01*
X108740839Y-113666971D01*
X108606152Y-113801658D01*
X108525340Y-113828595D01*
X108471465Y-113828595D01*
X132747722Y-112150592D02*
X132666910Y-112177529D01*
X132586097Y-112258341D01*
X132532223Y-112366091D01*
X132532223Y-112473841D01*
X132559160Y-112554653D01*
X132639972Y-112689340D01*
X132720784Y-112770152D01*
X132855471Y-112850964D01*
X132936284Y-112877902D01*
X133044033Y-112877902D01*
X133151783Y-112824027D01*
X133205658Y-112770152D01*
X133259532Y-112662402D01*
X133259532Y-112608528D01*
X133070971Y-112419966D01*
X132963221Y-112527715D01*
X133555844Y-112419966D02*
X132990158Y-111854280D01*
X133205658Y-111638781D01*
X133286470Y-111611844D01*
X133340345Y-111611844D01*
X133421157Y-111638781D01*
X133501969Y-111719593D01*
X133528906Y-111800406D01*
X133528906Y-111854280D01*
X133501969Y-111935093D01*
X133286470Y-112150592D01*
X134417841Y-111557969D02*
X134094592Y-111881218D01*
X134256216Y-111719593D02*
X133690531Y-111153908D01*
X133717468Y-111288595D01*
X133717468Y-111396345D01*
X133690531Y-111477157D01*
X134040717Y-110803722D02*
X134417841Y-110426598D01*
X134741089Y-111234720D01*
X132747722Y-89290592D02*
X132666910Y-89317529D01*
X132586097Y-89398341D01*
X132532223Y-89506091D01*
X132532223Y-89613841D01*
X132559160Y-89694653D01*
X132639972Y-89829340D01*
X132720784Y-89910152D01*
X132855471Y-89990964D01*
X132936284Y-90017902D01*
X133044033Y-90017902D01*
X133151783Y-89964027D01*
X133205658Y-89910152D01*
X133259532Y-89802402D01*
X133259532Y-89748528D01*
X133070971Y-89559966D01*
X132963221Y-89667715D01*
X133555844Y-89559966D02*
X132990158Y-88994280D01*
X133205658Y-88778781D01*
X133286470Y-88751844D01*
X133340345Y-88751844D01*
X133421157Y-88778781D01*
X133501969Y-88859593D01*
X133528906Y-88940406D01*
X133528906Y-88994280D01*
X133501969Y-89075093D01*
X133286470Y-89290592D01*
X133582781Y-88509407D02*
X133582781Y-88455532D01*
X133609719Y-88374720D01*
X133744406Y-88240033D01*
X133825218Y-88213096D01*
X133879093Y-88213096D01*
X133959905Y-88240033D01*
X134013780Y-88293908D01*
X134067654Y-88401658D01*
X134067654Y-89048155D01*
X134417841Y-88697969D01*
X134337028Y-87647410D02*
X134229279Y-87755160D01*
X134202341Y-87835972D01*
X134202341Y-87889847D01*
X134229279Y-88024534D01*
X134310091Y-88159221D01*
X134525590Y-88374720D01*
X134606402Y-88401658D01*
X134660277Y-88401658D01*
X134741089Y-88374720D01*
X134848839Y-88266971D01*
X134875776Y-88186158D01*
X134875776Y-88132284D01*
X134848839Y-88051471D01*
X134714152Y-87916784D01*
X134633340Y-87889847D01*
X134579465Y-87889847D01*
X134498653Y-87916784D01*
X134390903Y-88024534D01*
X134363966Y-88105346D01*
X134363966Y-88159221D01*
X134390903Y-88240033D01*
X113140476Y-116693809D02*
X113254761Y-116731904D01*
X113445238Y-116731904D01*
X113521428Y-116693809D01*
X113559523Y-116655714D01*
X113597619Y-116579523D01*
X113597619Y-116503333D01*
X113559523Y-116427142D01*
X113521428Y-116389047D01*
X113445238Y-116350952D01*
X113292857Y-116312857D01*
X113216666Y-116274761D01*
X113178571Y-116236666D01*
X113140476Y-116160476D01*
X113140476Y-116084285D01*
X113178571Y-116008095D01*
X113216666Y-115970000D01*
X113292857Y-115931904D01*
X113483333Y-115931904D01*
X113597619Y-115970000D01*
X113864285Y-115931904D02*
X114054761Y-116731904D01*
X114207142Y-116160476D01*
X114359523Y-116731904D01*
X114550000Y-115931904D01*
X115311904Y-116655714D02*
X115273809Y-116693809D01*
X115159523Y-116731904D01*
X115083333Y-116731904D01*
X114969047Y-116693809D01*
X114892857Y-116617619D01*
X114854761Y-116541428D01*
X114816666Y-116389047D01*
X114816666Y-116274761D01*
X114854761Y-116122380D01*
X114892857Y-116046190D01*
X114969047Y-115970000D01*
X115083333Y-115931904D01*
X115159523Y-115931904D01*
X115273809Y-115970000D01*
X115311904Y-116008095D01*
X116035714Y-116731904D02*
X115654761Y-116731904D01*
X115654761Y-115931904D01*
X116302380Y-116731904D02*
X116302380Y-115931904D01*
X116759523Y-116731904D02*
X116416666Y-116274761D01*
X116759523Y-115931904D02*
X116302380Y-116389047D01*
X132572131Y-74128308D02*
X132922317Y-73778122D01*
X132949255Y-74182183D01*
X133030067Y-74101370D01*
X133110879Y-74074433D01*
X133164754Y-74074433D01*
X133245566Y-74101370D01*
X133380253Y-74236057D01*
X133407190Y-74316870D01*
X133407190Y-74370744D01*
X133380253Y-74451557D01*
X133218629Y-74613181D01*
X133137816Y-74640118D01*
X133083942Y-74640118D01*
X133083942Y-73616497D02*
X133838189Y-73993621D01*
X133461065Y-73239374D01*
X133595752Y-73104687D02*
X133945938Y-72754500D01*
X133972876Y-73158561D01*
X134053688Y-73077749D01*
X134134500Y-73050812D01*
X134188375Y-73050812D01*
X134269187Y-73077749D01*
X134403874Y-73212436D01*
X134430812Y-73293248D01*
X134430812Y-73347123D01*
X134403874Y-73427935D01*
X134242250Y-73589560D01*
X134161438Y-73616497D01*
X134107563Y-73616497D01*
X134673248Y-73266311D02*
X135104247Y-72835312D01*
X134888748Y-72350439D02*
X135077309Y-72161877D01*
X135454433Y-72377377D02*
X135185059Y-72646751D01*
X134619374Y-72081065D01*
X134888748Y-71811691D01*
X135696870Y-72134940D02*
X135131184Y-71569255D01*
X136020118Y-71811691D01*
X135454433Y-71246006D01*
X132539847Y-76660592D02*
X132890033Y-76310406D01*
X132916971Y-76714467D01*
X132997783Y-76633654D01*
X133078595Y-76606717D01*
X133132470Y-76606717D01*
X133213282Y-76633654D01*
X133347969Y-76768341D01*
X133374906Y-76849154D01*
X133374906Y-76903028D01*
X133347969Y-76983841D01*
X133186345Y-77145465D01*
X133105532Y-77172402D01*
X133051658Y-77172402D01*
X133051658Y-76148781D02*
X133805905Y-76525905D01*
X133428781Y-75771658D01*
X133563468Y-75636971D02*
X133913654Y-75286784D01*
X133940592Y-75690845D01*
X134021404Y-75610033D01*
X134102216Y-75583096D01*
X134156091Y-75583096D01*
X134236903Y-75610033D01*
X134371590Y-75744720D01*
X134398528Y-75825532D01*
X134398528Y-75879407D01*
X134371590Y-75960219D01*
X134209966Y-76121844D01*
X134129154Y-76148781D01*
X134075279Y-76148781D01*
X107163096Y-91561218D02*
X107082284Y-91588155D01*
X107001471Y-91668967D01*
X106947597Y-91776717D01*
X106947597Y-91884467D01*
X106974534Y-91965279D01*
X107055346Y-92099966D01*
X107136158Y-92180778D01*
X107270845Y-92261590D01*
X107351658Y-92288528D01*
X107459407Y-92288528D01*
X107567157Y-92234653D01*
X107621032Y-92180778D01*
X107674906Y-92073028D01*
X107674906Y-92019154D01*
X107486345Y-91830592D01*
X107378595Y-91938341D01*
X107971218Y-91830592D02*
X107405532Y-91264906D01*
X107621032Y-91049407D01*
X107701844Y-91022470D01*
X107755719Y-91022470D01*
X107836531Y-91049407D01*
X107917343Y-91130219D01*
X107944280Y-91211032D01*
X107944280Y-91264906D01*
X107917343Y-91345719D01*
X107701844Y-91561218D01*
X108294467Y-90860845D02*
X108213654Y-90887783D01*
X108159780Y-90887783D01*
X108078967Y-90860845D01*
X108052030Y-90833908D01*
X108025093Y-90753096D01*
X108025093Y-90699221D01*
X108052030Y-90618409D01*
X108159780Y-90510659D01*
X108240592Y-90483722D01*
X108294467Y-90483722D01*
X108375279Y-90510659D01*
X108402216Y-90537597D01*
X108429154Y-90618409D01*
X108429154Y-90672284D01*
X108402216Y-90753096D01*
X108294467Y-90860845D01*
X108267529Y-90941658D01*
X108267529Y-90995532D01*
X108294467Y-91076345D01*
X108402216Y-91184094D01*
X108483028Y-91211032D01*
X108536903Y-91211032D01*
X108617715Y-91184094D01*
X108725465Y-91076345D01*
X108752402Y-90995532D01*
X108752402Y-90941658D01*
X108725465Y-90860845D01*
X108617715Y-90753096D01*
X108536903Y-90726158D01*
X108483028Y-90726158D01*
X108402216Y-90753096D01*
X132747722Y-114690592D02*
X132666910Y-114717529D01*
X132586097Y-114798341D01*
X132532223Y-114906091D01*
X132532223Y-115013841D01*
X132559160Y-115094653D01*
X132639972Y-115229340D01*
X132720784Y-115310152D01*
X132855471Y-115390964D01*
X132936284Y-115417902D01*
X133044033Y-115417902D01*
X133151783Y-115364027D01*
X133205658Y-115310152D01*
X133259532Y-115202402D01*
X133259532Y-115148528D01*
X133070971Y-114959966D01*
X132963221Y-115067715D01*
X133555844Y-114959966D02*
X132990158Y-114394280D01*
X133205658Y-114178781D01*
X133286470Y-114151844D01*
X133340345Y-114151844D01*
X133421157Y-114178781D01*
X133501969Y-114259593D01*
X133528906Y-114340406D01*
X133528906Y-114394280D01*
X133501969Y-114475093D01*
X133286470Y-114690592D01*
X134417841Y-114097969D02*
X134094592Y-114421218D01*
X134256216Y-114259593D02*
X133690531Y-113693908D01*
X133717468Y-113828595D01*
X133717468Y-113936345D01*
X133690531Y-114017157D01*
X134337028Y-113047410D02*
X134229279Y-113155160D01*
X134202341Y-113235972D01*
X134202341Y-113289847D01*
X134229279Y-113424534D01*
X134310091Y-113559221D01*
X134525590Y-113774720D01*
X134606402Y-113801658D01*
X134660277Y-113801658D01*
X134741089Y-113774720D01*
X134848839Y-113666971D01*
X134875776Y-113586158D01*
X134875776Y-113532284D01*
X134848839Y-113451471D01*
X134714152Y-113316784D01*
X134633340Y-113289847D01*
X134579465Y-113289847D01*
X134498653Y-113316784D01*
X134390903Y-113424534D01*
X134363966Y-113505346D01*
X134363966Y-113559221D01*
X134390903Y-113640033D01*
X132736158Y-96668155D02*
X132655346Y-96695093D01*
X132574534Y-96775905D01*
X132520659Y-96883654D01*
X132520659Y-96991404D01*
X132547597Y-97072216D01*
X132628409Y-97206903D01*
X132709221Y-97287715D01*
X132843908Y-97368528D01*
X132924720Y-97395465D01*
X133032470Y-97395465D01*
X133140219Y-97341590D01*
X133194094Y-97287715D01*
X133247969Y-97179966D01*
X133247969Y-97126091D01*
X133059407Y-96937529D01*
X132951658Y-97045279D01*
X133544280Y-96937529D02*
X132978595Y-96371844D01*
X133867529Y-96614280D01*
X133301844Y-96048595D01*
X134136903Y-96344906D02*
X133571218Y-95779221D01*
X133705905Y-95644534D01*
X133813654Y-95590659D01*
X133921404Y-95590659D01*
X134002216Y-95617597D01*
X134136903Y-95698409D01*
X134217715Y-95779221D01*
X134298528Y-95913908D01*
X134325465Y-95994720D01*
X134325465Y-96102470D01*
X134271590Y-96210219D01*
X134136903Y-96344906D01*
X107136158Y-83968155D02*
X107055346Y-83995093D01*
X106974534Y-84075905D01*
X106920659Y-84183654D01*
X106920659Y-84291404D01*
X106947597Y-84372216D01*
X107028409Y-84506903D01*
X107109221Y-84587715D01*
X107243908Y-84668528D01*
X107324720Y-84695465D01*
X107432470Y-84695465D01*
X107540219Y-84641590D01*
X107594094Y-84587715D01*
X107647969Y-84479966D01*
X107647969Y-84426091D01*
X107459407Y-84237529D01*
X107351658Y-84345279D01*
X107944280Y-84237529D02*
X107378595Y-83671844D01*
X108267529Y-83914280D01*
X107701844Y-83348595D01*
X108536903Y-83644906D02*
X107971218Y-83079221D01*
X108105905Y-82944534D01*
X108213654Y-82890659D01*
X108321404Y-82890659D01*
X108402216Y-82917597D01*
X108536903Y-82998409D01*
X108617715Y-83079221D01*
X108698528Y-83213908D01*
X108725465Y-83294720D01*
X108725465Y-83402470D01*
X108671590Y-83510219D01*
X108536903Y-83644906D01*
X132747722Y-81416592D02*
X132666910Y-81443529D01*
X132586097Y-81524341D01*
X132532223Y-81632091D01*
X132532223Y-81739841D01*
X132559160Y-81820653D01*
X132639972Y-81955340D01*
X132720784Y-82036152D01*
X132855471Y-82116964D01*
X132936284Y-82143902D01*
X133044033Y-82143902D01*
X133151783Y-82090027D01*
X133205658Y-82036152D01*
X133259532Y-81928402D01*
X133259532Y-81874528D01*
X133070971Y-81685966D01*
X132963221Y-81793715D01*
X133555844Y-81685966D02*
X132990158Y-81120280D01*
X133205658Y-80904781D01*
X133286470Y-80877844D01*
X133340345Y-80877844D01*
X133421157Y-80904781D01*
X133501969Y-80985593D01*
X133528906Y-81066406D01*
X133528906Y-81120280D01*
X133501969Y-81201093D01*
X133286470Y-81416592D01*
X133582781Y-80635407D02*
X133582781Y-80581532D01*
X133609719Y-80500720D01*
X133744406Y-80366033D01*
X133825218Y-80339096D01*
X133879093Y-80339096D01*
X133959905Y-80366033D01*
X134013780Y-80419908D01*
X134067654Y-80527658D01*
X134067654Y-81174155D01*
X134417841Y-80823969D01*
X134417841Y-80177471D02*
X134337028Y-80204409D01*
X134283154Y-80204409D01*
X134202341Y-80177471D01*
X134175404Y-80150534D01*
X134148467Y-80069722D01*
X134148467Y-80015847D01*
X134175404Y-79935035D01*
X134283154Y-79827285D01*
X134363966Y-79800348D01*
X134417841Y-79800348D01*
X134498653Y-79827285D01*
X134525590Y-79854223D01*
X134552528Y-79935035D01*
X134552528Y-79988910D01*
X134525590Y-80069722D01*
X134417841Y-80177471D01*
X134390903Y-80258284D01*
X134390903Y-80312158D01*
X134417841Y-80392971D01*
X134525590Y-80500720D01*
X134606402Y-80527658D01*
X134660277Y-80527658D01*
X134741089Y-80500720D01*
X134848839Y-80392971D01*
X134875776Y-80312158D01*
X134875776Y-80258284D01*
X134848839Y-80177471D01*
X134741089Y-80069722D01*
X134660277Y-80042784D01*
X134606402Y-80042784D01*
X134525590Y-80069722D01*
X107163096Y-94101218D02*
X107082284Y-94128155D01*
X107001471Y-94208967D01*
X106947597Y-94316717D01*
X106947597Y-94424467D01*
X106974534Y-94505279D01*
X107055346Y-94639966D01*
X107136158Y-94720778D01*
X107270845Y-94801590D01*
X107351658Y-94828528D01*
X107459407Y-94828528D01*
X107567157Y-94774653D01*
X107621032Y-94720778D01*
X107674906Y-94613028D01*
X107674906Y-94559154D01*
X107486345Y-94370592D01*
X107378595Y-94478341D01*
X107971218Y-94370592D02*
X107405532Y-93804906D01*
X107621032Y-93589407D01*
X107701844Y-93562470D01*
X107755719Y-93562470D01*
X107836531Y-93589407D01*
X107917343Y-93670219D01*
X107944280Y-93751032D01*
X107944280Y-93804906D01*
X107917343Y-93885719D01*
X107701844Y-94101218D01*
X108563841Y-93777969D02*
X108671590Y-93670219D01*
X108698528Y-93589407D01*
X108698528Y-93535532D01*
X108671590Y-93400845D01*
X108590778Y-93266158D01*
X108375279Y-93050659D01*
X108294467Y-93023722D01*
X108240592Y-93023722D01*
X108159780Y-93050659D01*
X108052030Y-93158409D01*
X108025093Y-93239221D01*
X108025093Y-93293096D01*
X108052030Y-93373908D01*
X108186717Y-93508595D01*
X108267529Y-93535532D01*
X108321404Y-93535532D01*
X108402216Y-93508595D01*
X108509966Y-93400845D01*
X108536903Y-93320033D01*
X108536903Y-93266158D01*
X108509966Y-93185346D01*
X124554761Y-116693809D02*
X124669047Y-116731904D01*
X124859523Y-116731904D01*
X124935714Y-116693809D01*
X124973809Y-116655714D01*
X125011904Y-116579523D01*
X125011904Y-116503333D01*
X124973809Y-116427142D01*
X124935714Y-116389047D01*
X124859523Y-116350952D01*
X124707142Y-116312857D01*
X124630952Y-116274761D01*
X124592857Y-116236666D01*
X124554761Y-116160476D01*
X124554761Y-116084285D01*
X124592857Y-116008095D01*
X124630952Y-115970000D01*
X124707142Y-115931904D01*
X124897619Y-115931904D01*
X125011904Y-115970000D01*
X125278571Y-115931904D02*
X125469047Y-116731904D01*
X125621428Y-116160476D01*
X125773809Y-116731904D01*
X125964285Y-115931904D01*
X126269047Y-116731904D02*
X126269047Y-115931904D01*
X126459523Y-115931904D01*
X126573809Y-115970000D01*
X126650000Y-116046190D01*
X126688095Y-116122380D01*
X126726190Y-116274761D01*
X126726190Y-116389047D01*
X126688095Y-116541428D01*
X126650000Y-116617619D01*
X126573809Y-116693809D01*
X126459523Y-116731904D01*
X126269047Y-116731904D01*
X127069047Y-116731904D02*
X127069047Y-115931904D01*
X127602380Y-115931904D02*
X127754761Y-115931904D01*
X127830952Y-115970000D01*
X127907142Y-116046190D01*
X127945238Y-116198571D01*
X127945238Y-116465238D01*
X127907142Y-116617619D01*
X127830952Y-116693809D01*
X127754761Y-116731904D01*
X127602380Y-116731904D01*
X127526190Y-116693809D01*
X127450000Y-116617619D01*
X127411904Y-116465238D01*
X127411904Y-116198571D01*
X127450000Y-116046190D01*
X127526190Y-115970000D01*
X127602380Y-115931904D01*
X107163096Y-81401218D02*
X107082284Y-81428155D01*
X107001471Y-81508967D01*
X106947597Y-81616717D01*
X106947597Y-81724467D01*
X106974534Y-81805279D01*
X107055346Y-81939966D01*
X107136158Y-82020778D01*
X107270845Y-82101590D01*
X107351658Y-82128528D01*
X107459407Y-82128528D01*
X107567157Y-82074653D01*
X107621032Y-82020778D01*
X107674906Y-81913028D01*
X107674906Y-81859154D01*
X107486345Y-81670592D01*
X107378595Y-81778341D01*
X107971218Y-81670592D02*
X107405532Y-81104906D01*
X107621032Y-80889407D01*
X107701844Y-80862470D01*
X107755719Y-80862470D01*
X107836531Y-80889407D01*
X107917343Y-80970219D01*
X107944280Y-81051032D01*
X107944280Y-81104906D01*
X107917343Y-81185719D01*
X107701844Y-81401218D01*
X108240592Y-80269847D02*
X107971218Y-80539221D01*
X108213654Y-80835532D01*
X108213654Y-80781658D01*
X108240592Y-80700845D01*
X108375279Y-80566158D01*
X108456091Y-80539221D01*
X108509966Y-80539221D01*
X108590778Y-80566158D01*
X108725465Y-80700845D01*
X108752402Y-80781658D01*
X108752402Y-80835532D01*
X108725465Y-80916345D01*
X108590778Y-81051032D01*
X108509966Y-81077969D01*
X108456091Y-81077969D01*
X107163096Y-66161218D02*
X107082284Y-66188155D01*
X107001471Y-66268967D01*
X106947597Y-66376717D01*
X106947597Y-66484467D01*
X106974534Y-66565279D01*
X107055346Y-66699966D01*
X107136158Y-66780778D01*
X107270845Y-66861590D01*
X107351658Y-66888528D01*
X107459407Y-66888528D01*
X107567157Y-66834653D01*
X107621032Y-66780778D01*
X107674906Y-66673028D01*
X107674906Y-66619154D01*
X107486345Y-66430592D01*
X107378595Y-66538341D01*
X107971218Y-66430592D02*
X107405532Y-65864906D01*
X107621032Y-65649407D01*
X107701844Y-65622470D01*
X107755719Y-65622470D01*
X107836531Y-65649407D01*
X107917343Y-65730219D01*
X107944280Y-65811032D01*
X107944280Y-65864906D01*
X107917343Y-65945719D01*
X107701844Y-66161218D01*
X108078967Y-65191471D02*
X108132842Y-65137597D01*
X108213654Y-65110659D01*
X108267529Y-65110659D01*
X108348341Y-65137597D01*
X108483028Y-65218409D01*
X108617715Y-65353096D01*
X108698528Y-65487783D01*
X108725465Y-65568595D01*
X108725465Y-65622470D01*
X108698528Y-65703282D01*
X108644653Y-65757157D01*
X108563841Y-65784094D01*
X108509966Y-65784094D01*
X108429154Y-65757157D01*
X108294467Y-65676345D01*
X108159780Y-65541658D01*
X108078967Y-65406971D01*
X108052030Y-65326158D01*
X108052030Y-65272284D01*
X108078967Y-65191471D01*
X107163096Y-76321218D02*
X107082284Y-76348155D01*
X107001471Y-76428967D01*
X106947597Y-76536717D01*
X106947597Y-76644467D01*
X106974534Y-76725279D01*
X107055346Y-76859966D01*
X107136158Y-76940778D01*
X107270845Y-77021590D01*
X107351658Y-77048528D01*
X107459407Y-77048528D01*
X107567157Y-76994653D01*
X107621032Y-76940778D01*
X107674906Y-76833028D01*
X107674906Y-76779154D01*
X107486345Y-76590592D01*
X107378595Y-76698341D01*
X107971218Y-76590592D02*
X107405532Y-76024906D01*
X107621032Y-75809407D01*
X107701844Y-75782470D01*
X107755719Y-75782470D01*
X107836531Y-75809407D01*
X107917343Y-75890219D01*
X107944280Y-75971032D01*
X107944280Y-76024906D01*
X107917343Y-76105719D01*
X107701844Y-76321218D01*
X107917343Y-75513096D02*
X108267529Y-75162910D01*
X108294467Y-75566971D01*
X108375279Y-75486158D01*
X108456091Y-75459221D01*
X108509966Y-75459221D01*
X108590778Y-75486158D01*
X108725465Y-75620845D01*
X108752402Y-75701658D01*
X108752402Y-75755532D01*
X108725465Y-75836345D01*
X108563841Y-75997969D01*
X108483028Y-76024906D01*
X108429154Y-76024906D01*
X107136158Y-109368155D02*
X107055346Y-109395093D01*
X106974534Y-109475905D01*
X106920659Y-109583654D01*
X106920659Y-109691404D01*
X106947597Y-109772216D01*
X107028409Y-109906903D01*
X107109221Y-109987715D01*
X107243908Y-110068528D01*
X107324720Y-110095465D01*
X107432470Y-110095465D01*
X107540219Y-110041590D01*
X107594094Y-109987715D01*
X107647969Y-109879966D01*
X107647969Y-109826091D01*
X107459407Y-109637529D01*
X107351658Y-109745279D01*
X107944280Y-109637529D02*
X107378595Y-109071844D01*
X108267529Y-109314280D01*
X107701844Y-108748595D01*
X108536903Y-109044906D02*
X107971218Y-108479221D01*
X108105905Y-108344534D01*
X108213654Y-108290659D01*
X108321404Y-108290659D01*
X108402216Y-108317597D01*
X108536903Y-108398409D01*
X108617715Y-108479221D01*
X108698528Y-108613908D01*
X108725465Y-108694720D01*
X108725465Y-108802470D01*
X108671590Y-108910219D01*
X108536903Y-109044906D01*
X107136158Y-71268155D02*
X107055346Y-71295093D01*
X106974534Y-71375905D01*
X106920659Y-71483654D01*
X106920659Y-71591404D01*
X106947597Y-71672216D01*
X107028409Y-71806903D01*
X107109221Y-71887715D01*
X107243908Y-71968528D01*
X107324720Y-71995465D01*
X107432470Y-71995465D01*
X107540219Y-71941590D01*
X107594094Y-71887715D01*
X107647969Y-71779966D01*
X107647969Y-71726091D01*
X107459407Y-71537529D01*
X107351658Y-71645279D01*
X107944280Y-71537529D02*
X107378595Y-70971844D01*
X108267529Y-71214280D01*
X107701844Y-70648595D01*
X108536903Y-70944906D02*
X107971218Y-70379221D01*
X108105905Y-70244534D01*
X108213654Y-70190659D01*
X108321404Y-70190659D01*
X108402216Y-70217597D01*
X108536903Y-70298409D01*
X108617715Y-70379221D01*
X108698528Y-70513908D01*
X108725465Y-70594720D01*
X108725465Y-70702470D01*
X108671590Y-70810219D01*
X108536903Y-70944906D01*
X132747722Y-101990592D02*
X132666910Y-102017529D01*
X132586097Y-102098341D01*
X132532223Y-102206091D01*
X132532223Y-102313841D01*
X132559160Y-102394653D01*
X132639972Y-102529340D01*
X132720784Y-102610152D01*
X132855471Y-102690964D01*
X132936284Y-102717902D01*
X133044033Y-102717902D01*
X133151783Y-102664027D01*
X133205658Y-102610152D01*
X133259532Y-102502402D01*
X133259532Y-102448528D01*
X133070971Y-102259966D01*
X132963221Y-102367715D01*
X133555844Y-102259966D02*
X132990158Y-101694280D01*
X133205658Y-101478781D01*
X133286470Y-101451844D01*
X133340345Y-101451844D01*
X133421157Y-101478781D01*
X133501969Y-101559593D01*
X133528906Y-101640406D01*
X133528906Y-101694280D01*
X133501969Y-101775093D01*
X133286470Y-101990592D01*
X133582781Y-101209407D02*
X133582781Y-101155532D01*
X133609719Y-101074720D01*
X133744406Y-100940033D01*
X133825218Y-100913096D01*
X133879093Y-100913096D01*
X133959905Y-100940033D01*
X134013780Y-100993908D01*
X134067654Y-101101658D01*
X134067654Y-101748155D01*
X134417841Y-101397969D01*
X134202341Y-100482097D02*
X134256216Y-100428223D01*
X134337028Y-100401285D01*
X134390903Y-100401285D01*
X134471715Y-100428223D01*
X134606402Y-100509035D01*
X134741089Y-100643722D01*
X134821902Y-100778409D01*
X134848839Y-100859221D01*
X134848839Y-100913096D01*
X134821902Y-100993908D01*
X134768027Y-101047783D01*
X134687215Y-101074720D01*
X134633340Y-101074720D01*
X134552528Y-101047783D01*
X134417841Y-100966971D01*
X134283154Y-100832284D01*
X134202341Y-100697597D01*
X134175404Y-100616784D01*
X134175404Y-100562910D01*
X134202341Y-100482097D01*
X132747722Y-104530592D02*
X132666910Y-104557529D01*
X132586097Y-104638341D01*
X132532223Y-104746091D01*
X132532223Y-104853841D01*
X132559160Y-104934653D01*
X132639972Y-105069340D01*
X132720784Y-105150152D01*
X132855471Y-105230964D01*
X132936284Y-105257902D01*
X133044033Y-105257902D01*
X133151783Y-105204027D01*
X133205658Y-105150152D01*
X133259532Y-105042402D01*
X133259532Y-104988528D01*
X133070971Y-104799966D01*
X132963221Y-104907715D01*
X133555844Y-104799966D02*
X132990158Y-104234280D01*
X133205658Y-104018781D01*
X133286470Y-103991844D01*
X133340345Y-103991844D01*
X133421157Y-104018781D01*
X133501969Y-104099593D01*
X133528906Y-104180406D01*
X133528906Y-104234280D01*
X133501969Y-104315093D01*
X133286470Y-104530592D01*
X134417841Y-103937969D02*
X134094592Y-104261218D01*
X134256216Y-104099593D02*
X133690531Y-103533908D01*
X133717468Y-103668595D01*
X133717468Y-103776345D01*
X133690531Y-103857157D01*
X134687215Y-103668595D02*
X134794964Y-103560845D01*
X134821902Y-103480033D01*
X134821902Y-103426158D01*
X134794964Y-103291471D01*
X134714152Y-103156784D01*
X134498653Y-102941285D01*
X134417841Y-102914348D01*
X134363966Y-102914348D01*
X134283154Y-102941285D01*
X134175404Y-103049035D01*
X134148467Y-103129847D01*
X134148467Y-103183722D01*
X134175404Y-103264534D01*
X134310091Y-103399221D01*
X134390903Y-103426158D01*
X134444778Y-103426158D01*
X134525590Y-103399221D01*
X134633340Y-103291471D01*
X134660277Y-103210659D01*
X134660277Y-103156784D01*
X134633340Y-103075972D01*
X107063096Y-73781218D02*
X106982284Y-73808155D01*
X106901471Y-73888967D01*
X106847597Y-73996717D01*
X106847597Y-74104467D01*
X106874534Y-74185279D01*
X106955346Y-74319966D01*
X107036158Y-74400778D01*
X107170845Y-74481590D01*
X107251658Y-74508528D01*
X107359407Y-74508528D01*
X107467157Y-74454653D01*
X107521032Y-74400778D01*
X107574906Y-74293028D01*
X107574906Y-74239154D01*
X107386345Y-74050592D01*
X107278595Y-74158341D01*
X107871218Y-74050592D02*
X107305532Y-73484906D01*
X107521032Y-73269407D01*
X107601844Y-73242470D01*
X107655719Y-73242470D01*
X107736531Y-73269407D01*
X107817343Y-73350219D01*
X107844280Y-73431032D01*
X107844280Y-73484906D01*
X107817343Y-73565719D01*
X107601844Y-73781218D01*
X107898155Y-73000033D02*
X107898155Y-72946158D01*
X107925093Y-72865346D01*
X108059780Y-72730659D01*
X108140592Y-72703722D01*
X108194467Y-72703722D01*
X108275279Y-72730659D01*
X108329154Y-72784534D01*
X108383028Y-72892284D01*
X108383028Y-73538781D01*
X108733215Y-73188595D01*
X132747722Y-107070592D02*
X132666910Y-107097529D01*
X132586097Y-107178341D01*
X132532223Y-107286091D01*
X132532223Y-107393841D01*
X132559160Y-107474653D01*
X132639972Y-107609340D01*
X132720784Y-107690152D01*
X132855471Y-107770964D01*
X132936284Y-107797902D01*
X133044033Y-107797902D01*
X133151783Y-107744027D01*
X133205658Y-107690152D01*
X133259532Y-107582402D01*
X133259532Y-107528528D01*
X133070971Y-107339966D01*
X132963221Y-107447715D01*
X133555844Y-107339966D02*
X132990158Y-106774280D01*
X133205658Y-106558781D01*
X133286470Y-106531844D01*
X133340345Y-106531844D01*
X133421157Y-106558781D01*
X133501969Y-106639593D01*
X133528906Y-106720406D01*
X133528906Y-106774280D01*
X133501969Y-106855093D01*
X133286470Y-107070592D01*
X134417841Y-106477969D02*
X134094592Y-106801218D01*
X134256216Y-106639593D02*
X133690531Y-106073908D01*
X133717468Y-106208595D01*
X133717468Y-106316345D01*
X133690531Y-106397157D01*
X134417841Y-105831471D02*
X134337028Y-105858409D01*
X134283154Y-105858409D01*
X134202341Y-105831471D01*
X134175404Y-105804534D01*
X134148467Y-105723722D01*
X134148467Y-105669847D01*
X134175404Y-105589035D01*
X134283154Y-105481285D01*
X134363966Y-105454348D01*
X134417841Y-105454348D01*
X134498653Y-105481285D01*
X134525590Y-105508223D01*
X134552528Y-105589035D01*
X134552528Y-105642910D01*
X134525590Y-105723722D01*
X134417841Y-105831471D01*
X134390903Y-105912284D01*
X134390903Y-105966158D01*
X134417841Y-106046971D01*
X134525590Y-106154720D01*
X134606402Y-106181658D01*
X134660277Y-106181658D01*
X134741089Y-106154720D01*
X134848839Y-106046971D01*
X134875776Y-105966158D01*
X134875776Y-105912284D01*
X134848839Y-105831471D01*
X134741089Y-105723722D01*
X134660277Y-105696784D01*
X134606402Y-105696784D01*
X134525590Y-105723722D01*
X107163096Y-86481218D02*
X107082284Y-86508155D01*
X107001471Y-86588967D01*
X106947597Y-86696717D01*
X106947597Y-86804467D01*
X106974534Y-86885279D01*
X107055346Y-87019966D01*
X107136158Y-87100778D01*
X107270845Y-87181590D01*
X107351658Y-87208528D01*
X107459407Y-87208528D01*
X107567157Y-87154653D01*
X107621032Y-87100778D01*
X107674906Y-86993028D01*
X107674906Y-86939154D01*
X107486345Y-86750592D01*
X107378595Y-86858341D01*
X107971218Y-86750592D02*
X107405532Y-86184906D01*
X107621032Y-85969407D01*
X107701844Y-85942470D01*
X107755719Y-85942470D01*
X107836531Y-85969407D01*
X107917343Y-86050219D01*
X107944280Y-86131032D01*
X107944280Y-86184906D01*
X107917343Y-86265719D01*
X107701844Y-86481218D01*
X108213654Y-85376784D02*
X108105905Y-85484534D01*
X108078967Y-85565346D01*
X108078967Y-85619221D01*
X108105905Y-85753908D01*
X108186717Y-85888595D01*
X108402216Y-86104094D01*
X108483028Y-86131032D01*
X108536903Y-86131032D01*
X108617715Y-86104094D01*
X108725465Y-85996345D01*
X108752402Y-85915532D01*
X108752402Y-85861658D01*
X108725465Y-85780845D01*
X108590778Y-85646158D01*
X108509966Y-85619221D01*
X108456091Y-85619221D01*
X108375279Y-85646158D01*
X108267529Y-85753908D01*
X108240592Y-85834720D01*
X108240592Y-85888595D01*
X108267529Y-85969407D01*
X132747722Y-99460592D02*
X132666910Y-99487529D01*
X132586097Y-99568341D01*
X132532223Y-99676091D01*
X132532223Y-99783841D01*
X132559160Y-99864653D01*
X132639972Y-99999340D01*
X132720784Y-100080152D01*
X132855471Y-100160964D01*
X132936284Y-100187902D01*
X133044033Y-100187902D01*
X133151783Y-100134027D01*
X133205658Y-100080152D01*
X133259532Y-99972402D01*
X133259532Y-99918528D01*
X133070971Y-99729966D01*
X132963221Y-99837715D01*
X133555844Y-99729966D02*
X132990158Y-99164280D01*
X133205658Y-98948781D01*
X133286470Y-98921844D01*
X133340345Y-98921844D01*
X133421157Y-98948781D01*
X133501969Y-99029593D01*
X133528906Y-99110406D01*
X133528906Y-99164280D01*
X133501969Y-99245093D01*
X133286470Y-99460592D01*
X133582781Y-98679407D02*
X133582781Y-98625532D01*
X133609719Y-98544720D01*
X133744406Y-98410033D01*
X133825218Y-98383096D01*
X133879093Y-98383096D01*
X133959905Y-98410033D01*
X134013780Y-98463908D01*
X134067654Y-98571658D01*
X134067654Y-99218155D01*
X134417841Y-98867969D01*
X134956589Y-98329221D02*
X134633340Y-98652470D01*
X134794964Y-98490845D02*
X134229279Y-97925160D01*
X134256216Y-98059847D01*
X134256216Y-98167597D01*
X134229279Y-98248409D01*
X132747722Y-94370592D02*
X132666910Y-94397529D01*
X132586097Y-94478341D01*
X132532223Y-94586091D01*
X132532223Y-94693841D01*
X132559160Y-94774653D01*
X132639972Y-94909340D01*
X132720784Y-94990152D01*
X132855471Y-95070964D01*
X132936284Y-95097902D01*
X133044033Y-95097902D01*
X133151783Y-95044027D01*
X133205658Y-94990152D01*
X133259532Y-94882402D01*
X133259532Y-94828528D01*
X133070971Y-94639966D01*
X132963221Y-94747715D01*
X133555844Y-94639966D02*
X132990158Y-94074280D01*
X133205658Y-93858781D01*
X133286470Y-93831844D01*
X133340345Y-93831844D01*
X133421157Y-93858781D01*
X133501969Y-93939593D01*
X133528906Y-94020406D01*
X133528906Y-94074280D01*
X133501969Y-94155093D01*
X133286470Y-94370592D01*
X133582781Y-93589407D02*
X133582781Y-93535532D01*
X133609719Y-93454720D01*
X133744406Y-93320033D01*
X133825218Y-93293096D01*
X133879093Y-93293096D01*
X133959905Y-93320033D01*
X134013780Y-93373908D01*
X134067654Y-93481658D01*
X134067654Y-94128155D01*
X134417841Y-93777969D01*
X134121529Y-93050659D02*
X134121529Y-92996784D01*
X134148467Y-92915972D01*
X134283154Y-92781285D01*
X134363966Y-92754348D01*
X134417841Y-92754348D01*
X134498653Y-92781285D01*
X134552528Y-92835160D01*
X134606402Y-92942910D01*
X134606402Y-93589407D01*
X134956589Y-93239221D01*
X107136158Y-96668155D02*
X107055346Y-96695093D01*
X106974534Y-96775905D01*
X106920659Y-96883654D01*
X106920659Y-96991404D01*
X106947597Y-97072216D01*
X107028409Y-97206903D01*
X107109221Y-97287715D01*
X107243908Y-97368528D01*
X107324720Y-97395465D01*
X107432470Y-97395465D01*
X107540219Y-97341590D01*
X107594094Y-97287715D01*
X107647969Y-97179966D01*
X107647969Y-97126091D01*
X107459407Y-96937529D01*
X107351658Y-97045279D01*
X107944280Y-96937529D02*
X107378595Y-96371844D01*
X108267529Y-96614280D01*
X107701844Y-96048595D01*
X108536903Y-96344906D02*
X107971218Y-95779221D01*
X108105905Y-95644534D01*
X108213654Y-95590659D01*
X108321404Y-95590659D01*
X108402216Y-95617597D01*
X108536903Y-95698409D01*
X108617715Y-95779221D01*
X108698528Y-95913908D01*
X108725465Y-95994720D01*
X108725465Y-96102470D01*
X108671590Y-96210219D01*
X108536903Y-96344906D01*
X106593722Y-112150592D02*
X106512910Y-112177529D01*
X106432097Y-112258341D01*
X106378223Y-112366091D01*
X106378223Y-112473841D01*
X106405160Y-112554653D01*
X106485972Y-112689340D01*
X106566784Y-112770152D01*
X106701471Y-112850964D01*
X106782284Y-112877902D01*
X106890033Y-112877902D01*
X106997783Y-112824027D01*
X107051658Y-112770152D01*
X107105532Y-112662402D01*
X107105532Y-112608528D01*
X106916971Y-112419966D01*
X106809221Y-112527715D01*
X107401844Y-112419966D02*
X106836158Y-111854280D01*
X107051658Y-111638781D01*
X107132470Y-111611844D01*
X107186345Y-111611844D01*
X107267157Y-111638781D01*
X107347969Y-111719593D01*
X107374906Y-111800406D01*
X107374906Y-111854280D01*
X107347969Y-111935093D01*
X107132470Y-112150592D01*
X108263841Y-111557969D02*
X107940592Y-111881218D01*
X108102216Y-111719593D02*
X107536531Y-111153908D01*
X107563468Y-111288595D01*
X107563468Y-111396345D01*
X107536531Y-111477157D01*
X108371590Y-110695972D02*
X108748714Y-111073096D01*
X108021404Y-110615160D02*
X108290778Y-111153908D01*
X108640964Y-110803722D01*
X132570473Y-69239966D02*
X133324720Y-69617089D01*
X132947597Y-68862842D01*
X133647969Y-69239966D02*
X133755719Y-69186091D01*
X133890406Y-69051404D01*
X133917343Y-68970592D01*
X133917343Y-68916717D01*
X133890406Y-68835905D01*
X133836531Y-68782030D01*
X133755719Y-68755093D01*
X133701844Y-68755093D01*
X133621032Y-68782030D01*
X133486345Y-68862842D01*
X133405532Y-68889780D01*
X133351658Y-68889780D01*
X133270845Y-68862842D01*
X133216971Y-68808967D01*
X133190033Y-68728155D01*
X133190033Y-68674280D01*
X133216971Y-68593468D01*
X133351658Y-68458781D01*
X133459407Y-68404906D01*
X134078967Y-68324094D02*
X134348341Y-68593468D01*
X133594094Y-68216345D02*
X134078967Y-68324094D01*
X133971218Y-67839221D01*
X134671590Y-68216345D02*
X134779340Y-68162470D01*
X134914027Y-68027783D01*
X134940964Y-67946971D01*
X134940964Y-67893096D01*
X134914027Y-67812284D01*
X134860152Y-67758409D01*
X134779340Y-67731471D01*
X134725465Y-67731471D01*
X134644653Y-67758409D01*
X134509966Y-67839221D01*
X134429154Y-67866158D01*
X134375279Y-67866158D01*
X134294467Y-67839221D01*
X134240592Y-67785346D01*
X134213654Y-67704534D01*
X134213654Y-67650659D01*
X134240592Y-67569847D01*
X134375279Y-67435160D01*
X134483028Y-67381285D01*
X106493722Y-104530592D02*
X106412910Y-104557529D01*
X106332097Y-104638341D01*
X106278223Y-104746091D01*
X106278223Y-104853841D01*
X106305160Y-104934653D01*
X106385972Y-105069340D01*
X106466784Y-105150152D01*
X106601471Y-105230964D01*
X106682284Y-105257902D01*
X106790033Y-105257902D01*
X106897783Y-105204027D01*
X106951658Y-105150152D01*
X107005532Y-105042402D01*
X107005532Y-104988528D01*
X106816971Y-104799966D01*
X106709221Y-104907715D01*
X107301844Y-104799966D02*
X106736158Y-104234280D01*
X106951658Y-104018781D01*
X107032470Y-103991844D01*
X107086345Y-103991844D01*
X107167157Y-104018781D01*
X107247969Y-104099593D01*
X107274906Y-104180406D01*
X107274906Y-104234280D01*
X107247969Y-104315093D01*
X107032470Y-104530592D01*
X108163841Y-103937969D02*
X107840592Y-104261218D01*
X108002216Y-104099593D02*
X107436531Y-103533908D01*
X107463468Y-103668595D01*
X107463468Y-103776345D01*
X107436531Y-103857157D01*
X107867529Y-103210659D02*
X107867529Y-103156784D01*
X107894467Y-103075972D01*
X108029154Y-102941285D01*
X108109966Y-102914348D01*
X108163841Y-102914348D01*
X108244653Y-102941285D01*
X108298528Y-102995160D01*
X108352402Y-103102910D01*
X108352402Y-103749407D01*
X108702589Y-103399221D01*
X107063096Y-68691218D02*
X106982284Y-68718155D01*
X106901471Y-68798967D01*
X106847597Y-68906717D01*
X106847597Y-69014467D01*
X106874534Y-69095279D01*
X106955346Y-69229966D01*
X107036158Y-69310778D01*
X107170845Y-69391590D01*
X107251658Y-69418528D01*
X107359407Y-69418528D01*
X107467157Y-69364653D01*
X107521032Y-69310778D01*
X107574906Y-69203028D01*
X107574906Y-69149154D01*
X107386345Y-68960592D01*
X107278595Y-69068341D01*
X107871218Y-68960592D02*
X107305532Y-68394906D01*
X107521032Y-68179407D01*
X107601844Y-68152470D01*
X107655719Y-68152470D01*
X107736531Y-68179407D01*
X107817343Y-68260219D01*
X107844280Y-68341032D01*
X107844280Y-68394906D01*
X107817343Y-68475719D01*
X107601844Y-68691218D01*
X108733215Y-68098595D02*
X108409966Y-68421844D01*
X108571590Y-68260219D02*
X108005905Y-67694534D01*
X108032842Y-67829221D01*
X108032842Y-67936971D01*
X108005905Y-68017783D01*
X106639722Y-99450592D02*
X106558910Y-99477529D01*
X106478097Y-99558341D01*
X106424223Y-99666091D01*
X106424223Y-99773841D01*
X106451160Y-99854653D01*
X106531972Y-99989340D01*
X106612784Y-100070152D01*
X106747471Y-100150964D01*
X106828284Y-100177902D01*
X106936033Y-100177902D01*
X107043783Y-100124027D01*
X107097658Y-100070152D01*
X107151532Y-99962402D01*
X107151532Y-99908528D01*
X106962971Y-99719966D01*
X106855221Y-99827715D01*
X107447844Y-99719966D02*
X106882158Y-99154280D01*
X107097658Y-98938781D01*
X107178470Y-98911844D01*
X107232345Y-98911844D01*
X107313157Y-98938781D01*
X107393969Y-99019593D01*
X107420906Y-99100406D01*
X107420906Y-99154280D01*
X107393969Y-99235093D01*
X107178470Y-99450592D01*
X108309841Y-98857969D02*
X107986592Y-99181218D01*
X108148216Y-99019593D02*
X107582531Y-98453908D01*
X107609468Y-98588595D01*
X107609468Y-98696345D01*
X107582531Y-98777157D01*
X108094341Y-97942097D02*
X108148216Y-97888223D01*
X108229028Y-97861285D01*
X108282903Y-97861285D01*
X108363715Y-97888223D01*
X108498402Y-97969035D01*
X108633089Y-98103722D01*
X108713902Y-98238409D01*
X108740839Y-98319221D01*
X108740839Y-98373096D01*
X108713902Y-98453908D01*
X108660027Y-98507783D01*
X108579215Y-98534720D01*
X108525340Y-98534720D01*
X108444528Y-98507783D01*
X108309841Y-98426971D01*
X108175154Y-98292284D01*
X108094341Y-98157597D01*
X108067404Y-98076784D01*
X108067404Y-98022910D01*
X108094341Y-97942097D01*
X133488375Y-92113435D02*
X133030439Y-92032622D01*
X133165126Y-92436683D02*
X132599441Y-91870998D01*
X132814940Y-91655499D01*
X132895752Y-91628561D01*
X132949627Y-91628561D01*
X133030439Y-91655499D01*
X133111251Y-91736311D01*
X133138189Y-91817123D01*
X133138189Y-91870998D01*
X133111251Y-91951810D01*
X132895752Y-92167309D01*
X133165126Y-91305312D02*
X133623062Y-91763248D01*
X133703874Y-91790186D01*
X133757749Y-91790186D01*
X133838561Y-91763248D01*
X133946311Y-91655499D01*
X133973248Y-91574687D01*
X133973248Y-91520812D01*
X133946311Y-91440000D01*
X133488375Y-90982064D01*
X134323435Y-91278375D02*
X133757749Y-90712690D01*
X134646683Y-90955126D01*
X134080998Y-90389441D01*
X132747722Y-86760592D02*
X132666910Y-86787529D01*
X132586097Y-86868341D01*
X132532223Y-86976091D01*
X132532223Y-87083841D01*
X132559160Y-87164653D01*
X132639972Y-87299340D01*
X132720784Y-87380152D01*
X132855471Y-87460964D01*
X132936284Y-87487902D01*
X133044033Y-87487902D01*
X133151783Y-87434027D01*
X133205658Y-87380152D01*
X133259532Y-87272402D01*
X133259532Y-87218528D01*
X133070971Y-87029966D01*
X132963221Y-87137715D01*
X133555844Y-87029966D02*
X132990158Y-86464280D01*
X133205658Y-86248781D01*
X133286470Y-86221844D01*
X133340345Y-86221844D01*
X133421157Y-86248781D01*
X133501969Y-86329593D01*
X133528906Y-86410406D01*
X133528906Y-86464280D01*
X133501969Y-86545093D01*
X133286470Y-86760592D01*
X133582781Y-85979407D02*
X133582781Y-85925532D01*
X133609719Y-85844720D01*
X133744406Y-85710033D01*
X133825218Y-85683096D01*
X133879093Y-85683096D01*
X133959905Y-85710033D01*
X134013780Y-85763908D01*
X134067654Y-85871658D01*
X134067654Y-86518155D01*
X134417841Y-86167969D01*
X134040717Y-85413722D02*
X134417841Y-85036598D01*
X134741089Y-85844720D01*
%TO.C,U1*%
X118618095Y-133437380D02*
X118618095Y-134246904D01*
X118665714Y-134342142D01*
X118713333Y-134389761D01*
X118808571Y-134437380D01*
X118999047Y-134437380D01*
X119094285Y-134389761D01*
X119141904Y-134342142D01*
X119189523Y-134246904D01*
X119189523Y-133437380D01*
X120189523Y-134437380D02*
X119618095Y-134437380D01*
X119903809Y-134437380D02*
X119903809Y-133437380D01*
X119808571Y-133580238D01*
X119713333Y-133675476D01*
X119618095Y-133723095D01*
D11*
%TO.C,U2*%
X131150000Y-95070000D02*
X131150000Y-95470000D01*
X110150000Y-67070000D02*
X110150000Y-67470000D01*
X110150000Y-69670000D02*
X110150000Y-70070000D01*
X131150000Y-100170000D02*
X131150000Y-100570000D01*
X116950000Y-115670000D02*
X110150000Y-115670000D01*
X131150000Y-89970000D02*
X131150000Y-90370000D01*
X131150000Y-112870000D02*
X131150000Y-113270000D01*
X131150000Y-67070000D02*
X131150000Y-67470000D01*
X113157000Y-67337000D02*
X113157000Y-64670000D01*
X131150000Y-84870000D02*
X131150000Y-85270000D01*
X110150000Y-64670000D02*
X131150000Y-64670000D01*
X110150000Y-110270000D02*
X110150000Y-110670000D01*
X110150000Y-87470000D02*
X110150000Y-87870000D01*
X110150000Y-112870000D02*
X110150000Y-113270000D01*
X110150000Y-74770000D02*
X110150000Y-75170000D01*
X110150000Y-84870000D02*
X110150000Y-85270000D01*
X131150000Y-87470000D02*
X131150000Y-87870000D01*
X131150000Y-115670000D02*
X124350000Y-115670000D01*
X131150000Y-74770000D02*
X131150000Y-75170000D01*
X110150000Y-97570000D02*
X110150000Y-97970000D01*
X110150000Y-67337000D02*
X113157000Y-67337000D01*
X110150000Y-82370000D02*
X110150000Y-82770000D01*
X110150000Y-95070000D02*
X110150000Y-95470000D01*
X119150000Y-115670000D02*
X119550000Y-115670000D01*
X110150000Y-77270000D02*
X110150000Y-77670000D01*
X131150000Y-69670000D02*
X131150000Y-70070000D01*
X110150000Y-105270000D02*
X110150000Y-105670000D01*
X121750000Y-115670000D02*
X122150000Y-115670000D01*
X131150000Y-77270000D02*
X131150000Y-77670000D01*
X110150000Y-100170000D02*
X110150000Y-100570000D01*
X131150000Y-92470000D02*
X131150000Y-92870000D01*
X110150000Y-79770000D02*
X110150000Y-80170000D01*
X110150000Y-89970000D02*
X110150000Y-90370000D01*
X110150000Y-107770000D02*
X110150000Y-108170000D01*
X110150000Y-102670000D02*
X110150000Y-103070000D01*
X131150000Y-97570000D02*
X131150000Y-97970000D01*
X131150000Y-79770000D02*
X131150000Y-80170000D01*
X131150000Y-107770000D02*
X131150000Y-108170000D01*
X131150000Y-82370000D02*
X131150000Y-82770000D01*
X110150000Y-64670000D02*
X110150000Y-64970000D01*
X131150000Y-110270000D02*
X131150000Y-110670000D01*
X131150000Y-102670000D02*
X131150000Y-103070000D01*
X131150000Y-72170000D02*
X131150000Y-72570000D01*
X110150000Y-92470000D02*
X110150000Y-92870000D01*
X131150000Y-64670000D02*
X131150000Y-64970000D01*
X110150000Y-72170000D02*
X110150000Y-72570000D01*
X131150000Y-105270000D02*
X131150000Y-105670000D01*
%TO.C,U1*%
X135485000Y-117010000D02*
X107085000Y-117010000D01*
X107085000Y-136990000D02*
X116551667Y-136990000D01*
D10*
X129155000Y-134920000D02*
X129155000Y-135670000D01*
D11*
X116551667Y-136990000D02*
X116551667Y-136630000D01*
D10*
X129155000Y-135670000D02*
X112655000Y-135670000D01*
X129155000Y-118170000D02*
X112655000Y-118170000D01*
X112655000Y-135670000D02*
X112655000Y-134920000D01*
D11*
X126018333Y-136630000D02*
X126018333Y-136990000D01*
X135485000Y-136990000D02*
X135485000Y-117010000D01*
D10*
X112655000Y-118170000D02*
X112655000Y-118920000D01*
D11*
X107085000Y-117010000D02*
X107085000Y-136990000D01*
D10*
X129155000Y-118920000D02*
X129155000Y-118170000D01*
D11*
X126018333Y-136990000D02*
X135485000Y-136990000D01*
X116551667Y-136630000D02*
X126018333Y-136630000D01*
%TD*%
M02*
