%TF.GenerationSoftware,KiCad,Pcbnew,6.0.2+dfsg-1*%
%TF.CreationDate,2022-09-03T15:09:50+02:00*%
%TF.ProjectId,LoRa_thing,4c6f5261-5f74-4686-996e-672e6b696361,rev?*%
%TF.SameCoordinates,Original*%
%TF.FileFunction,Copper,L2,Bot*%
%TF.FilePolarity,Positive*%
%FSLAX46Y46*%
G04 Gerber Fmt 4.6, Leading zero omitted, Abs format (unit mm)*
G04 Created by KiCad (PCBNEW 6.0.2+dfsg-1) date 2022-09-03 15:09:50*
%MOMM*%
%LPD*%
G01*
G04 APERTURE LIST*
%TA.AperFunction,ComponentPad*%
%ADD10O,1.700000X1.700000*%
%TD*%
%TA.AperFunction,ComponentPad*%
%ADD11R,1.700000X1.700000*%
%TD*%
%TA.AperFunction,ComponentPad*%
%ADD12O,2.000000X1.200000*%
%TD*%
%TA.AperFunction,ViaPad*%
%ADD13C,0.800000*%
%TD*%
G04 APERTURE END LIST*
D10*
%TO.P,U2,1,GPIO0*%
%TO.N,unconnected-(U2-Pad1)*%
X111760000Y-66040000D03*
%TO.P,U2,2,GPIO1*%
%TO.N,unconnected-(U2-Pad2)*%
X111760000Y-68580000D03*
D11*
%TO.P,U2,3,GND*%
%TO.N,GND*%
X111760000Y-71120000D03*
D10*
%TO.P,U2,4,GPIO2*%
%TO.N,unconnected-(U2-Pad4)*%
X111760000Y-73660000D03*
%TO.P,U2,5,GPIO3*%
%TO.N,unconnected-(U2-Pad5)*%
X111760000Y-76200000D03*
%TO.P,U2,6,GPIO4*%
%TO.N,unconnected-(U2-Pad6)*%
X111760000Y-78740000D03*
%TO.P,U2,7,GPIO5*%
%TO.N,unconnected-(U2-Pad7)*%
X111760000Y-81280000D03*
D11*
%TO.P,U2,8,GND*%
%TO.N,GND*%
X111760000Y-83820000D03*
D10*
%TO.P,U2,9,GPIO6*%
%TO.N,unconnected-(U2-Pad9)*%
X111760000Y-86360000D03*
%TO.P,U2,10,GPIO7*%
%TO.N,Net-(U1-Pad4)*%
X111760000Y-88900000D03*
%TO.P,U2,11,SPI1 RX*%
%TO.N,Net-(U1-Pad13)*%
X111760000Y-91440000D03*
%TO.P,U2,12,SPI1 CSn*%
%TO.N,Net-(U1-Pad15)*%
X111760000Y-93980000D03*
D11*
%TO.P,U2,13,GND*%
%TO.N,GND*%
X111760000Y-96520000D03*
D10*
%TO.P,U2,14,SPI1 SCK*%
%TO.N,Net-(U1-Pad12)*%
X111760000Y-99060000D03*
%TO.P,U2,15,SPI1 TX*%
%TO.N,Net-(U1-Pad14)*%
X111760000Y-101600000D03*
%TO.P,U2,16,GPIO12*%
%TO.N,unconnected-(U2-Pad16)*%
X111760000Y-104140000D03*
%TO.P,U2,17,GPIO13*%
%TO.N,unconnected-(U2-Pad17)*%
X111760000Y-106680000D03*
D11*
%TO.P,U2,18,GND*%
%TO.N,GND*%
X111760000Y-109220000D03*
D10*
%TO.P,U2,19,GPIO14*%
%TO.N,unconnected-(U2-Pad19)*%
X111760000Y-111760000D03*
%TO.P,U2,20,GPIO15*%
%TO.N,unconnected-(U2-Pad20)*%
X111760000Y-114300000D03*
%TO.P,U2,21,GPIO16*%
%TO.N,unconnected-(U2-Pad21)*%
X129540000Y-114300000D03*
%TO.P,U2,22,GPIO17*%
%TO.N,unconnected-(U2-Pad22)*%
X129540000Y-111760000D03*
D11*
%TO.P,U2,23,GND*%
%TO.N,GND*%
X129540000Y-109220000D03*
D10*
%TO.P,U2,24,GPIO18*%
%TO.N,unconnected-(U2-Pad24)*%
X129540000Y-106680000D03*
%TO.P,U2,25,GPIO19*%
%TO.N,unconnected-(U2-Pad25)*%
X129540000Y-104140000D03*
%TO.P,U2,26,GPIO20*%
%TO.N,unconnected-(U2-Pad26)*%
X129540000Y-101600000D03*
%TO.P,U2,27,GPIO21*%
%TO.N,unconnected-(U2-Pad27)*%
X129540000Y-99060000D03*
D11*
%TO.P,U2,28,GND*%
%TO.N,GND*%
X129540000Y-96520000D03*
D10*
%TO.P,U2,29,GPIO22*%
%TO.N,unconnected-(U2-Pad29)*%
X129540000Y-93980000D03*
%TO.P,U2,30,RUN*%
%TO.N,unconnected-(U2-Pad30)*%
X129540000Y-91440000D03*
%TO.P,U2,31,GPIO26_ADC0*%
%TO.N,unconnected-(U2-Pad31)*%
X129540000Y-88900000D03*
%TO.P,U2,32,GPIO27_ADC1*%
%TO.N,unconnected-(U2-Pad32)*%
X129540000Y-86360000D03*
D11*
%TO.P,U2,33,AGND*%
%TO.N,unconnected-(U2-Pad33)*%
X129540000Y-83820000D03*
D10*
%TO.P,U2,34,GPIO28_ADC2*%
%TO.N,unconnected-(U2-Pad34)*%
X129540000Y-81280000D03*
%TO.P,U2,35,ADC_VREF*%
%TO.N,unconnected-(U2-Pad35)*%
X129540000Y-78740000D03*
%TO.P,U2,36,3V3*%
%TO.N,Net-(U1-Pad3)*%
X129540000Y-76200000D03*
%TO.P,U2,37,3V3_EN*%
%TO.N,unconnected-(U2-Pad37)*%
X129540000Y-73660000D03*
D11*
%TO.P,U2,38,GND*%
%TO.N,GND*%
X129540000Y-71120000D03*
D10*
%TO.P,U2,39,VSYS*%
%TO.N,unconnected-(U2-Pad39)*%
X129540000Y-68580000D03*
%TO.P,U2,40,VBUS*%
%TO.N,unconnected-(U2-Pad40)*%
X129540000Y-66040000D03*
%TO.P,U2,41,SWCLK*%
%TO.N,unconnected-(U2-Pad41)*%
X118110000Y-114070000D03*
D11*
%TO.P,U2,42,GND*%
%TO.N,unconnected-(U2-Pad42)*%
X120650000Y-114070000D03*
D10*
%TO.P,U2,43,SWDIO*%
%TO.N,unconnected-(U2-Pad43)*%
X123190000Y-114070000D03*
%TD*%
D12*
%TO.P,U1,1,GND*%
%TO.N,GND*%
X133985000Y-135890000D03*
%TO.P,U1,2,GND*%
X133985000Y-133350000D03*
%TO.P,U1,3,VDD*%
%TO.N,Net-(U1-Pad3)*%
X133985000Y-130810000D03*
%TO.P,U1,4,~{RESET}*%
%TO.N,Net-(U1-Pad4)*%
X133985000Y-128270000D03*
%TO.P,U1,5,DIO0*%
%TO.N,unconnected-(U1-Pad5)*%
X133985000Y-125730000D03*
%TO.P,U1,6,DIO1*%
%TO.N,unconnected-(U1-Pad6)*%
X133985000Y-123190000D03*
%TO.P,U1,7,DIO2*%
%TO.N,unconnected-(U1-Pad7)*%
X133985000Y-120650000D03*
%TO.P,U1,8,DIO3*%
%TO.N,unconnected-(U1-Pad8)*%
X133985000Y-118110000D03*
%TO.P,U1,9,GND*%
%TO.N,GND*%
X108585000Y-118110000D03*
%TO.P,U1,10,DIO4*%
%TO.N,unconnected-(U1-Pad10)*%
X108585000Y-120650000D03*
%TO.P,U1,11,DIO5*%
%TO.N,unconnected-(U1-Pad11)*%
X108585000Y-123190000D03*
%TO.P,U1,12,SCK*%
%TO.N,Net-(U1-Pad12)*%
X108585000Y-125730000D03*
%TO.P,U1,13,MISO*%
%TO.N,Net-(U1-Pad13)*%
X108585000Y-128270000D03*
%TO.P,U1,14,MOSI*%
%TO.N,Net-(U1-Pad14)*%
X108585000Y-130810000D03*
%TO.P,U1,15,~{NSS}*%
%TO.N,Net-(U1-Pad15)*%
X108585000Y-133350000D03*
%TO.P,U1,16,GND*%
%TO.N,GND*%
X108585000Y-135890000D03*
%TD*%
D13*
%TO.N,GND*%
X123825000Y-129540000D03*
X118745000Y-129540000D03*
X118745000Y-126365000D03*
X123825000Y-126365000D03*
%TD*%
%TA.AperFunction,Conductor*%
%TO.N,GND*%
G36*
X110879232Y-64790002D02*
G01*
X110925725Y-64843658D01*
X110935829Y-64913932D01*
X110906335Y-64978512D01*
X110886766Y-64996758D01*
X110854965Y-65020635D01*
X110700629Y-65182138D01*
X110697715Y-65186410D01*
X110697714Y-65186411D01*
X110617611Y-65303838D01*
X110574743Y-65366680D01*
X110480688Y-65569305D01*
X110420989Y-65784570D01*
X110397251Y-66006695D01*
X110397548Y-66011848D01*
X110397548Y-66011851D01*
X110406667Y-66170000D01*
X110410110Y-66229715D01*
X110411247Y-66234761D01*
X110411248Y-66234767D01*
X110412959Y-66242359D01*
X110459222Y-66447639D01*
X110543266Y-66654616D01*
X110659987Y-66845088D01*
X110806250Y-67013938D01*
X110978126Y-67156632D01*
X111011060Y-67175877D01*
X111051445Y-67199476D01*
X111100169Y-67251114D01*
X111113240Y-67320897D01*
X111086509Y-67386669D01*
X111046055Y-67420027D01*
X111033607Y-67426507D01*
X111029474Y-67429610D01*
X111029471Y-67429612D01*
X110899484Y-67527209D01*
X110854965Y-67560635D01*
X110700629Y-67722138D01*
X110574743Y-67906680D01*
X110527715Y-68007993D01*
X110483328Y-68103618D01*
X110480688Y-68109305D01*
X110420989Y-68324570D01*
X110397251Y-68546695D01*
X110397548Y-68551848D01*
X110397548Y-68551851D01*
X110403011Y-68646590D01*
X110410110Y-68769715D01*
X110411247Y-68774761D01*
X110411248Y-68774767D01*
X110431119Y-68862939D01*
X110459222Y-68987639D01*
X110543266Y-69194616D01*
X110659987Y-69385088D01*
X110806250Y-69553938D01*
X110810225Y-69557238D01*
X110810231Y-69557244D01*
X110815425Y-69561556D01*
X110855059Y-69620460D01*
X110856555Y-69691441D01*
X110819439Y-69751962D01*
X110779168Y-69776480D01*
X110671946Y-69816676D01*
X110656351Y-69825214D01*
X110554276Y-69901715D01*
X110541715Y-69914276D01*
X110465214Y-70016351D01*
X110456676Y-70031946D01*
X110411522Y-70152394D01*
X110407895Y-70167649D01*
X110402369Y-70218514D01*
X110402000Y-70225328D01*
X110402000Y-70847885D01*
X110406475Y-70863124D01*
X110407865Y-70864329D01*
X110415548Y-70866000D01*
X113099884Y-70866000D01*
X113115123Y-70861525D01*
X113116328Y-70860135D01*
X113117999Y-70852452D01*
X113117999Y-70225331D01*
X113117629Y-70218510D01*
X113112105Y-70167648D01*
X113108479Y-70152396D01*
X113063324Y-70031946D01*
X113054786Y-70016351D01*
X112978285Y-69914276D01*
X112965724Y-69901715D01*
X112863649Y-69825214D01*
X112848054Y-69816676D01*
X112737813Y-69775348D01*
X112681049Y-69732706D01*
X112656349Y-69666145D01*
X112671557Y-69596796D01*
X112693104Y-69568115D01*
X112794430Y-69467144D01*
X112794440Y-69467132D01*
X112798096Y-69463489D01*
X112833734Y-69413894D01*
X112925435Y-69286277D01*
X112928453Y-69282077D01*
X112969018Y-69200000D01*
X116961693Y-69200000D01*
X116980885Y-69419371D01*
X117037880Y-69632076D01*
X117040205Y-69637061D01*
X117128618Y-69826666D01*
X117128621Y-69826671D01*
X117130944Y-69831653D01*
X117257251Y-70012038D01*
X117412962Y-70167749D01*
X117593346Y-70294056D01*
X117792924Y-70387120D01*
X118005629Y-70444115D01*
X118225000Y-70463307D01*
X118444371Y-70444115D01*
X118657076Y-70387120D01*
X118856654Y-70294056D01*
X119037038Y-70167749D01*
X119192749Y-70012038D01*
X119319056Y-69831653D01*
X119321379Y-69826671D01*
X119321382Y-69826666D01*
X119409795Y-69637061D01*
X119412120Y-69632076D01*
X119469115Y-69419371D01*
X119488307Y-69200000D01*
X121811693Y-69200000D01*
X121830885Y-69419371D01*
X121887880Y-69632076D01*
X121890205Y-69637061D01*
X121978618Y-69826666D01*
X121978621Y-69826671D01*
X121980944Y-69831653D01*
X122107251Y-70012038D01*
X122262962Y-70167749D01*
X122443346Y-70294056D01*
X122642924Y-70387120D01*
X122855629Y-70444115D01*
X123075000Y-70463307D01*
X123294371Y-70444115D01*
X123507076Y-70387120D01*
X123706654Y-70294056D01*
X123887038Y-70167749D01*
X124042749Y-70012038D01*
X124169056Y-69831653D01*
X124171379Y-69826671D01*
X124171382Y-69826666D01*
X124259795Y-69637061D01*
X124262120Y-69632076D01*
X124319115Y-69419371D01*
X124338307Y-69200000D01*
X124319115Y-68980629D01*
X124262120Y-68767924D01*
X124218585Y-68674562D01*
X124171382Y-68573334D01*
X124171379Y-68573329D01*
X124169056Y-68568347D01*
X124165899Y-68563838D01*
X124045908Y-68392473D01*
X124045906Y-68392470D01*
X124042749Y-68387962D01*
X123887038Y-68232251D01*
X123706654Y-68105944D01*
X123507076Y-68012880D01*
X123294371Y-67955885D01*
X123075000Y-67936693D01*
X122855629Y-67955885D01*
X122642924Y-68012880D01*
X122549562Y-68056415D01*
X122448334Y-68103618D01*
X122448329Y-68103621D01*
X122443347Y-68105944D01*
X122438840Y-68109100D01*
X122438838Y-68109101D01*
X122267473Y-68229092D01*
X122267470Y-68229094D01*
X122262962Y-68232251D01*
X122107251Y-68387962D01*
X122104094Y-68392470D01*
X122104092Y-68392473D01*
X121984101Y-68563838D01*
X121980944Y-68568347D01*
X121978621Y-68573329D01*
X121978618Y-68573334D01*
X121931415Y-68674562D01*
X121887880Y-68767924D01*
X121830885Y-68980629D01*
X121811693Y-69200000D01*
X119488307Y-69200000D01*
X119469115Y-68980629D01*
X119412120Y-68767924D01*
X119368585Y-68674562D01*
X119321382Y-68573334D01*
X119321379Y-68573329D01*
X119319056Y-68568347D01*
X119315899Y-68563838D01*
X119195908Y-68392473D01*
X119195906Y-68392470D01*
X119192749Y-68387962D01*
X119037038Y-68232251D01*
X118856654Y-68105944D01*
X118657076Y-68012880D01*
X118444371Y-67955885D01*
X118225000Y-67936693D01*
X118005629Y-67955885D01*
X117792924Y-68012880D01*
X117699562Y-68056415D01*
X117598334Y-68103618D01*
X117598329Y-68103621D01*
X117593347Y-68105944D01*
X117588840Y-68109100D01*
X117588838Y-68109101D01*
X117417473Y-68229092D01*
X117417470Y-68229094D01*
X117412962Y-68232251D01*
X117257251Y-68387962D01*
X117254094Y-68392470D01*
X117254092Y-68392473D01*
X117134101Y-68563838D01*
X117130944Y-68568347D01*
X117128621Y-68573329D01*
X117128618Y-68573334D01*
X117081415Y-68674562D01*
X117037880Y-68767924D01*
X116980885Y-68980629D01*
X116961693Y-69200000D01*
X112969018Y-69200000D01*
X113027430Y-69081811D01*
X113092370Y-68868069D01*
X113121529Y-68646590D01*
X113123156Y-68580000D01*
X113104852Y-68357361D01*
X113050431Y-68140702D01*
X112961354Y-67935840D01*
X112840014Y-67748277D01*
X112689670Y-67583051D01*
X112685619Y-67579852D01*
X112685615Y-67579848D01*
X112518414Y-67447800D01*
X112518410Y-67447798D01*
X112514359Y-67444598D01*
X112473053Y-67421796D01*
X112423084Y-67371364D01*
X112408312Y-67301921D01*
X112433428Y-67235516D01*
X112460780Y-67208909D01*
X112507089Y-67175877D01*
X112639860Y-67081173D01*
X112798096Y-66923489D01*
X112857594Y-66840689D01*
X112925435Y-66746277D01*
X112928453Y-66742077D01*
X112951759Y-66694922D01*
X113025136Y-66546453D01*
X113025137Y-66546451D01*
X113027430Y-66541811D01*
X113092370Y-66328069D01*
X113121529Y-66106590D01*
X113123156Y-66040000D01*
X113104852Y-65817361D01*
X113050431Y-65600702D01*
X112961354Y-65395840D01*
X112840014Y-65208277D01*
X112689670Y-65043051D01*
X112628677Y-64994881D01*
X112587615Y-64936964D01*
X112584383Y-64866041D01*
X112620009Y-64804630D01*
X112683180Y-64772228D01*
X112706770Y-64770000D01*
X117065975Y-64770000D01*
X117134096Y-64790002D01*
X117180589Y-64843658D01*
X117190693Y-64913932D01*
X117161199Y-64978512D01*
X117141629Y-64996759D01*
X116986655Y-65113117D01*
X116983083Y-65116855D01*
X116899369Y-65204457D01*
X116826639Y-65280564D01*
X116823725Y-65284836D01*
X116823724Y-65284837D01*
X116767895Y-65366680D01*
X116696119Y-65471899D01*
X116598602Y-65681981D01*
X116536707Y-65905169D01*
X116512095Y-66135469D01*
X116512392Y-66140622D01*
X116512392Y-66140625D01*
X116518067Y-66239041D01*
X116525427Y-66366697D01*
X116526564Y-66371743D01*
X116526565Y-66371749D01*
X116558741Y-66514523D01*
X116576346Y-66592642D01*
X116578288Y-66597424D01*
X116578289Y-66597428D01*
X116661540Y-66802450D01*
X116663484Y-66807237D01*
X116784501Y-67004719D01*
X116936147Y-67179784D01*
X117114349Y-67327730D01*
X117314322Y-67444584D01*
X117530694Y-67527209D01*
X117535760Y-67528240D01*
X117535761Y-67528240D01*
X117588846Y-67539040D01*
X117757656Y-67573385D01*
X117888324Y-67578176D01*
X117983949Y-67581683D01*
X117983953Y-67581683D01*
X117989113Y-67581872D01*
X117994233Y-67581216D01*
X117994235Y-67581216D01*
X118067270Y-67571860D01*
X118218847Y-67552442D01*
X118223795Y-67550957D01*
X118223802Y-67550956D01*
X118435747Y-67487369D01*
X118440690Y-67485886D01*
X118445324Y-67483616D01*
X118644049Y-67386262D01*
X118644052Y-67386260D01*
X118648684Y-67383991D01*
X118837243Y-67249494D01*
X119001303Y-67086005D01*
X119136458Y-66897917D01*
X119183641Y-66802450D01*
X119236784Y-66694922D01*
X119236785Y-66694920D01*
X119239078Y-66690280D01*
X119306408Y-66468671D01*
X119336640Y-66239041D01*
X119336722Y-66235691D01*
X119338245Y-66173365D01*
X119338245Y-66173361D01*
X119338327Y-66170000D01*
X119324479Y-66001562D01*
X119319773Y-65944318D01*
X119319772Y-65944312D01*
X119319349Y-65939167D01*
X119262925Y-65714533D01*
X119260866Y-65709797D01*
X119172630Y-65506868D01*
X119172628Y-65506865D01*
X119170570Y-65502131D01*
X119044764Y-65307665D01*
X118888887Y-65136358D01*
X118884836Y-65133159D01*
X118884832Y-65133155D01*
X118709747Y-64994882D01*
X118668684Y-64936965D01*
X118665452Y-64866042D01*
X118701077Y-64804630D01*
X118764248Y-64772228D01*
X118787839Y-64770000D01*
X122515975Y-64770000D01*
X122584096Y-64790002D01*
X122630589Y-64843658D01*
X122640693Y-64913932D01*
X122611199Y-64978512D01*
X122591629Y-64996759D01*
X122436655Y-65113117D01*
X122433083Y-65116855D01*
X122349369Y-65204457D01*
X122276639Y-65280564D01*
X122273725Y-65284836D01*
X122273724Y-65284837D01*
X122217895Y-65366680D01*
X122146119Y-65471899D01*
X122048602Y-65681981D01*
X121986707Y-65905169D01*
X121962095Y-66135469D01*
X121962392Y-66140622D01*
X121962392Y-66140625D01*
X121968067Y-66239041D01*
X121975427Y-66366697D01*
X121976564Y-66371743D01*
X121976565Y-66371749D01*
X122008741Y-66514523D01*
X122026346Y-66592642D01*
X122028288Y-66597424D01*
X122028289Y-66597428D01*
X122111540Y-66802450D01*
X122113484Y-66807237D01*
X122234501Y-67004719D01*
X122386147Y-67179784D01*
X122564349Y-67327730D01*
X122764322Y-67444584D01*
X122980694Y-67527209D01*
X122985760Y-67528240D01*
X122985761Y-67528240D01*
X123038846Y-67539040D01*
X123207656Y-67573385D01*
X123338324Y-67578176D01*
X123433949Y-67581683D01*
X123433953Y-67581683D01*
X123439113Y-67581872D01*
X123444233Y-67581216D01*
X123444235Y-67581216D01*
X123517270Y-67571860D01*
X123668847Y-67552442D01*
X123673795Y-67550957D01*
X123673802Y-67550956D01*
X123885747Y-67487369D01*
X123890690Y-67485886D01*
X123895324Y-67483616D01*
X124094049Y-67386262D01*
X124094052Y-67386260D01*
X124098684Y-67383991D01*
X124287243Y-67249494D01*
X124451303Y-67086005D01*
X124586458Y-66897917D01*
X124633641Y-66802450D01*
X124686784Y-66694922D01*
X124686785Y-66694920D01*
X124689078Y-66690280D01*
X124756408Y-66468671D01*
X124786640Y-66239041D01*
X124786722Y-66235691D01*
X124788245Y-66173365D01*
X124788245Y-66173361D01*
X124788327Y-66170000D01*
X124774479Y-66001562D01*
X124769773Y-65944318D01*
X124769772Y-65944312D01*
X124769349Y-65939167D01*
X124712925Y-65714533D01*
X124710866Y-65709797D01*
X124622630Y-65506868D01*
X124622628Y-65506865D01*
X124620570Y-65502131D01*
X124494764Y-65307665D01*
X124338887Y-65136358D01*
X124334836Y-65133159D01*
X124334832Y-65133155D01*
X124159747Y-64994882D01*
X124118684Y-64936965D01*
X124115452Y-64866042D01*
X124151077Y-64804630D01*
X124214248Y-64772228D01*
X124237839Y-64770000D01*
X128591111Y-64770000D01*
X128659232Y-64790002D01*
X128705725Y-64843658D01*
X128715829Y-64913932D01*
X128686335Y-64978512D01*
X128666766Y-64996758D01*
X128634965Y-65020635D01*
X128480629Y-65182138D01*
X128477715Y-65186410D01*
X128477714Y-65186411D01*
X128397611Y-65303838D01*
X128354743Y-65366680D01*
X128260688Y-65569305D01*
X128200989Y-65784570D01*
X128177251Y-66006695D01*
X128177548Y-66011848D01*
X128177548Y-66011851D01*
X128186667Y-66170000D01*
X128190110Y-66229715D01*
X128191247Y-66234761D01*
X128191248Y-66234767D01*
X128192959Y-66242359D01*
X128239222Y-66447639D01*
X128323266Y-66654616D01*
X128439987Y-66845088D01*
X128586250Y-67013938D01*
X128758126Y-67156632D01*
X128791060Y-67175877D01*
X128831445Y-67199476D01*
X128880169Y-67251114D01*
X128893240Y-67320897D01*
X128866509Y-67386669D01*
X128826055Y-67420027D01*
X128813607Y-67426507D01*
X128809474Y-67429610D01*
X128809471Y-67429612D01*
X128679484Y-67527209D01*
X128634965Y-67560635D01*
X128480629Y-67722138D01*
X128354743Y-67906680D01*
X128307715Y-68007993D01*
X128263328Y-68103618D01*
X128260688Y-68109305D01*
X128200989Y-68324570D01*
X128177251Y-68546695D01*
X128177548Y-68551848D01*
X128177548Y-68551851D01*
X128183011Y-68646590D01*
X128190110Y-68769715D01*
X128191247Y-68774761D01*
X128191248Y-68774767D01*
X128211119Y-68862939D01*
X128239222Y-68987639D01*
X128323266Y-69194616D01*
X128439987Y-69385088D01*
X128586250Y-69553938D01*
X128590225Y-69557238D01*
X128590231Y-69557244D01*
X128595425Y-69561556D01*
X128635059Y-69620460D01*
X128636555Y-69691441D01*
X128599439Y-69751962D01*
X128559168Y-69776480D01*
X128451946Y-69816676D01*
X128436351Y-69825214D01*
X128334276Y-69901715D01*
X128321715Y-69914276D01*
X128245214Y-70016351D01*
X128236676Y-70031946D01*
X128191522Y-70152394D01*
X128187895Y-70167649D01*
X128182369Y-70218514D01*
X128182000Y-70225328D01*
X128182000Y-70847885D01*
X128186475Y-70863124D01*
X128187865Y-70864329D01*
X128195548Y-70866000D01*
X130879884Y-70866000D01*
X130895123Y-70861525D01*
X130896328Y-70860135D01*
X130897999Y-70852452D01*
X130897999Y-70225331D01*
X130897629Y-70218510D01*
X130892105Y-70167648D01*
X130888479Y-70152396D01*
X130843324Y-70031946D01*
X130834786Y-70016351D01*
X130758285Y-69914276D01*
X130745724Y-69901715D01*
X130643649Y-69825214D01*
X130628054Y-69816676D01*
X130517813Y-69775348D01*
X130461049Y-69732706D01*
X130436349Y-69666145D01*
X130451557Y-69596796D01*
X130473104Y-69568115D01*
X130574430Y-69467144D01*
X130574440Y-69467132D01*
X130578096Y-69463489D01*
X130613734Y-69413894D01*
X130705435Y-69286277D01*
X130708453Y-69282077D01*
X130807430Y-69081811D01*
X130872370Y-68868069D01*
X130901529Y-68646590D01*
X130903156Y-68580000D01*
X130884852Y-68357361D01*
X130830431Y-68140702D01*
X130741354Y-67935840D01*
X130620014Y-67748277D01*
X130469670Y-67583051D01*
X130465619Y-67579852D01*
X130465615Y-67579848D01*
X130298414Y-67447800D01*
X130298410Y-67447798D01*
X130294359Y-67444598D01*
X130253053Y-67421796D01*
X130203084Y-67371364D01*
X130188312Y-67301921D01*
X130213428Y-67235516D01*
X130240780Y-67208909D01*
X130287089Y-67175877D01*
X130419860Y-67081173D01*
X130578096Y-66923489D01*
X130637594Y-66840689D01*
X130705435Y-66746277D01*
X130708453Y-66742077D01*
X130731759Y-66694922D01*
X130805136Y-66546453D01*
X130805137Y-66546451D01*
X130807430Y-66541811D01*
X130872370Y-66328069D01*
X130901529Y-66106590D01*
X130903156Y-66040000D01*
X130884852Y-65817361D01*
X130830431Y-65600702D01*
X130741354Y-65395840D01*
X130620014Y-65208277D01*
X130469670Y-65043051D01*
X130408677Y-64994881D01*
X130367615Y-64936964D01*
X130364383Y-64866041D01*
X130400009Y-64804630D01*
X130463180Y-64772228D01*
X130486770Y-64770000D01*
X136399000Y-64770000D01*
X136467121Y-64790002D01*
X136513614Y-64843658D01*
X136525000Y-64896000D01*
X136525000Y-137034000D01*
X136504998Y-137102121D01*
X136451342Y-137148614D01*
X136399000Y-137160000D01*
X134858870Y-137160000D01*
X134790749Y-137139998D01*
X134744256Y-137086342D01*
X134734152Y-137016068D01*
X134763646Y-136951488D01*
X134801178Y-136921984D01*
X134980978Y-136829381D01*
X134991024Y-136822931D01*
X135147857Y-136699738D01*
X135156506Y-136691501D01*
X135287212Y-136540877D01*
X135294147Y-136531153D01*
X135394010Y-136358533D01*
X135398984Y-136347669D01*
X135464407Y-136159273D01*
X135464648Y-136158284D01*
X135463180Y-136147992D01*
X135449615Y-136144000D01*
X132524598Y-136144000D01*
X132511067Y-136147973D01*
X132509712Y-136157399D01*
X132531194Y-136246537D01*
X132535083Y-136257832D01*
X132617629Y-136439382D01*
X132623576Y-136449724D01*
X132738968Y-136612397D01*
X132746761Y-136621425D01*
X132890831Y-136759342D01*
X132900196Y-136766738D01*
X133067741Y-136874921D01*
X133078341Y-136880415D01*
X133169452Y-136917134D01*
X133225157Y-136961149D01*
X133248224Y-137028294D01*
X133231327Y-137097251D01*
X133179832Y-137146126D01*
X133122353Y-137160000D01*
X109458870Y-137160000D01*
X109390749Y-137139998D01*
X109344256Y-137086342D01*
X109334152Y-137016068D01*
X109363646Y-136951488D01*
X109401178Y-136921984D01*
X109580978Y-136829381D01*
X109591024Y-136822931D01*
X109747857Y-136699738D01*
X109756506Y-136691501D01*
X109887212Y-136540877D01*
X109894147Y-136531153D01*
X109994010Y-136358533D01*
X109998984Y-136347669D01*
X110064407Y-136159273D01*
X110064648Y-136158284D01*
X110063180Y-136147992D01*
X110049615Y-136144000D01*
X107124598Y-136144000D01*
X107111067Y-136147973D01*
X107109712Y-136157399D01*
X107131194Y-136246537D01*
X107135083Y-136257832D01*
X107217629Y-136439382D01*
X107223576Y-136449724D01*
X107338968Y-136612397D01*
X107346761Y-136621425D01*
X107490831Y-136759342D01*
X107500196Y-136766738D01*
X107667741Y-136874921D01*
X107678341Y-136880415D01*
X107769452Y-136917134D01*
X107825157Y-136961149D01*
X107848224Y-137028294D01*
X107831327Y-137097251D01*
X107779832Y-137146126D01*
X107722353Y-137160000D01*
X106171000Y-137160000D01*
X106102879Y-137139998D01*
X106056386Y-137086342D01*
X106045000Y-137034000D01*
X106045000Y-135621716D01*
X107105352Y-135621716D01*
X107106820Y-135632008D01*
X107120385Y-135636000D01*
X108312885Y-135636000D01*
X108328124Y-135631525D01*
X108329329Y-135630135D01*
X108331000Y-135622452D01*
X108331000Y-135617885D01*
X108839000Y-135617885D01*
X108843475Y-135633124D01*
X108844865Y-135634329D01*
X108852548Y-135636000D01*
X110045402Y-135636000D01*
X110058933Y-135632027D01*
X110060288Y-135622601D01*
X110060075Y-135621716D01*
X132505352Y-135621716D01*
X132506820Y-135632008D01*
X132520385Y-135636000D01*
X133712885Y-135636000D01*
X133728124Y-135631525D01*
X133729329Y-135630135D01*
X133731000Y-135622452D01*
X133731000Y-135617885D01*
X134239000Y-135617885D01*
X134243475Y-135633124D01*
X134244865Y-135634329D01*
X134252548Y-135636000D01*
X135445402Y-135636000D01*
X135458933Y-135632027D01*
X135460288Y-135622601D01*
X135438806Y-135533463D01*
X135434917Y-135522168D01*
X135352371Y-135340618D01*
X135346424Y-135330276D01*
X135231032Y-135167603D01*
X135223239Y-135158575D01*
X135079169Y-135020658D01*
X135069804Y-135013262D01*
X134902259Y-134905079D01*
X134891655Y-134899583D01*
X134706688Y-134825039D01*
X134695230Y-134821645D01*
X134498072Y-134783143D01*
X134489209Y-134782066D01*
X134486500Y-134782000D01*
X134257115Y-134782000D01*
X134241876Y-134786475D01*
X134240671Y-134787865D01*
X134239000Y-134795548D01*
X134239000Y-135617885D01*
X133731000Y-135617885D01*
X133731000Y-134800115D01*
X133726525Y-134784876D01*
X133725135Y-134783671D01*
X133717452Y-134782000D01*
X133535168Y-134782000D01*
X133529192Y-134782285D01*
X133380506Y-134796471D01*
X133368772Y-134798730D01*
X133177401Y-134854872D01*
X133166325Y-134859302D01*
X132989022Y-134950619D01*
X132978976Y-134957069D01*
X132822143Y-135080262D01*
X132813494Y-135088499D01*
X132682788Y-135239123D01*
X132675853Y-135248847D01*
X132575990Y-135421467D01*
X132571016Y-135432331D01*
X132505593Y-135620727D01*
X132505352Y-135621716D01*
X110060075Y-135621716D01*
X110038806Y-135533463D01*
X110034917Y-135522168D01*
X109952371Y-135340618D01*
X109946424Y-135330276D01*
X109831032Y-135167603D01*
X109823239Y-135158575D01*
X109679169Y-135020658D01*
X109669804Y-135013262D01*
X109502259Y-134905079D01*
X109491655Y-134899583D01*
X109306688Y-134825039D01*
X109295230Y-134821645D01*
X109098072Y-134783143D01*
X109089209Y-134782066D01*
X109086500Y-134782000D01*
X108857115Y-134782000D01*
X108841876Y-134786475D01*
X108840671Y-134787865D01*
X108839000Y-134795548D01*
X108839000Y-135617885D01*
X108331000Y-135617885D01*
X108331000Y-134800115D01*
X108326525Y-134784876D01*
X108325135Y-134783671D01*
X108317452Y-134782000D01*
X108135168Y-134782000D01*
X108129192Y-134782285D01*
X107980506Y-134796471D01*
X107968772Y-134798730D01*
X107777401Y-134854872D01*
X107766325Y-134859302D01*
X107589022Y-134950619D01*
X107578976Y-134957069D01*
X107422143Y-135080262D01*
X107413494Y-135088499D01*
X107282788Y-135239123D01*
X107275853Y-135248847D01*
X107175990Y-135421467D01*
X107171016Y-135432331D01*
X107105593Y-135620727D01*
X107105352Y-135621716D01*
X106045000Y-135621716D01*
X106045000Y-133295604D01*
X107072787Y-133295604D01*
X107082567Y-133506899D01*
X107083971Y-133512724D01*
X107083971Y-133512725D01*
X107130680Y-133706537D01*
X107132125Y-133712534D01*
X107134607Y-133717992D01*
X107134608Y-133717996D01*
X107178053Y-133813546D01*
X107219674Y-133905087D01*
X107342054Y-134077611D01*
X107494850Y-134223881D01*
X107672548Y-134338620D01*
X107678114Y-134340863D01*
X107863168Y-134415442D01*
X107863171Y-134415443D01*
X107868737Y-134417686D01*
X108076337Y-134458228D01*
X108081899Y-134458500D01*
X109037846Y-134458500D01*
X109195566Y-134443452D01*
X109398534Y-134383908D01*
X109482977Y-134340417D01*
X109581249Y-134289804D01*
X109581252Y-134289802D01*
X109586580Y-134287058D01*
X109752920Y-134156396D01*
X109756852Y-134151865D01*
X109756855Y-134151862D01*
X109887621Y-134001167D01*
X109891552Y-133996637D01*
X109894552Y-133991451D01*
X109894555Y-133991447D01*
X109994467Y-133818742D01*
X109997473Y-133813546D01*
X110065587Y-133617399D01*
X132509712Y-133617399D01*
X132531194Y-133706537D01*
X132535083Y-133717832D01*
X132617629Y-133899382D01*
X132623576Y-133909724D01*
X132738968Y-134072397D01*
X132746761Y-134081425D01*
X132890831Y-134219342D01*
X132900196Y-134226738D01*
X133067741Y-134334921D01*
X133078345Y-134340417D01*
X133263312Y-134414961D01*
X133274770Y-134418355D01*
X133471928Y-134456857D01*
X133480791Y-134457934D01*
X133483500Y-134458000D01*
X133712885Y-134458000D01*
X133728124Y-134453525D01*
X133729329Y-134452135D01*
X133731000Y-134444452D01*
X133731000Y-134439885D01*
X134239000Y-134439885D01*
X134243475Y-134455124D01*
X134244865Y-134456329D01*
X134252548Y-134458000D01*
X134434832Y-134458000D01*
X134440808Y-134457715D01*
X134589494Y-134443529D01*
X134601228Y-134441270D01*
X134792599Y-134385128D01*
X134803675Y-134380698D01*
X134980978Y-134289381D01*
X134991024Y-134282931D01*
X135147857Y-134159738D01*
X135156506Y-134151501D01*
X135287212Y-134000877D01*
X135294147Y-133991153D01*
X135394010Y-133818533D01*
X135398984Y-133807669D01*
X135464407Y-133619273D01*
X135464648Y-133618284D01*
X135463180Y-133607992D01*
X135449615Y-133604000D01*
X134257115Y-133604000D01*
X134241876Y-133608475D01*
X134240671Y-133609865D01*
X134239000Y-133617548D01*
X134239000Y-134439885D01*
X133731000Y-134439885D01*
X133731000Y-133622115D01*
X133726525Y-133606876D01*
X133725135Y-133605671D01*
X133717452Y-133604000D01*
X132524598Y-133604000D01*
X132511067Y-133607973D01*
X132509712Y-133617399D01*
X110065587Y-133617399D01*
X110066861Y-133613729D01*
X110067855Y-133606876D01*
X110096352Y-133410336D01*
X110096352Y-133410333D01*
X110097213Y-133404396D01*
X110087433Y-133193101D01*
X110060589Y-133081716D01*
X132505352Y-133081716D01*
X132506820Y-133092008D01*
X132520385Y-133096000D01*
X133712885Y-133096000D01*
X133728124Y-133091525D01*
X133729329Y-133090135D01*
X133731000Y-133082452D01*
X133731000Y-133077885D01*
X134239000Y-133077885D01*
X134243475Y-133093124D01*
X134244865Y-133094329D01*
X134252548Y-133096000D01*
X135445402Y-133096000D01*
X135458933Y-133092027D01*
X135460288Y-133082601D01*
X135438806Y-132993463D01*
X135434917Y-132982168D01*
X135352371Y-132800618D01*
X135346424Y-132790276D01*
X135231032Y-132627603D01*
X135223239Y-132618575D01*
X135079169Y-132480658D01*
X135069804Y-132473262D01*
X134902259Y-132365079D01*
X134891655Y-132359583D01*
X134706688Y-132285039D01*
X134695230Y-132281645D01*
X134498072Y-132243143D01*
X134489209Y-132242066D01*
X134486500Y-132242000D01*
X134257115Y-132242000D01*
X134241876Y-132246475D01*
X134240671Y-132247865D01*
X134239000Y-132255548D01*
X134239000Y-133077885D01*
X133731000Y-133077885D01*
X133731000Y-132260115D01*
X133726525Y-132244876D01*
X133725135Y-132243671D01*
X133717452Y-132242000D01*
X133535168Y-132242000D01*
X133529192Y-132242285D01*
X133380506Y-132256471D01*
X133368772Y-132258730D01*
X133177401Y-132314872D01*
X133166325Y-132319302D01*
X132989022Y-132410619D01*
X132978976Y-132417069D01*
X132822143Y-132540262D01*
X132813494Y-132548499D01*
X132682788Y-132699123D01*
X132675853Y-132708847D01*
X132575990Y-132881467D01*
X132571016Y-132892331D01*
X132505593Y-133080727D01*
X132505352Y-133081716D01*
X110060589Y-133081716D01*
X110055819Y-133061923D01*
X110039281Y-132993299D01*
X110039280Y-132993297D01*
X110037875Y-132987466D01*
X109994525Y-132892122D01*
X109952806Y-132800368D01*
X109950326Y-132794913D01*
X109827946Y-132622389D01*
X109675150Y-132476119D01*
X109497452Y-132361380D01*
X109393043Y-132319302D01*
X109306832Y-132284558D01*
X109306829Y-132284557D01*
X109301263Y-132282314D01*
X109093663Y-132241772D01*
X109088101Y-132241500D01*
X108132154Y-132241500D01*
X107974434Y-132256548D01*
X107771466Y-132316092D01*
X107766139Y-132318836D01*
X107766138Y-132318836D01*
X107588751Y-132410196D01*
X107588748Y-132410198D01*
X107583420Y-132412942D01*
X107417080Y-132543604D01*
X107413148Y-132548135D01*
X107413145Y-132548138D01*
X107344474Y-132627275D01*
X107278448Y-132703363D01*
X107275448Y-132708549D01*
X107275445Y-132708553D01*
X107275275Y-132708847D01*
X107172527Y-132886454D01*
X107103139Y-133086271D01*
X107102278Y-133092206D01*
X107102278Y-133092208D01*
X107101971Y-133094329D01*
X107072787Y-133295604D01*
X106045000Y-133295604D01*
X106045000Y-130755604D01*
X107072787Y-130755604D01*
X107082567Y-130966899D01*
X107132125Y-131172534D01*
X107134607Y-131177992D01*
X107134608Y-131177996D01*
X107178053Y-131273546D01*
X107219674Y-131365087D01*
X107342054Y-131537611D01*
X107494850Y-131683881D01*
X107672548Y-131798620D01*
X107678114Y-131800863D01*
X107863168Y-131875442D01*
X107863171Y-131875443D01*
X107868737Y-131877686D01*
X108076337Y-131918228D01*
X108081899Y-131918500D01*
X109037846Y-131918500D01*
X109195566Y-131903452D01*
X109398534Y-131843908D01*
X109482111Y-131800863D01*
X109581249Y-131749804D01*
X109581252Y-131749802D01*
X109586580Y-131747058D01*
X109752920Y-131616396D01*
X109756852Y-131611865D01*
X109756855Y-131611862D01*
X109887621Y-131461167D01*
X109891552Y-131456637D01*
X109894552Y-131451451D01*
X109894555Y-131451447D01*
X109994467Y-131278742D01*
X109997473Y-131273546D01*
X110066861Y-131073729D01*
X110097213Y-130864396D01*
X110092177Y-130755604D01*
X132472787Y-130755604D01*
X132482567Y-130966899D01*
X132532125Y-131172534D01*
X132534607Y-131177992D01*
X132534608Y-131177996D01*
X132578053Y-131273546D01*
X132619674Y-131365087D01*
X132742054Y-131537611D01*
X132894850Y-131683881D01*
X133072548Y-131798620D01*
X133078114Y-131800863D01*
X133263168Y-131875442D01*
X133263171Y-131875443D01*
X133268737Y-131877686D01*
X133476337Y-131918228D01*
X133481899Y-131918500D01*
X134437846Y-131918500D01*
X134595566Y-131903452D01*
X134798534Y-131843908D01*
X134882111Y-131800863D01*
X134981249Y-131749804D01*
X134981252Y-131749802D01*
X134986580Y-131747058D01*
X135152920Y-131616396D01*
X135156852Y-131611865D01*
X135156855Y-131611862D01*
X135287621Y-131461167D01*
X135291552Y-131456637D01*
X135294552Y-131451451D01*
X135294555Y-131451447D01*
X135394467Y-131278742D01*
X135397473Y-131273546D01*
X135466861Y-131073729D01*
X135497213Y-130864396D01*
X135487433Y-130653101D01*
X135437875Y-130447466D01*
X135394525Y-130352122D01*
X135352806Y-130260368D01*
X135350326Y-130254913D01*
X135227946Y-130082389D01*
X135075150Y-129936119D01*
X134897452Y-129821380D01*
X134837354Y-129797160D01*
X134706832Y-129744558D01*
X134706829Y-129744557D01*
X134701263Y-129742314D01*
X134493663Y-129701772D01*
X134488101Y-129701500D01*
X133532154Y-129701500D01*
X133374434Y-129716548D01*
X133171466Y-129776092D01*
X133166139Y-129778836D01*
X133166138Y-129778836D01*
X132988751Y-129870196D01*
X132988748Y-129870198D01*
X132983420Y-129872942D01*
X132817080Y-130003604D01*
X132813148Y-130008135D01*
X132813145Y-130008138D01*
X132744474Y-130087275D01*
X132678448Y-130163363D01*
X132675448Y-130168549D01*
X132675445Y-130168553D01*
X132628312Y-130250026D01*
X132572527Y-130346454D01*
X132503139Y-130546271D01*
X132472787Y-130755604D01*
X110092177Y-130755604D01*
X110087433Y-130653101D01*
X110037875Y-130447466D01*
X109994525Y-130352122D01*
X109952806Y-130260368D01*
X109950326Y-130254913D01*
X109827946Y-130082389D01*
X109675150Y-129936119D01*
X109497452Y-129821380D01*
X109437354Y-129797160D01*
X109306832Y-129744558D01*
X109306829Y-129744557D01*
X109301263Y-129742314D01*
X109093663Y-129701772D01*
X109088101Y-129701500D01*
X108132154Y-129701500D01*
X107974434Y-129716548D01*
X107771466Y-129776092D01*
X107766139Y-129778836D01*
X107766138Y-129778836D01*
X107588751Y-129870196D01*
X107588748Y-129870198D01*
X107583420Y-129872942D01*
X107417080Y-130003604D01*
X107413148Y-130008135D01*
X107413145Y-130008138D01*
X107344474Y-130087275D01*
X107278448Y-130163363D01*
X107275448Y-130168549D01*
X107275445Y-130168553D01*
X107228312Y-130250026D01*
X107172527Y-130346454D01*
X107103139Y-130546271D01*
X107072787Y-130755604D01*
X106045000Y-130755604D01*
X106045000Y-128215604D01*
X107072787Y-128215604D01*
X107082567Y-128426899D01*
X107132125Y-128632534D01*
X107134607Y-128637992D01*
X107134608Y-128637996D01*
X107178053Y-128733546D01*
X107219674Y-128825087D01*
X107342054Y-128997611D01*
X107494850Y-129143881D01*
X107672548Y-129258620D01*
X107678114Y-129260863D01*
X107863168Y-129335442D01*
X107863171Y-129335443D01*
X107868737Y-129337686D01*
X108076337Y-129378228D01*
X108081899Y-129378500D01*
X109037846Y-129378500D01*
X109195566Y-129363452D01*
X109398534Y-129303908D01*
X109482111Y-129260863D01*
X109581249Y-129209804D01*
X109581252Y-129209802D01*
X109586580Y-129207058D01*
X109752920Y-129076396D01*
X109756852Y-129071865D01*
X109756855Y-129071862D01*
X109887621Y-128921167D01*
X109891552Y-128916637D01*
X109894552Y-128911451D01*
X109894555Y-128911447D01*
X109994467Y-128738742D01*
X109997473Y-128733546D01*
X110066861Y-128533729D01*
X110097213Y-128324396D01*
X110092177Y-128215604D01*
X132472787Y-128215604D01*
X132482567Y-128426899D01*
X132532125Y-128632534D01*
X132534607Y-128637992D01*
X132534608Y-128637996D01*
X132578053Y-128733546D01*
X132619674Y-128825087D01*
X132742054Y-128997611D01*
X132894850Y-129143881D01*
X133072548Y-129258620D01*
X133078114Y-129260863D01*
X133263168Y-129335442D01*
X133263171Y-129335443D01*
X133268737Y-129337686D01*
X133476337Y-129378228D01*
X133481899Y-129378500D01*
X134437846Y-129378500D01*
X134595566Y-129363452D01*
X134798534Y-129303908D01*
X134882111Y-129260863D01*
X134981249Y-129209804D01*
X134981252Y-129209802D01*
X134986580Y-129207058D01*
X135152920Y-129076396D01*
X135156852Y-129071865D01*
X135156855Y-129071862D01*
X135287621Y-128921167D01*
X135291552Y-128916637D01*
X135294552Y-128911451D01*
X135294555Y-128911447D01*
X135394467Y-128738742D01*
X135397473Y-128733546D01*
X135466861Y-128533729D01*
X135497213Y-128324396D01*
X135487433Y-128113101D01*
X135437875Y-127907466D01*
X135394525Y-127812122D01*
X135352806Y-127720368D01*
X135350326Y-127714913D01*
X135227946Y-127542389D01*
X135075150Y-127396119D01*
X134897452Y-127281380D01*
X134837354Y-127257160D01*
X134706832Y-127204558D01*
X134706829Y-127204557D01*
X134701263Y-127202314D01*
X134493663Y-127161772D01*
X134488101Y-127161500D01*
X133532154Y-127161500D01*
X133374434Y-127176548D01*
X133171466Y-127236092D01*
X133166139Y-127238836D01*
X133166138Y-127238836D01*
X132988751Y-127330196D01*
X132988748Y-127330198D01*
X132983420Y-127332942D01*
X132817080Y-127463604D01*
X132813148Y-127468135D01*
X132813145Y-127468138D01*
X132744474Y-127547275D01*
X132678448Y-127623363D01*
X132675448Y-127628549D01*
X132675445Y-127628553D01*
X132628312Y-127710026D01*
X132572527Y-127806454D01*
X132503139Y-128006271D01*
X132472787Y-128215604D01*
X110092177Y-128215604D01*
X110087433Y-128113101D01*
X110037875Y-127907466D01*
X109994525Y-127812122D01*
X109952806Y-127720368D01*
X109950326Y-127714913D01*
X109827946Y-127542389D01*
X109675150Y-127396119D01*
X109497452Y-127281380D01*
X109437354Y-127257160D01*
X109306832Y-127204558D01*
X109306829Y-127204557D01*
X109301263Y-127202314D01*
X109093663Y-127161772D01*
X109088101Y-127161500D01*
X108132154Y-127161500D01*
X107974434Y-127176548D01*
X107771466Y-127236092D01*
X107766139Y-127238836D01*
X107766138Y-127238836D01*
X107588751Y-127330196D01*
X107588748Y-127330198D01*
X107583420Y-127332942D01*
X107417080Y-127463604D01*
X107413148Y-127468135D01*
X107413145Y-127468138D01*
X107344474Y-127547275D01*
X107278448Y-127623363D01*
X107275448Y-127628549D01*
X107275445Y-127628553D01*
X107228312Y-127710026D01*
X107172527Y-127806454D01*
X107103139Y-128006271D01*
X107072787Y-128215604D01*
X106045000Y-128215604D01*
X106045000Y-125675604D01*
X107072787Y-125675604D01*
X107082567Y-125886899D01*
X107132125Y-126092534D01*
X107134607Y-126097992D01*
X107134608Y-126097996D01*
X107178053Y-126193546D01*
X107219674Y-126285087D01*
X107342054Y-126457611D01*
X107494850Y-126603881D01*
X107672548Y-126718620D01*
X107678114Y-126720863D01*
X107863168Y-126795442D01*
X107863171Y-126795443D01*
X107868737Y-126797686D01*
X108076337Y-126838228D01*
X108081899Y-126838500D01*
X109037846Y-126838500D01*
X109195566Y-126823452D01*
X109398534Y-126763908D01*
X109482111Y-126720863D01*
X109581249Y-126669804D01*
X109581252Y-126669802D01*
X109586580Y-126667058D01*
X109752920Y-126536396D01*
X109756852Y-126531865D01*
X109756855Y-126531862D01*
X109887621Y-126381167D01*
X109891552Y-126376637D01*
X109894552Y-126371451D01*
X109894555Y-126371447D01*
X109994467Y-126198742D01*
X109997473Y-126193546D01*
X110066861Y-125993729D01*
X110097213Y-125784396D01*
X110092177Y-125675604D01*
X132472787Y-125675604D01*
X132482567Y-125886899D01*
X132532125Y-126092534D01*
X132534607Y-126097992D01*
X132534608Y-126097996D01*
X132578053Y-126193546D01*
X132619674Y-126285087D01*
X132742054Y-126457611D01*
X132894850Y-126603881D01*
X133072548Y-126718620D01*
X133078114Y-126720863D01*
X133263168Y-126795442D01*
X133263171Y-126795443D01*
X133268737Y-126797686D01*
X133476337Y-126838228D01*
X133481899Y-126838500D01*
X134437846Y-126838500D01*
X134595566Y-126823452D01*
X134798534Y-126763908D01*
X134882111Y-126720863D01*
X134981249Y-126669804D01*
X134981252Y-126669802D01*
X134986580Y-126667058D01*
X135152920Y-126536396D01*
X135156852Y-126531865D01*
X135156855Y-126531862D01*
X135287621Y-126381167D01*
X135291552Y-126376637D01*
X135294552Y-126371451D01*
X135294555Y-126371447D01*
X135394467Y-126198742D01*
X135397473Y-126193546D01*
X135466861Y-125993729D01*
X135497213Y-125784396D01*
X135487433Y-125573101D01*
X135437875Y-125367466D01*
X135394525Y-125272122D01*
X135352806Y-125180368D01*
X135350326Y-125174913D01*
X135227946Y-125002389D01*
X135075150Y-124856119D01*
X134897452Y-124741380D01*
X134837354Y-124717160D01*
X134706832Y-124664558D01*
X134706829Y-124664557D01*
X134701263Y-124662314D01*
X134493663Y-124621772D01*
X134488101Y-124621500D01*
X133532154Y-124621500D01*
X133374434Y-124636548D01*
X133171466Y-124696092D01*
X133166139Y-124698836D01*
X133166138Y-124698836D01*
X132988751Y-124790196D01*
X132988748Y-124790198D01*
X132983420Y-124792942D01*
X132817080Y-124923604D01*
X132813148Y-124928135D01*
X132813145Y-124928138D01*
X132744474Y-125007275D01*
X132678448Y-125083363D01*
X132675448Y-125088549D01*
X132675445Y-125088553D01*
X132628312Y-125170026D01*
X132572527Y-125266454D01*
X132503139Y-125466271D01*
X132472787Y-125675604D01*
X110092177Y-125675604D01*
X110087433Y-125573101D01*
X110037875Y-125367466D01*
X109994525Y-125272122D01*
X109952806Y-125180368D01*
X109950326Y-125174913D01*
X109827946Y-125002389D01*
X109675150Y-124856119D01*
X109497452Y-124741380D01*
X109437354Y-124717160D01*
X109306832Y-124664558D01*
X109306829Y-124664557D01*
X109301263Y-124662314D01*
X109093663Y-124621772D01*
X109088101Y-124621500D01*
X108132154Y-124621500D01*
X107974434Y-124636548D01*
X107771466Y-124696092D01*
X107766139Y-124698836D01*
X107766138Y-124698836D01*
X107588751Y-124790196D01*
X107588748Y-124790198D01*
X107583420Y-124792942D01*
X107417080Y-124923604D01*
X107413148Y-124928135D01*
X107413145Y-124928138D01*
X107344474Y-125007275D01*
X107278448Y-125083363D01*
X107275448Y-125088549D01*
X107275445Y-125088553D01*
X107228312Y-125170026D01*
X107172527Y-125266454D01*
X107103139Y-125466271D01*
X107072787Y-125675604D01*
X106045000Y-125675604D01*
X106045000Y-123135604D01*
X107072787Y-123135604D01*
X107082567Y-123346899D01*
X107132125Y-123552534D01*
X107134607Y-123557992D01*
X107134608Y-123557996D01*
X107178053Y-123653546D01*
X107219674Y-123745087D01*
X107342054Y-123917611D01*
X107494850Y-124063881D01*
X107672548Y-124178620D01*
X107678114Y-124180863D01*
X107863168Y-124255442D01*
X107863171Y-124255443D01*
X107868737Y-124257686D01*
X108076337Y-124298228D01*
X108081899Y-124298500D01*
X109037846Y-124298500D01*
X109195566Y-124283452D01*
X109398534Y-124223908D01*
X109482111Y-124180863D01*
X109581249Y-124129804D01*
X109581252Y-124129802D01*
X109586580Y-124127058D01*
X109752920Y-123996396D01*
X109756852Y-123991865D01*
X109756855Y-123991862D01*
X109887621Y-123841167D01*
X109891552Y-123836637D01*
X109894552Y-123831451D01*
X109894555Y-123831447D01*
X109994467Y-123658742D01*
X109997473Y-123653546D01*
X110066861Y-123453729D01*
X110097213Y-123244396D01*
X110092177Y-123135604D01*
X132472787Y-123135604D01*
X132482567Y-123346899D01*
X132532125Y-123552534D01*
X132534607Y-123557992D01*
X132534608Y-123557996D01*
X132578053Y-123653546D01*
X132619674Y-123745087D01*
X132742054Y-123917611D01*
X132894850Y-124063881D01*
X133072548Y-124178620D01*
X133078114Y-124180863D01*
X133263168Y-124255442D01*
X133263171Y-124255443D01*
X133268737Y-124257686D01*
X133476337Y-124298228D01*
X133481899Y-124298500D01*
X134437846Y-124298500D01*
X134595566Y-124283452D01*
X134798534Y-124223908D01*
X134882111Y-124180863D01*
X134981249Y-124129804D01*
X134981252Y-124129802D01*
X134986580Y-124127058D01*
X135152920Y-123996396D01*
X135156852Y-123991865D01*
X135156855Y-123991862D01*
X135287621Y-123841167D01*
X135291552Y-123836637D01*
X135294552Y-123831451D01*
X135294555Y-123831447D01*
X135394467Y-123658742D01*
X135397473Y-123653546D01*
X135466861Y-123453729D01*
X135497213Y-123244396D01*
X135487433Y-123033101D01*
X135437875Y-122827466D01*
X135394525Y-122732122D01*
X135352806Y-122640368D01*
X135350326Y-122634913D01*
X135227946Y-122462389D01*
X135075150Y-122316119D01*
X134897452Y-122201380D01*
X134837354Y-122177160D01*
X134706832Y-122124558D01*
X134706829Y-122124557D01*
X134701263Y-122122314D01*
X134493663Y-122081772D01*
X134488101Y-122081500D01*
X133532154Y-122081500D01*
X133374434Y-122096548D01*
X133171466Y-122156092D01*
X133166139Y-122158836D01*
X133166138Y-122158836D01*
X132988751Y-122250196D01*
X132988748Y-122250198D01*
X132983420Y-122252942D01*
X132817080Y-122383604D01*
X132813148Y-122388135D01*
X132813145Y-122388138D01*
X132744474Y-122467275D01*
X132678448Y-122543363D01*
X132675448Y-122548549D01*
X132675445Y-122548553D01*
X132628312Y-122630026D01*
X132572527Y-122726454D01*
X132503139Y-122926271D01*
X132472787Y-123135604D01*
X110092177Y-123135604D01*
X110087433Y-123033101D01*
X110037875Y-122827466D01*
X109994525Y-122732122D01*
X109952806Y-122640368D01*
X109950326Y-122634913D01*
X109827946Y-122462389D01*
X109675150Y-122316119D01*
X109497452Y-122201380D01*
X109437354Y-122177160D01*
X109306832Y-122124558D01*
X109306829Y-122124557D01*
X109301263Y-122122314D01*
X109093663Y-122081772D01*
X109088101Y-122081500D01*
X108132154Y-122081500D01*
X107974434Y-122096548D01*
X107771466Y-122156092D01*
X107766139Y-122158836D01*
X107766138Y-122158836D01*
X107588751Y-122250196D01*
X107588748Y-122250198D01*
X107583420Y-122252942D01*
X107417080Y-122383604D01*
X107413148Y-122388135D01*
X107413145Y-122388138D01*
X107344474Y-122467275D01*
X107278448Y-122543363D01*
X107275448Y-122548549D01*
X107275445Y-122548553D01*
X107228312Y-122630026D01*
X107172527Y-122726454D01*
X107103139Y-122926271D01*
X107072787Y-123135604D01*
X106045000Y-123135604D01*
X106045000Y-120595604D01*
X107072787Y-120595604D01*
X107082567Y-120806899D01*
X107132125Y-121012534D01*
X107134607Y-121017992D01*
X107134608Y-121017996D01*
X107178053Y-121113546D01*
X107219674Y-121205087D01*
X107342054Y-121377611D01*
X107494850Y-121523881D01*
X107672548Y-121638620D01*
X107678114Y-121640863D01*
X107863168Y-121715442D01*
X107863171Y-121715443D01*
X107868737Y-121717686D01*
X108076337Y-121758228D01*
X108081899Y-121758500D01*
X109037846Y-121758500D01*
X109195566Y-121743452D01*
X109398534Y-121683908D01*
X109482111Y-121640863D01*
X109581249Y-121589804D01*
X109581252Y-121589802D01*
X109586580Y-121587058D01*
X109752920Y-121456396D01*
X109756852Y-121451865D01*
X109756855Y-121451862D01*
X109887621Y-121301167D01*
X109891552Y-121296637D01*
X109894552Y-121291451D01*
X109894555Y-121291447D01*
X109994467Y-121118742D01*
X109997473Y-121113546D01*
X110066861Y-120913729D01*
X110097213Y-120704396D01*
X110092177Y-120595604D01*
X132472787Y-120595604D01*
X132482567Y-120806899D01*
X132532125Y-121012534D01*
X132534607Y-121017992D01*
X132534608Y-121017996D01*
X132578053Y-121113546D01*
X132619674Y-121205087D01*
X132742054Y-121377611D01*
X132894850Y-121523881D01*
X133072548Y-121638620D01*
X133078114Y-121640863D01*
X133263168Y-121715442D01*
X133263171Y-121715443D01*
X133268737Y-121717686D01*
X133476337Y-121758228D01*
X133481899Y-121758500D01*
X134437846Y-121758500D01*
X134595566Y-121743452D01*
X134798534Y-121683908D01*
X134882111Y-121640863D01*
X134981249Y-121589804D01*
X134981252Y-121589802D01*
X134986580Y-121587058D01*
X135152920Y-121456396D01*
X135156852Y-121451865D01*
X135156855Y-121451862D01*
X135287621Y-121301167D01*
X135291552Y-121296637D01*
X135294552Y-121291451D01*
X135294555Y-121291447D01*
X135394467Y-121118742D01*
X135397473Y-121113546D01*
X135466861Y-120913729D01*
X135497213Y-120704396D01*
X135487433Y-120493101D01*
X135437875Y-120287466D01*
X135394525Y-120192122D01*
X135352806Y-120100368D01*
X135350326Y-120094913D01*
X135227946Y-119922389D01*
X135075150Y-119776119D01*
X134897452Y-119661380D01*
X134837354Y-119637160D01*
X134706832Y-119584558D01*
X134706829Y-119584557D01*
X134701263Y-119582314D01*
X134493663Y-119541772D01*
X134488101Y-119541500D01*
X133532154Y-119541500D01*
X133374434Y-119556548D01*
X133171466Y-119616092D01*
X133166139Y-119618836D01*
X133166138Y-119618836D01*
X132988751Y-119710196D01*
X132988748Y-119710198D01*
X132983420Y-119712942D01*
X132817080Y-119843604D01*
X132813148Y-119848135D01*
X132813145Y-119848138D01*
X132744474Y-119927275D01*
X132678448Y-120003363D01*
X132675448Y-120008549D01*
X132675445Y-120008553D01*
X132628312Y-120090026D01*
X132572527Y-120186454D01*
X132503139Y-120386271D01*
X132472787Y-120595604D01*
X110092177Y-120595604D01*
X110087433Y-120493101D01*
X110037875Y-120287466D01*
X109994525Y-120192122D01*
X109952806Y-120100368D01*
X109950326Y-120094913D01*
X109827946Y-119922389D01*
X109675150Y-119776119D01*
X109497452Y-119661380D01*
X109437354Y-119637160D01*
X109306832Y-119584558D01*
X109306829Y-119584557D01*
X109301263Y-119582314D01*
X109093663Y-119541772D01*
X109088101Y-119541500D01*
X108132154Y-119541500D01*
X107974434Y-119556548D01*
X107771466Y-119616092D01*
X107766139Y-119618836D01*
X107766138Y-119618836D01*
X107588751Y-119710196D01*
X107588748Y-119710198D01*
X107583420Y-119712942D01*
X107417080Y-119843604D01*
X107413148Y-119848135D01*
X107413145Y-119848138D01*
X107344474Y-119927275D01*
X107278448Y-120003363D01*
X107275448Y-120008549D01*
X107275445Y-120008553D01*
X107228312Y-120090026D01*
X107172527Y-120186454D01*
X107103139Y-120386271D01*
X107072787Y-120595604D01*
X106045000Y-120595604D01*
X106045000Y-118377399D01*
X107109712Y-118377399D01*
X107131194Y-118466537D01*
X107135083Y-118477832D01*
X107217629Y-118659382D01*
X107223576Y-118669724D01*
X107338968Y-118832397D01*
X107346761Y-118841425D01*
X107490831Y-118979342D01*
X107500196Y-118986738D01*
X107667741Y-119094921D01*
X107678345Y-119100417D01*
X107863312Y-119174961D01*
X107874770Y-119178355D01*
X108071928Y-119216857D01*
X108080791Y-119217934D01*
X108083500Y-119218000D01*
X108312885Y-119218000D01*
X108328124Y-119213525D01*
X108329329Y-119212135D01*
X108331000Y-119204452D01*
X108331000Y-119199885D01*
X108839000Y-119199885D01*
X108843475Y-119215124D01*
X108844865Y-119216329D01*
X108852548Y-119218000D01*
X109034832Y-119218000D01*
X109040808Y-119217715D01*
X109189494Y-119203529D01*
X109201228Y-119201270D01*
X109392599Y-119145128D01*
X109403675Y-119140698D01*
X109580978Y-119049381D01*
X109591024Y-119042931D01*
X109747857Y-118919738D01*
X109756506Y-118911501D01*
X109887212Y-118760877D01*
X109894147Y-118751153D01*
X109994010Y-118578533D01*
X109998984Y-118567669D01*
X110064407Y-118379273D01*
X110064648Y-118378284D01*
X110063180Y-118367992D01*
X110049615Y-118364000D01*
X108857115Y-118364000D01*
X108841876Y-118368475D01*
X108840671Y-118369865D01*
X108839000Y-118377548D01*
X108839000Y-119199885D01*
X108331000Y-119199885D01*
X108331000Y-118382115D01*
X108326525Y-118366876D01*
X108325135Y-118365671D01*
X108317452Y-118364000D01*
X107124598Y-118364000D01*
X107111067Y-118367973D01*
X107109712Y-118377399D01*
X106045000Y-118377399D01*
X106045000Y-118055604D01*
X132472787Y-118055604D01*
X132482567Y-118266899D01*
X132483971Y-118272724D01*
X132483971Y-118272725D01*
X132530680Y-118466537D01*
X132532125Y-118472534D01*
X132534607Y-118477992D01*
X132534608Y-118477996D01*
X132578053Y-118573546D01*
X132619674Y-118665087D01*
X132742054Y-118837611D01*
X132894850Y-118983881D01*
X133072548Y-119098620D01*
X133078114Y-119100863D01*
X133263168Y-119175442D01*
X133263171Y-119175443D01*
X133268737Y-119177686D01*
X133476337Y-119218228D01*
X133481899Y-119218500D01*
X134437846Y-119218500D01*
X134595566Y-119203452D01*
X134798534Y-119143908D01*
X134882977Y-119100417D01*
X134981249Y-119049804D01*
X134981252Y-119049802D01*
X134986580Y-119047058D01*
X135152920Y-118916396D01*
X135156852Y-118911865D01*
X135156855Y-118911862D01*
X135287621Y-118761167D01*
X135291552Y-118756637D01*
X135294552Y-118751451D01*
X135294555Y-118751447D01*
X135394467Y-118578742D01*
X135397473Y-118573546D01*
X135466861Y-118373729D01*
X135467855Y-118366876D01*
X135496352Y-118170336D01*
X135496352Y-118170333D01*
X135497213Y-118164396D01*
X135487433Y-117953101D01*
X135455819Y-117821923D01*
X135439281Y-117753299D01*
X135439280Y-117753297D01*
X135437875Y-117747466D01*
X135394525Y-117652122D01*
X135352806Y-117560368D01*
X135350326Y-117554913D01*
X135227946Y-117382389D01*
X135075150Y-117236119D01*
X134897452Y-117121380D01*
X134793043Y-117079302D01*
X134706832Y-117044558D01*
X134706829Y-117044557D01*
X134701263Y-117042314D01*
X134493663Y-117001772D01*
X134488101Y-117001500D01*
X133532154Y-117001500D01*
X133374434Y-117016548D01*
X133171466Y-117076092D01*
X133166139Y-117078836D01*
X133166138Y-117078836D01*
X132988751Y-117170196D01*
X132988748Y-117170198D01*
X132983420Y-117172942D01*
X132817080Y-117303604D01*
X132813148Y-117308135D01*
X132813145Y-117308138D01*
X132744474Y-117387275D01*
X132678448Y-117463363D01*
X132675448Y-117468549D01*
X132675445Y-117468553D01*
X132675275Y-117468847D01*
X132572527Y-117646454D01*
X132503139Y-117846271D01*
X132502278Y-117852206D01*
X132502278Y-117852208D01*
X132501971Y-117854329D01*
X132472787Y-118055604D01*
X106045000Y-118055604D01*
X106045000Y-117841716D01*
X107105352Y-117841716D01*
X107106820Y-117852008D01*
X107120385Y-117856000D01*
X108312885Y-117856000D01*
X108328124Y-117851525D01*
X108329329Y-117850135D01*
X108331000Y-117842452D01*
X108331000Y-117837885D01*
X108839000Y-117837885D01*
X108843475Y-117853124D01*
X108844865Y-117854329D01*
X108852548Y-117856000D01*
X110045402Y-117856000D01*
X110058933Y-117852027D01*
X110060288Y-117842601D01*
X110038806Y-117753463D01*
X110034917Y-117742168D01*
X109952371Y-117560618D01*
X109946424Y-117550276D01*
X109831032Y-117387603D01*
X109823239Y-117378575D01*
X109679169Y-117240658D01*
X109669804Y-117233262D01*
X109502259Y-117125079D01*
X109491655Y-117119583D01*
X109306688Y-117045039D01*
X109295230Y-117041645D01*
X109098072Y-117003143D01*
X109089209Y-117002066D01*
X109086500Y-117002000D01*
X108857115Y-117002000D01*
X108841876Y-117006475D01*
X108840671Y-117007865D01*
X108839000Y-117015548D01*
X108839000Y-117837885D01*
X108331000Y-117837885D01*
X108331000Y-117020115D01*
X108326525Y-117004876D01*
X108325135Y-117003671D01*
X108317452Y-117002000D01*
X108135168Y-117002000D01*
X108129192Y-117002285D01*
X107980506Y-117016471D01*
X107968772Y-117018730D01*
X107777401Y-117074872D01*
X107766325Y-117079302D01*
X107589022Y-117170619D01*
X107578976Y-117177069D01*
X107422143Y-117300262D01*
X107413494Y-117308499D01*
X107282788Y-117459123D01*
X107275853Y-117468847D01*
X107175990Y-117641467D01*
X107171016Y-117652331D01*
X107105593Y-117840727D01*
X107105352Y-117841716D01*
X106045000Y-117841716D01*
X106045000Y-114266695D01*
X110397251Y-114266695D01*
X110397548Y-114271848D01*
X110397548Y-114271851D01*
X110403011Y-114366590D01*
X110410110Y-114489715D01*
X110411247Y-114494761D01*
X110411248Y-114494767D01*
X110431119Y-114582939D01*
X110459222Y-114707639D01*
X110543266Y-114914616D01*
X110567087Y-114953489D01*
X110625213Y-115048341D01*
X110659987Y-115105088D01*
X110806250Y-115273938D01*
X110978126Y-115416632D01*
X111171000Y-115529338D01*
X111379692Y-115609030D01*
X111384760Y-115610061D01*
X111384763Y-115610062D01*
X111492017Y-115631883D01*
X111598597Y-115653567D01*
X111603772Y-115653757D01*
X111603774Y-115653757D01*
X111816673Y-115661564D01*
X111816677Y-115661564D01*
X111821837Y-115661753D01*
X111826957Y-115661097D01*
X111826959Y-115661097D01*
X112038288Y-115634025D01*
X112038289Y-115634025D01*
X112043416Y-115633368D01*
X112048366Y-115631883D01*
X112252429Y-115570661D01*
X112252434Y-115570659D01*
X112257384Y-115569174D01*
X112457994Y-115470896D01*
X112639860Y-115341173D01*
X112681842Y-115299338D01*
X112740488Y-115240896D01*
X112798096Y-115183489D01*
X112810157Y-115166705D01*
X112925435Y-115006277D01*
X112928453Y-115002077D01*
X112945336Y-114967918D01*
X113025136Y-114806453D01*
X113025137Y-114806451D01*
X113027430Y-114801811D01*
X113092370Y-114588069D01*
X113121529Y-114366590D01*
X113123156Y-114300000D01*
X113104852Y-114077361D01*
X113094637Y-114036695D01*
X116747251Y-114036695D01*
X116747548Y-114041848D01*
X116747548Y-114041851D01*
X116753011Y-114136590D01*
X116760110Y-114259715D01*
X116761247Y-114264761D01*
X116761248Y-114264767D01*
X116769947Y-114303365D01*
X116809222Y-114477639D01*
X116893266Y-114684616D01*
X116910307Y-114712425D01*
X116967928Y-114806453D01*
X117009987Y-114875088D01*
X117156250Y-115043938D01*
X117328126Y-115186632D01*
X117521000Y-115299338D01*
X117729692Y-115379030D01*
X117734760Y-115380061D01*
X117734763Y-115380062D01*
X117842017Y-115401883D01*
X117948597Y-115423567D01*
X117953772Y-115423757D01*
X117953774Y-115423757D01*
X118166673Y-115431564D01*
X118166677Y-115431564D01*
X118171837Y-115431753D01*
X118176957Y-115431097D01*
X118176959Y-115431097D01*
X118388288Y-115404025D01*
X118388289Y-115404025D01*
X118393416Y-115403368D01*
X118398366Y-115401883D01*
X118602429Y-115340661D01*
X118602434Y-115340659D01*
X118607384Y-115339174D01*
X118807994Y-115240896D01*
X118989860Y-115111173D01*
X119098091Y-115003319D01*
X119160462Y-114969404D01*
X119231268Y-114974592D01*
X119288030Y-115017238D01*
X119305012Y-115048341D01*
X119328567Y-115111173D01*
X119349385Y-115166705D01*
X119436739Y-115283261D01*
X119553295Y-115370615D01*
X119689684Y-115421745D01*
X119751866Y-115428500D01*
X121548134Y-115428500D01*
X121610316Y-115421745D01*
X121746705Y-115370615D01*
X121863261Y-115283261D01*
X121950615Y-115166705D01*
X121971433Y-115111173D01*
X121994598Y-115049382D01*
X122037240Y-114992618D01*
X122103802Y-114967918D01*
X122173150Y-114983126D01*
X122207817Y-115011114D01*
X122236250Y-115043938D01*
X122408126Y-115186632D01*
X122601000Y-115299338D01*
X122809692Y-115379030D01*
X122814760Y-115380061D01*
X122814763Y-115380062D01*
X122922017Y-115401883D01*
X123028597Y-115423567D01*
X123033772Y-115423757D01*
X123033774Y-115423757D01*
X123246673Y-115431564D01*
X123246677Y-115431564D01*
X123251837Y-115431753D01*
X123256957Y-115431097D01*
X123256959Y-115431097D01*
X123468288Y-115404025D01*
X123468289Y-115404025D01*
X123473416Y-115403368D01*
X123478366Y-115401883D01*
X123682429Y-115340661D01*
X123682434Y-115340659D01*
X123687384Y-115339174D01*
X123887994Y-115240896D01*
X124069860Y-115111173D01*
X124075967Y-115105088D01*
X124175123Y-115006277D01*
X124228096Y-114953489D01*
X124287594Y-114870689D01*
X124355435Y-114776277D01*
X124358453Y-114772077D01*
X124392793Y-114702596D01*
X124455136Y-114576453D01*
X124455137Y-114576451D01*
X124457430Y-114571811D01*
X124522370Y-114358069D01*
X124534400Y-114266695D01*
X128177251Y-114266695D01*
X128177548Y-114271848D01*
X128177548Y-114271851D01*
X128183011Y-114366590D01*
X128190110Y-114489715D01*
X128191247Y-114494761D01*
X128191248Y-114494767D01*
X128211119Y-114582939D01*
X128239222Y-114707639D01*
X128323266Y-114914616D01*
X128347087Y-114953489D01*
X128405213Y-115048341D01*
X128439987Y-115105088D01*
X128586250Y-115273938D01*
X128758126Y-115416632D01*
X128951000Y-115529338D01*
X129159692Y-115609030D01*
X129164760Y-115610061D01*
X129164763Y-115610062D01*
X129272017Y-115631883D01*
X129378597Y-115653567D01*
X129383772Y-115653757D01*
X129383774Y-115653757D01*
X129596673Y-115661564D01*
X129596677Y-115661564D01*
X129601837Y-115661753D01*
X129606957Y-115661097D01*
X129606959Y-115661097D01*
X129818288Y-115634025D01*
X129818289Y-115634025D01*
X129823416Y-115633368D01*
X129828366Y-115631883D01*
X130032429Y-115570661D01*
X130032434Y-115570659D01*
X130037384Y-115569174D01*
X130237994Y-115470896D01*
X130419860Y-115341173D01*
X130461842Y-115299338D01*
X130520488Y-115240896D01*
X130578096Y-115183489D01*
X130590157Y-115166705D01*
X130705435Y-115006277D01*
X130708453Y-115002077D01*
X130725336Y-114967918D01*
X130805136Y-114806453D01*
X130805137Y-114806451D01*
X130807430Y-114801811D01*
X130872370Y-114588069D01*
X130901529Y-114366590D01*
X130903156Y-114300000D01*
X130884852Y-114077361D01*
X130830431Y-113860702D01*
X130741354Y-113655840D01*
X130620014Y-113468277D01*
X130469670Y-113303051D01*
X130465619Y-113299852D01*
X130465615Y-113299848D01*
X130298414Y-113167800D01*
X130298410Y-113167798D01*
X130294359Y-113164598D01*
X130253053Y-113141796D01*
X130203084Y-113091364D01*
X130188312Y-113021921D01*
X130213428Y-112955516D01*
X130240780Y-112928909D01*
X130284603Y-112897650D01*
X130419860Y-112801173D01*
X130446355Y-112774771D01*
X130574435Y-112647137D01*
X130578096Y-112643489D01*
X130637594Y-112560689D01*
X130705435Y-112466277D01*
X130708453Y-112462077D01*
X130807430Y-112261811D01*
X130872370Y-112048069D01*
X130901529Y-111826590D01*
X130903156Y-111760000D01*
X130884852Y-111537361D01*
X130830431Y-111320702D01*
X130741354Y-111115840D01*
X130620014Y-110928277D01*
X130616540Y-110924459D01*
X130616533Y-110924450D01*
X130472435Y-110766088D01*
X130441383Y-110702242D01*
X130449779Y-110631744D01*
X130494956Y-110576976D01*
X130521400Y-110563307D01*
X130628052Y-110523325D01*
X130643649Y-110514786D01*
X130745724Y-110438285D01*
X130758285Y-110425724D01*
X130834786Y-110323649D01*
X130843324Y-110308054D01*
X130888478Y-110187606D01*
X130892105Y-110172351D01*
X130897631Y-110121486D01*
X130898000Y-110114672D01*
X130898000Y-109492115D01*
X130893525Y-109476876D01*
X130892135Y-109475671D01*
X130884452Y-109474000D01*
X128200116Y-109474000D01*
X128184877Y-109478475D01*
X128183672Y-109479865D01*
X128182001Y-109487548D01*
X128182001Y-110114669D01*
X128182371Y-110121490D01*
X128187895Y-110172352D01*
X128191521Y-110187604D01*
X128236676Y-110308054D01*
X128245214Y-110323649D01*
X128321715Y-110425724D01*
X128334276Y-110438285D01*
X128436351Y-110514786D01*
X128451946Y-110523324D01*
X128560827Y-110564142D01*
X128617591Y-110606784D01*
X128642291Y-110673345D01*
X128627083Y-110742694D01*
X128607691Y-110769175D01*
X128484200Y-110898401D01*
X128480629Y-110902138D01*
X128354743Y-111086680D01*
X128260688Y-111289305D01*
X128200989Y-111504570D01*
X128177251Y-111726695D01*
X128177548Y-111731848D01*
X128177548Y-111731851D01*
X128183011Y-111826590D01*
X128190110Y-111949715D01*
X128191247Y-111954761D01*
X128191248Y-111954767D01*
X128211119Y-112042939D01*
X128239222Y-112167639D01*
X128323266Y-112374616D01*
X128439987Y-112565088D01*
X128586250Y-112733938D01*
X128758126Y-112876632D01*
X128822276Y-112914118D01*
X128831445Y-112919476D01*
X128880169Y-112971114D01*
X128893240Y-113040897D01*
X128866509Y-113106669D01*
X128826055Y-113140027D01*
X128813607Y-113146507D01*
X128809474Y-113149610D01*
X128809471Y-113149612D01*
X128685600Y-113242617D01*
X128634965Y-113280635D01*
X128631393Y-113284373D01*
X128491665Y-113430590D01*
X128480629Y-113442138D01*
X128354743Y-113626680D01*
X128339003Y-113660590D01*
X128267528Y-113814570D01*
X128260688Y-113829305D01*
X128200989Y-114044570D01*
X128177251Y-114266695D01*
X124534400Y-114266695D01*
X124551529Y-114136590D01*
X124553156Y-114070000D01*
X124534852Y-113847361D01*
X124480431Y-113630702D01*
X124391354Y-113425840D01*
X124270014Y-113238277D01*
X124119670Y-113073051D01*
X124115619Y-113069852D01*
X124115615Y-113069848D01*
X123948414Y-112937800D01*
X123948410Y-112937798D01*
X123944359Y-112934598D01*
X123934054Y-112928909D01*
X123833366Y-112873327D01*
X123748789Y-112826638D01*
X123743920Y-112824914D01*
X123743916Y-112824912D01*
X123543087Y-112753795D01*
X123543083Y-112753794D01*
X123538212Y-112752069D01*
X123533119Y-112751162D01*
X123533116Y-112751161D01*
X123323373Y-112713800D01*
X123323367Y-112713799D01*
X123318284Y-112712894D01*
X123244452Y-112711992D01*
X123100081Y-112710228D01*
X123100079Y-112710228D01*
X123094911Y-112710165D01*
X122874091Y-112743955D01*
X122661756Y-112813357D01*
X122463607Y-112916507D01*
X122459474Y-112919610D01*
X122459471Y-112919612D01*
X122294658Y-113043357D01*
X122284965Y-113050635D01*
X122228537Y-113109684D01*
X122204283Y-113135064D01*
X122142759Y-113170494D01*
X122071846Y-113167037D01*
X122014060Y-113125791D01*
X121995207Y-113092243D01*
X121953767Y-112981703D01*
X121950615Y-112973295D01*
X121863261Y-112856739D01*
X121746705Y-112769385D01*
X121610316Y-112718255D01*
X121548134Y-112711500D01*
X119751866Y-112711500D01*
X119689684Y-112718255D01*
X119553295Y-112769385D01*
X119436739Y-112856739D01*
X119349385Y-112973295D01*
X119346233Y-112981703D01*
X119304919Y-113091907D01*
X119262277Y-113148671D01*
X119195716Y-113173371D01*
X119126367Y-113158163D01*
X119093743Y-113132476D01*
X119043151Y-113076875D01*
X119043142Y-113076866D01*
X119039670Y-113073051D01*
X119035619Y-113069852D01*
X119035615Y-113069848D01*
X118868414Y-112937800D01*
X118868410Y-112937798D01*
X118864359Y-112934598D01*
X118854054Y-112928909D01*
X118753366Y-112873327D01*
X118668789Y-112826638D01*
X118663920Y-112824914D01*
X118663916Y-112824912D01*
X118463087Y-112753795D01*
X118463083Y-112753794D01*
X118458212Y-112752069D01*
X118453119Y-112751162D01*
X118453116Y-112751161D01*
X118243373Y-112713800D01*
X118243367Y-112713799D01*
X118238284Y-112712894D01*
X118164452Y-112711992D01*
X118020081Y-112710228D01*
X118020079Y-112710228D01*
X118014911Y-112710165D01*
X117794091Y-112743955D01*
X117581756Y-112813357D01*
X117383607Y-112916507D01*
X117379474Y-112919610D01*
X117379471Y-112919612D01*
X117214658Y-113043357D01*
X117204965Y-113050635D01*
X117166043Y-113091364D01*
X117093729Y-113167037D01*
X117050629Y-113212138D01*
X117047715Y-113216410D01*
X117047714Y-113216411D01*
X117001354Y-113284373D01*
X116924743Y-113396680D01*
X116830688Y-113599305D01*
X116770989Y-113814570D01*
X116747251Y-114036695D01*
X113094637Y-114036695D01*
X113050431Y-113860702D01*
X112961354Y-113655840D01*
X112840014Y-113468277D01*
X112689670Y-113303051D01*
X112685619Y-113299852D01*
X112685615Y-113299848D01*
X112518414Y-113167800D01*
X112518410Y-113167798D01*
X112514359Y-113164598D01*
X112473053Y-113141796D01*
X112423084Y-113091364D01*
X112408312Y-113021921D01*
X112433428Y-112955516D01*
X112460780Y-112928909D01*
X112504603Y-112897650D01*
X112639860Y-112801173D01*
X112666355Y-112774771D01*
X112794435Y-112647137D01*
X112798096Y-112643489D01*
X112857594Y-112560689D01*
X112925435Y-112466277D01*
X112928453Y-112462077D01*
X113027430Y-112261811D01*
X113092370Y-112048069D01*
X113121529Y-111826590D01*
X113123156Y-111760000D01*
X113104852Y-111537361D01*
X113050431Y-111320702D01*
X112961354Y-111115840D01*
X112840014Y-110928277D01*
X112836540Y-110924459D01*
X112836533Y-110924450D01*
X112692435Y-110766088D01*
X112661383Y-110702242D01*
X112669779Y-110631744D01*
X112714956Y-110576976D01*
X112741400Y-110563307D01*
X112848052Y-110523325D01*
X112863649Y-110514786D01*
X112965724Y-110438285D01*
X112978285Y-110425724D01*
X113054786Y-110323649D01*
X113063324Y-110308054D01*
X113108478Y-110187606D01*
X113112105Y-110172351D01*
X113117631Y-110121486D01*
X113118000Y-110114672D01*
X113118000Y-109492115D01*
X113113525Y-109476876D01*
X113112135Y-109475671D01*
X113104452Y-109474000D01*
X110420116Y-109474000D01*
X110404877Y-109478475D01*
X110403672Y-109479865D01*
X110402001Y-109487548D01*
X110402001Y-110114669D01*
X110402371Y-110121490D01*
X110407895Y-110172352D01*
X110411521Y-110187604D01*
X110456676Y-110308054D01*
X110465214Y-110323649D01*
X110541715Y-110425724D01*
X110554276Y-110438285D01*
X110656351Y-110514786D01*
X110671946Y-110523324D01*
X110780827Y-110564142D01*
X110837591Y-110606784D01*
X110862291Y-110673345D01*
X110847083Y-110742694D01*
X110827691Y-110769175D01*
X110704200Y-110898401D01*
X110700629Y-110902138D01*
X110574743Y-111086680D01*
X110480688Y-111289305D01*
X110420989Y-111504570D01*
X110397251Y-111726695D01*
X110397548Y-111731848D01*
X110397548Y-111731851D01*
X110403011Y-111826590D01*
X110410110Y-111949715D01*
X110411247Y-111954761D01*
X110411248Y-111954767D01*
X110431119Y-112042939D01*
X110459222Y-112167639D01*
X110543266Y-112374616D01*
X110659987Y-112565088D01*
X110806250Y-112733938D01*
X110978126Y-112876632D01*
X111042276Y-112914118D01*
X111051445Y-112919476D01*
X111100169Y-112971114D01*
X111113240Y-113040897D01*
X111086509Y-113106669D01*
X111046055Y-113140027D01*
X111033607Y-113146507D01*
X111029474Y-113149610D01*
X111029471Y-113149612D01*
X110905600Y-113242617D01*
X110854965Y-113280635D01*
X110851393Y-113284373D01*
X110711665Y-113430590D01*
X110700629Y-113442138D01*
X110574743Y-113626680D01*
X110559003Y-113660590D01*
X110487528Y-113814570D01*
X110480688Y-113829305D01*
X110420989Y-114044570D01*
X110397251Y-114266695D01*
X106045000Y-114266695D01*
X106045000Y-106646695D01*
X110397251Y-106646695D01*
X110397548Y-106651848D01*
X110397548Y-106651851D01*
X110403011Y-106746590D01*
X110410110Y-106869715D01*
X110411247Y-106874761D01*
X110411248Y-106874767D01*
X110431119Y-106962939D01*
X110459222Y-107087639D01*
X110543266Y-107294616D01*
X110659987Y-107485088D01*
X110806250Y-107653938D01*
X110810225Y-107657238D01*
X110810231Y-107657244D01*
X110815425Y-107661556D01*
X110855059Y-107720460D01*
X110856555Y-107791441D01*
X110819439Y-107851962D01*
X110779168Y-107876480D01*
X110671946Y-107916676D01*
X110656351Y-107925214D01*
X110554276Y-108001715D01*
X110541715Y-108014276D01*
X110465214Y-108116351D01*
X110456676Y-108131946D01*
X110411522Y-108252394D01*
X110407895Y-108267649D01*
X110402369Y-108318514D01*
X110402000Y-108325328D01*
X110402000Y-108947885D01*
X110406475Y-108963124D01*
X110407865Y-108964329D01*
X110415548Y-108966000D01*
X113099884Y-108966000D01*
X113115123Y-108961525D01*
X113116328Y-108960135D01*
X113117999Y-108952452D01*
X113117999Y-108325331D01*
X113117629Y-108318510D01*
X113112105Y-108267648D01*
X113108479Y-108252396D01*
X113063324Y-108131946D01*
X113054786Y-108116351D01*
X112978285Y-108014276D01*
X112965724Y-108001715D01*
X112863649Y-107925214D01*
X112848054Y-107916676D01*
X112737813Y-107875348D01*
X112681049Y-107832706D01*
X112656349Y-107766145D01*
X112671557Y-107696796D01*
X112693104Y-107668115D01*
X112794430Y-107567144D01*
X112794440Y-107567132D01*
X112798096Y-107563489D01*
X112857594Y-107480689D01*
X112925435Y-107386277D01*
X112928453Y-107382077D01*
X113027430Y-107181811D01*
X113092370Y-106968069D01*
X113121529Y-106746590D01*
X113123156Y-106680000D01*
X113120418Y-106646695D01*
X128177251Y-106646695D01*
X128177548Y-106651848D01*
X128177548Y-106651851D01*
X128183011Y-106746590D01*
X128190110Y-106869715D01*
X128191247Y-106874761D01*
X128191248Y-106874767D01*
X128211119Y-106962939D01*
X128239222Y-107087639D01*
X128323266Y-107294616D01*
X128439987Y-107485088D01*
X128586250Y-107653938D01*
X128590225Y-107657238D01*
X128590231Y-107657244D01*
X128595425Y-107661556D01*
X128635059Y-107720460D01*
X128636555Y-107791441D01*
X128599439Y-107851962D01*
X128559168Y-107876480D01*
X128451946Y-107916676D01*
X128436351Y-107925214D01*
X128334276Y-108001715D01*
X128321715Y-108014276D01*
X128245214Y-108116351D01*
X128236676Y-108131946D01*
X128191522Y-108252394D01*
X128187895Y-108267649D01*
X128182369Y-108318514D01*
X128182000Y-108325328D01*
X128182000Y-108947885D01*
X128186475Y-108963124D01*
X128187865Y-108964329D01*
X128195548Y-108966000D01*
X130879884Y-108966000D01*
X130895123Y-108961525D01*
X130896328Y-108960135D01*
X130897999Y-108952452D01*
X130897999Y-108325331D01*
X130897629Y-108318510D01*
X130892105Y-108267648D01*
X130888479Y-108252396D01*
X130843324Y-108131946D01*
X130834786Y-108116351D01*
X130758285Y-108014276D01*
X130745724Y-108001715D01*
X130643649Y-107925214D01*
X130628054Y-107916676D01*
X130517813Y-107875348D01*
X130461049Y-107832706D01*
X130436349Y-107766145D01*
X130451557Y-107696796D01*
X130473104Y-107668115D01*
X130574430Y-107567144D01*
X130574440Y-107567132D01*
X130578096Y-107563489D01*
X130637594Y-107480689D01*
X130705435Y-107386277D01*
X130708453Y-107382077D01*
X130807430Y-107181811D01*
X130872370Y-106968069D01*
X130901529Y-106746590D01*
X130903156Y-106680000D01*
X130884852Y-106457361D01*
X130830431Y-106240702D01*
X130741354Y-106035840D01*
X130620014Y-105848277D01*
X130469670Y-105683051D01*
X130465619Y-105679852D01*
X130465615Y-105679848D01*
X130298414Y-105547800D01*
X130298410Y-105547798D01*
X130294359Y-105544598D01*
X130253053Y-105521796D01*
X130203084Y-105471364D01*
X130188312Y-105401921D01*
X130213428Y-105335516D01*
X130240780Y-105308909D01*
X130284603Y-105277650D01*
X130419860Y-105181173D01*
X130578096Y-105023489D01*
X130637594Y-104940689D01*
X130705435Y-104846277D01*
X130708453Y-104842077D01*
X130807430Y-104641811D01*
X130872370Y-104428069D01*
X130901529Y-104206590D01*
X130903156Y-104140000D01*
X130884852Y-103917361D01*
X130830431Y-103700702D01*
X130741354Y-103495840D01*
X130620014Y-103308277D01*
X130469670Y-103143051D01*
X130465619Y-103139852D01*
X130465615Y-103139848D01*
X130298414Y-103007800D01*
X130298410Y-103007798D01*
X130294359Y-103004598D01*
X130253053Y-102981796D01*
X130203084Y-102931364D01*
X130188312Y-102861921D01*
X130213428Y-102795516D01*
X130240780Y-102768909D01*
X130284603Y-102737650D01*
X130419860Y-102641173D01*
X130578096Y-102483489D01*
X130637594Y-102400689D01*
X130705435Y-102306277D01*
X130708453Y-102302077D01*
X130807430Y-102101811D01*
X130872370Y-101888069D01*
X130901529Y-101666590D01*
X130903156Y-101600000D01*
X130884852Y-101377361D01*
X130830431Y-101160702D01*
X130741354Y-100955840D01*
X130620014Y-100768277D01*
X130469670Y-100603051D01*
X130465619Y-100599852D01*
X130465615Y-100599848D01*
X130298414Y-100467800D01*
X130298410Y-100467798D01*
X130294359Y-100464598D01*
X130253053Y-100441796D01*
X130203084Y-100391364D01*
X130188312Y-100321921D01*
X130213428Y-100255516D01*
X130240780Y-100228909D01*
X130284603Y-100197650D01*
X130419860Y-100101173D01*
X130578096Y-99943489D01*
X130637594Y-99860689D01*
X130705435Y-99766277D01*
X130708453Y-99762077D01*
X130807430Y-99561811D01*
X130872370Y-99348069D01*
X130901529Y-99126590D01*
X130903156Y-99060000D01*
X130884852Y-98837361D01*
X130830431Y-98620702D01*
X130741354Y-98415840D01*
X130620014Y-98228277D01*
X130616540Y-98224459D01*
X130616533Y-98224450D01*
X130472435Y-98066088D01*
X130441383Y-98002242D01*
X130449779Y-97931744D01*
X130494956Y-97876976D01*
X130521400Y-97863307D01*
X130628052Y-97823325D01*
X130643649Y-97814786D01*
X130745724Y-97738285D01*
X130758285Y-97725724D01*
X130834786Y-97623649D01*
X130843324Y-97608054D01*
X130888478Y-97487606D01*
X130892105Y-97472351D01*
X130897631Y-97421486D01*
X130898000Y-97414672D01*
X130898000Y-96792115D01*
X130893525Y-96776876D01*
X130892135Y-96775671D01*
X130884452Y-96774000D01*
X128200116Y-96774000D01*
X128184877Y-96778475D01*
X128183672Y-96779865D01*
X128182001Y-96787548D01*
X128182001Y-97414669D01*
X128182371Y-97421490D01*
X128187895Y-97472352D01*
X128191521Y-97487604D01*
X128236676Y-97608054D01*
X128245214Y-97623649D01*
X128321715Y-97725724D01*
X128334276Y-97738285D01*
X128436351Y-97814786D01*
X128451946Y-97823324D01*
X128560827Y-97864142D01*
X128617591Y-97906784D01*
X128642291Y-97973345D01*
X128627083Y-98042694D01*
X128607691Y-98069175D01*
X128484200Y-98198401D01*
X128480629Y-98202138D01*
X128354743Y-98386680D01*
X128260688Y-98589305D01*
X128200989Y-98804570D01*
X128177251Y-99026695D01*
X128177548Y-99031848D01*
X128177548Y-99031851D01*
X128183011Y-99126590D01*
X128190110Y-99249715D01*
X128191247Y-99254761D01*
X128191248Y-99254767D01*
X128211119Y-99342939D01*
X128239222Y-99467639D01*
X128323266Y-99674616D01*
X128439987Y-99865088D01*
X128586250Y-100033938D01*
X128758126Y-100176632D01*
X128828595Y-100217811D01*
X128831445Y-100219476D01*
X128880169Y-100271114D01*
X128893240Y-100340897D01*
X128866509Y-100406669D01*
X128826055Y-100440027D01*
X128813607Y-100446507D01*
X128809474Y-100449610D01*
X128809471Y-100449612D01*
X128785247Y-100467800D01*
X128634965Y-100580635D01*
X128480629Y-100742138D01*
X128354743Y-100926680D01*
X128260688Y-101129305D01*
X128200989Y-101344570D01*
X128177251Y-101566695D01*
X128177548Y-101571848D01*
X128177548Y-101571851D01*
X128183011Y-101666590D01*
X128190110Y-101789715D01*
X128191247Y-101794761D01*
X128191248Y-101794767D01*
X128211119Y-101882939D01*
X128239222Y-102007639D01*
X128323266Y-102214616D01*
X128439987Y-102405088D01*
X128586250Y-102573938D01*
X128758126Y-102716632D01*
X128828595Y-102757811D01*
X128831445Y-102759476D01*
X128880169Y-102811114D01*
X128893240Y-102880897D01*
X128866509Y-102946669D01*
X128826055Y-102980027D01*
X128813607Y-102986507D01*
X128809474Y-102989610D01*
X128809471Y-102989612D01*
X128785247Y-103007800D01*
X128634965Y-103120635D01*
X128480629Y-103282138D01*
X128354743Y-103466680D01*
X128260688Y-103669305D01*
X128200989Y-103884570D01*
X128177251Y-104106695D01*
X128177548Y-104111848D01*
X128177548Y-104111851D01*
X128183011Y-104206590D01*
X128190110Y-104329715D01*
X128191247Y-104334761D01*
X128191248Y-104334767D01*
X128211119Y-104422939D01*
X128239222Y-104547639D01*
X128323266Y-104754616D01*
X128439987Y-104945088D01*
X128586250Y-105113938D01*
X128758126Y-105256632D01*
X128828595Y-105297811D01*
X128831445Y-105299476D01*
X128880169Y-105351114D01*
X128893240Y-105420897D01*
X128866509Y-105486669D01*
X128826055Y-105520027D01*
X128813607Y-105526507D01*
X128809474Y-105529610D01*
X128809471Y-105529612D01*
X128785247Y-105547800D01*
X128634965Y-105660635D01*
X128480629Y-105822138D01*
X128354743Y-106006680D01*
X128260688Y-106209305D01*
X128200989Y-106424570D01*
X128177251Y-106646695D01*
X113120418Y-106646695D01*
X113104852Y-106457361D01*
X113050431Y-106240702D01*
X112961354Y-106035840D01*
X112840014Y-105848277D01*
X112689670Y-105683051D01*
X112685619Y-105679852D01*
X112685615Y-105679848D01*
X112518414Y-105547800D01*
X112518410Y-105547798D01*
X112514359Y-105544598D01*
X112473053Y-105521796D01*
X112423084Y-105471364D01*
X112408312Y-105401921D01*
X112433428Y-105335516D01*
X112460780Y-105308909D01*
X112504603Y-105277650D01*
X112639860Y-105181173D01*
X112798096Y-105023489D01*
X112857594Y-104940689D01*
X112925435Y-104846277D01*
X112928453Y-104842077D01*
X113027430Y-104641811D01*
X113092370Y-104428069D01*
X113121529Y-104206590D01*
X113123156Y-104140000D01*
X113104852Y-103917361D01*
X113050431Y-103700702D01*
X112961354Y-103495840D01*
X112840014Y-103308277D01*
X112689670Y-103143051D01*
X112685619Y-103139852D01*
X112685615Y-103139848D01*
X112518414Y-103007800D01*
X112518410Y-103007798D01*
X112514359Y-103004598D01*
X112473053Y-102981796D01*
X112423084Y-102931364D01*
X112408312Y-102861921D01*
X112433428Y-102795516D01*
X112460780Y-102768909D01*
X112504603Y-102737650D01*
X112639860Y-102641173D01*
X112798096Y-102483489D01*
X112857594Y-102400689D01*
X112925435Y-102306277D01*
X112928453Y-102302077D01*
X113027430Y-102101811D01*
X113092370Y-101888069D01*
X113121529Y-101666590D01*
X113123156Y-101600000D01*
X113104852Y-101377361D01*
X113050431Y-101160702D01*
X112961354Y-100955840D01*
X112840014Y-100768277D01*
X112689670Y-100603051D01*
X112685619Y-100599852D01*
X112685615Y-100599848D01*
X112518414Y-100467800D01*
X112518410Y-100467798D01*
X112514359Y-100464598D01*
X112473053Y-100441796D01*
X112423084Y-100391364D01*
X112408312Y-100321921D01*
X112433428Y-100255516D01*
X112460780Y-100228909D01*
X112504603Y-100197650D01*
X112639860Y-100101173D01*
X112798096Y-99943489D01*
X112857594Y-99860689D01*
X112925435Y-99766277D01*
X112928453Y-99762077D01*
X113027430Y-99561811D01*
X113092370Y-99348069D01*
X113121529Y-99126590D01*
X113123156Y-99060000D01*
X113104852Y-98837361D01*
X113050431Y-98620702D01*
X112961354Y-98415840D01*
X112840014Y-98228277D01*
X112836540Y-98224459D01*
X112836533Y-98224450D01*
X112692435Y-98066088D01*
X112661383Y-98002242D01*
X112669779Y-97931744D01*
X112714956Y-97876976D01*
X112741400Y-97863307D01*
X112848052Y-97823325D01*
X112863649Y-97814786D01*
X112965724Y-97738285D01*
X112978285Y-97725724D01*
X113054786Y-97623649D01*
X113063324Y-97608054D01*
X113108478Y-97487606D01*
X113112105Y-97472351D01*
X113117631Y-97421486D01*
X113118000Y-97414672D01*
X113118000Y-96792115D01*
X113113525Y-96776876D01*
X113112135Y-96775671D01*
X113104452Y-96774000D01*
X110420116Y-96774000D01*
X110404877Y-96778475D01*
X110403672Y-96779865D01*
X110402001Y-96787548D01*
X110402001Y-97414669D01*
X110402371Y-97421490D01*
X110407895Y-97472352D01*
X110411521Y-97487604D01*
X110456676Y-97608054D01*
X110465214Y-97623649D01*
X110541715Y-97725724D01*
X110554276Y-97738285D01*
X110656351Y-97814786D01*
X110671946Y-97823324D01*
X110780827Y-97864142D01*
X110837591Y-97906784D01*
X110862291Y-97973345D01*
X110847083Y-98042694D01*
X110827691Y-98069175D01*
X110704200Y-98198401D01*
X110700629Y-98202138D01*
X110574743Y-98386680D01*
X110480688Y-98589305D01*
X110420989Y-98804570D01*
X110397251Y-99026695D01*
X110397548Y-99031848D01*
X110397548Y-99031851D01*
X110403011Y-99126590D01*
X110410110Y-99249715D01*
X110411247Y-99254761D01*
X110411248Y-99254767D01*
X110431119Y-99342939D01*
X110459222Y-99467639D01*
X110543266Y-99674616D01*
X110659987Y-99865088D01*
X110806250Y-100033938D01*
X110978126Y-100176632D01*
X111048595Y-100217811D01*
X111051445Y-100219476D01*
X111100169Y-100271114D01*
X111113240Y-100340897D01*
X111086509Y-100406669D01*
X111046055Y-100440027D01*
X111033607Y-100446507D01*
X111029474Y-100449610D01*
X111029471Y-100449612D01*
X111005247Y-100467800D01*
X110854965Y-100580635D01*
X110700629Y-100742138D01*
X110574743Y-100926680D01*
X110480688Y-101129305D01*
X110420989Y-101344570D01*
X110397251Y-101566695D01*
X110397548Y-101571848D01*
X110397548Y-101571851D01*
X110403011Y-101666590D01*
X110410110Y-101789715D01*
X110411247Y-101794761D01*
X110411248Y-101794767D01*
X110431119Y-101882939D01*
X110459222Y-102007639D01*
X110543266Y-102214616D01*
X110659987Y-102405088D01*
X110806250Y-102573938D01*
X110978126Y-102716632D01*
X111048595Y-102757811D01*
X111051445Y-102759476D01*
X111100169Y-102811114D01*
X111113240Y-102880897D01*
X111086509Y-102946669D01*
X111046055Y-102980027D01*
X111033607Y-102986507D01*
X111029474Y-102989610D01*
X111029471Y-102989612D01*
X111005247Y-103007800D01*
X110854965Y-103120635D01*
X110700629Y-103282138D01*
X110574743Y-103466680D01*
X110480688Y-103669305D01*
X110420989Y-103884570D01*
X110397251Y-104106695D01*
X110397548Y-104111848D01*
X110397548Y-104111851D01*
X110403011Y-104206590D01*
X110410110Y-104329715D01*
X110411247Y-104334761D01*
X110411248Y-104334767D01*
X110431119Y-104422939D01*
X110459222Y-104547639D01*
X110543266Y-104754616D01*
X110659987Y-104945088D01*
X110806250Y-105113938D01*
X110978126Y-105256632D01*
X111048595Y-105297811D01*
X111051445Y-105299476D01*
X111100169Y-105351114D01*
X111113240Y-105420897D01*
X111086509Y-105486669D01*
X111046055Y-105520027D01*
X111033607Y-105526507D01*
X111029474Y-105529610D01*
X111029471Y-105529612D01*
X111005247Y-105547800D01*
X110854965Y-105660635D01*
X110700629Y-105822138D01*
X110574743Y-106006680D01*
X110480688Y-106209305D01*
X110420989Y-106424570D01*
X110397251Y-106646695D01*
X106045000Y-106646695D01*
X106045000Y-93946695D01*
X110397251Y-93946695D01*
X110397548Y-93951848D01*
X110397548Y-93951851D01*
X110403011Y-94046590D01*
X110410110Y-94169715D01*
X110411247Y-94174761D01*
X110411248Y-94174767D01*
X110431119Y-94262939D01*
X110459222Y-94387639D01*
X110543266Y-94594616D01*
X110659987Y-94785088D01*
X110806250Y-94953938D01*
X110810225Y-94957238D01*
X110810231Y-94957244D01*
X110815425Y-94961556D01*
X110855059Y-95020460D01*
X110856555Y-95091441D01*
X110819439Y-95151962D01*
X110779168Y-95176480D01*
X110671946Y-95216676D01*
X110656351Y-95225214D01*
X110554276Y-95301715D01*
X110541715Y-95314276D01*
X110465214Y-95416351D01*
X110456676Y-95431946D01*
X110411522Y-95552394D01*
X110407895Y-95567649D01*
X110402369Y-95618514D01*
X110402000Y-95625328D01*
X110402000Y-96247885D01*
X110406475Y-96263124D01*
X110407865Y-96264329D01*
X110415548Y-96266000D01*
X113099884Y-96266000D01*
X113115123Y-96261525D01*
X113116328Y-96260135D01*
X113117999Y-96252452D01*
X113117999Y-95625331D01*
X113117629Y-95618510D01*
X113112105Y-95567648D01*
X113108479Y-95552396D01*
X113063324Y-95431946D01*
X113054786Y-95416351D01*
X112978285Y-95314276D01*
X112965724Y-95301715D01*
X112863649Y-95225214D01*
X112848054Y-95216676D01*
X112737813Y-95175348D01*
X112681049Y-95132706D01*
X112656349Y-95066145D01*
X112671557Y-94996796D01*
X112693104Y-94968115D01*
X112794430Y-94867144D01*
X112794440Y-94867132D01*
X112798096Y-94863489D01*
X112857594Y-94780689D01*
X112925435Y-94686277D01*
X112928453Y-94682077D01*
X113027430Y-94481811D01*
X113092370Y-94268069D01*
X113121529Y-94046590D01*
X113123156Y-93980000D01*
X113120418Y-93946695D01*
X128177251Y-93946695D01*
X128177548Y-93951848D01*
X128177548Y-93951851D01*
X128183011Y-94046590D01*
X128190110Y-94169715D01*
X128191247Y-94174761D01*
X128191248Y-94174767D01*
X128211119Y-94262939D01*
X128239222Y-94387639D01*
X128323266Y-94594616D01*
X128439987Y-94785088D01*
X128586250Y-94953938D01*
X128590225Y-94957238D01*
X128590231Y-94957244D01*
X128595425Y-94961556D01*
X128635059Y-95020460D01*
X128636555Y-95091441D01*
X128599439Y-95151962D01*
X128559168Y-95176480D01*
X128451946Y-95216676D01*
X128436351Y-95225214D01*
X128334276Y-95301715D01*
X128321715Y-95314276D01*
X128245214Y-95416351D01*
X128236676Y-95431946D01*
X128191522Y-95552394D01*
X128187895Y-95567649D01*
X128182369Y-95618514D01*
X128182000Y-95625328D01*
X128182000Y-96247885D01*
X128186475Y-96263124D01*
X128187865Y-96264329D01*
X128195548Y-96266000D01*
X130879884Y-96266000D01*
X130895123Y-96261525D01*
X130896328Y-96260135D01*
X130897999Y-96252452D01*
X130897999Y-95625331D01*
X130897629Y-95618510D01*
X130892105Y-95567648D01*
X130888479Y-95552396D01*
X130843324Y-95431946D01*
X130834786Y-95416351D01*
X130758285Y-95314276D01*
X130745724Y-95301715D01*
X130643649Y-95225214D01*
X130628054Y-95216676D01*
X130517813Y-95175348D01*
X130461049Y-95132706D01*
X130436349Y-95066145D01*
X130451557Y-94996796D01*
X130473104Y-94968115D01*
X130574430Y-94867144D01*
X130574440Y-94867132D01*
X130578096Y-94863489D01*
X130637594Y-94780689D01*
X130705435Y-94686277D01*
X130708453Y-94682077D01*
X130807430Y-94481811D01*
X130872370Y-94268069D01*
X130901529Y-94046590D01*
X130903156Y-93980000D01*
X130884852Y-93757361D01*
X130830431Y-93540702D01*
X130741354Y-93335840D01*
X130620014Y-93148277D01*
X130469670Y-92983051D01*
X130465619Y-92979852D01*
X130465615Y-92979848D01*
X130298414Y-92847800D01*
X130298410Y-92847798D01*
X130294359Y-92844598D01*
X130253053Y-92821796D01*
X130203084Y-92771364D01*
X130188312Y-92701921D01*
X130213428Y-92635516D01*
X130240780Y-92608909D01*
X130284603Y-92577650D01*
X130419860Y-92481173D01*
X130578096Y-92323489D01*
X130637594Y-92240689D01*
X130705435Y-92146277D01*
X130708453Y-92142077D01*
X130807430Y-91941811D01*
X130872370Y-91728069D01*
X130901529Y-91506590D01*
X130903156Y-91440000D01*
X130884852Y-91217361D01*
X130830431Y-91000702D01*
X130741354Y-90795840D01*
X130620014Y-90608277D01*
X130469670Y-90443051D01*
X130465619Y-90439852D01*
X130465615Y-90439848D01*
X130298414Y-90307800D01*
X130298410Y-90307798D01*
X130294359Y-90304598D01*
X130253053Y-90281796D01*
X130203084Y-90231364D01*
X130188312Y-90161921D01*
X130213428Y-90095516D01*
X130240780Y-90068909D01*
X130284603Y-90037650D01*
X130419860Y-89941173D01*
X130578096Y-89783489D01*
X130637594Y-89700689D01*
X130705435Y-89606277D01*
X130708453Y-89602077D01*
X130807430Y-89401811D01*
X130872370Y-89188069D01*
X130901529Y-88966590D01*
X130903156Y-88900000D01*
X130884852Y-88677361D01*
X130830431Y-88460702D01*
X130741354Y-88255840D01*
X130620014Y-88068277D01*
X130469670Y-87903051D01*
X130465619Y-87899852D01*
X130465615Y-87899848D01*
X130298414Y-87767800D01*
X130298410Y-87767798D01*
X130294359Y-87764598D01*
X130253053Y-87741796D01*
X130203084Y-87691364D01*
X130188312Y-87621921D01*
X130213428Y-87555516D01*
X130240780Y-87528909D01*
X130284603Y-87497650D01*
X130419860Y-87401173D01*
X130578096Y-87243489D01*
X130637594Y-87160689D01*
X130705435Y-87066277D01*
X130708453Y-87062077D01*
X130807430Y-86861811D01*
X130872370Y-86648069D01*
X130901529Y-86426590D01*
X130903156Y-86360000D01*
X130884852Y-86137361D01*
X130830431Y-85920702D01*
X130741354Y-85715840D01*
X130620014Y-85528277D01*
X130616532Y-85524450D01*
X130472798Y-85366488D01*
X130441746Y-85302642D01*
X130450141Y-85232143D01*
X130495317Y-85177375D01*
X130521761Y-85163706D01*
X130628297Y-85123767D01*
X130636705Y-85120615D01*
X130753261Y-85033261D01*
X130840615Y-84916705D01*
X130891745Y-84780316D01*
X130898500Y-84718134D01*
X130898500Y-82921866D01*
X130891745Y-82859684D01*
X130840615Y-82723295D01*
X130753261Y-82606739D01*
X130636705Y-82519385D01*
X130609905Y-82509338D01*
X130518203Y-82474960D01*
X130461439Y-82432318D01*
X130436739Y-82365756D01*
X130451947Y-82296408D01*
X130473493Y-82267727D01*
X130574435Y-82167137D01*
X130578096Y-82163489D01*
X130637594Y-82080689D01*
X130705435Y-81986277D01*
X130708453Y-81982077D01*
X130807430Y-81781811D01*
X130872370Y-81568069D01*
X130901529Y-81346590D01*
X130903156Y-81280000D01*
X130884852Y-81057361D01*
X130830431Y-80840702D01*
X130741354Y-80635840D01*
X130620014Y-80448277D01*
X130469670Y-80283051D01*
X130465619Y-80279852D01*
X130465615Y-80279848D01*
X130298414Y-80147800D01*
X130298410Y-80147798D01*
X130294359Y-80144598D01*
X130253053Y-80121796D01*
X130203084Y-80071364D01*
X130188312Y-80001921D01*
X130213428Y-79935516D01*
X130240780Y-79908909D01*
X130284603Y-79877650D01*
X130419860Y-79781173D01*
X130578096Y-79623489D01*
X130637594Y-79540689D01*
X130705435Y-79446277D01*
X130708453Y-79442077D01*
X130807430Y-79241811D01*
X130872370Y-79028069D01*
X130901529Y-78806590D01*
X130903156Y-78740000D01*
X130884852Y-78517361D01*
X130830431Y-78300702D01*
X130741354Y-78095840D01*
X130620014Y-77908277D01*
X130469670Y-77743051D01*
X130465619Y-77739852D01*
X130465615Y-77739848D01*
X130298414Y-77607800D01*
X130298410Y-77607798D01*
X130294359Y-77604598D01*
X130253053Y-77581796D01*
X130203084Y-77531364D01*
X130188312Y-77461921D01*
X130213428Y-77395516D01*
X130240780Y-77368909D01*
X130284603Y-77337650D01*
X130419860Y-77241173D01*
X130578096Y-77083489D01*
X130637594Y-77000689D01*
X130705435Y-76906277D01*
X130708453Y-76902077D01*
X130807430Y-76701811D01*
X130872370Y-76488069D01*
X130901529Y-76266590D01*
X130903156Y-76200000D01*
X130884852Y-75977361D01*
X130830431Y-75760702D01*
X130741354Y-75555840D01*
X130620014Y-75368277D01*
X130469670Y-75203051D01*
X130465619Y-75199852D01*
X130465615Y-75199848D01*
X130298414Y-75067800D01*
X130298410Y-75067798D01*
X130294359Y-75064598D01*
X130253053Y-75041796D01*
X130203084Y-74991364D01*
X130188312Y-74921921D01*
X130213428Y-74855516D01*
X130240780Y-74828909D01*
X130284603Y-74797650D01*
X130419860Y-74701173D01*
X130578096Y-74543489D01*
X130637594Y-74460689D01*
X130705435Y-74366277D01*
X130708453Y-74362077D01*
X130807430Y-74161811D01*
X130872370Y-73948069D01*
X130901529Y-73726590D01*
X130903156Y-73660000D01*
X130884852Y-73437361D01*
X130830431Y-73220702D01*
X130741354Y-73015840D01*
X130620014Y-72828277D01*
X130616540Y-72824459D01*
X130616533Y-72824450D01*
X130472435Y-72666088D01*
X130441383Y-72602242D01*
X130449779Y-72531744D01*
X130494956Y-72476976D01*
X130521400Y-72463307D01*
X130628052Y-72423325D01*
X130643649Y-72414786D01*
X130745724Y-72338285D01*
X130758285Y-72325724D01*
X130834786Y-72223649D01*
X130843324Y-72208054D01*
X130888478Y-72087606D01*
X130892105Y-72072351D01*
X130897631Y-72021486D01*
X130898000Y-72014672D01*
X130898000Y-71392115D01*
X130893525Y-71376876D01*
X130892135Y-71375671D01*
X130884452Y-71374000D01*
X128200116Y-71374000D01*
X128184877Y-71378475D01*
X128183672Y-71379865D01*
X128182001Y-71387548D01*
X128182001Y-72014669D01*
X128182371Y-72021490D01*
X128187895Y-72072352D01*
X128191521Y-72087604D01*
X128236676Y-72208054D01*
X128245214Y-72223649D01*
X128321715Y-72325724D01*
X128334276Y-72338285D01*
X128436351Y-72414786D01*
X128451946Y-72423324D01*
X128560827Y-72464142D01*
X128617591Y-72506784D01*
X128642291Y-72573345D01*
X128627083Y-72642694D01*
X128607691Y-72669175D01*
X128484200Y-72798401D01*
X128480629Y-72802138D01*
X128354743Y-72986680D01*
X128260688Y-73189305D01*
X128200989Y-73404570D01*
X128177251Y-73626695D01*
X128177548Y-73631848D01*
X128177548Y-73631851D01*
X128183011Y-73726590D01*
X128190110Y-73849715D01*
X128191247Y-73854761D01*
X128191248Y-73854767D01*
X128211119Y-73942939D01*
X128239222Y-74067639D01*
X128323266Y-74274616D01*
X128439987Y-74465088D01*
X128586250Y-74633938D01*
X128758126Y-74776632D01*
X128828595Y-74817811D01*
X128831445Y-74819476D01*
X128880169Y-74871114D01*
X128893240Y-74940897D01*
X128866509Y-75006669D01*
X128826055Y-75040027D01*
X128813607Y-75046507D01*
X128809474Y-75049610D01*
X128809471Y-75049612D01*
X128785247Y-75067800D01*
X128634965Y-75180635D01*
X128480629Y-75342138D01*
X128354743Y-75526680D01*
X128260688Y-75729305D01*
X128200989Y-75944570D01*
X128177251Y-76166695D01*
X128177548Y-76171848D01*
X128177548Y-76171851D01*
X128183011Y-76266590D01*
X128190110Y-76389715D01*
X128191247Y-76394761D01*
X128191248Y-76394767D01*
X128211119Y-76482939D01*
X128239222Y-76607639D01*
X128323266Y-76814616D01*
X128439987Y-77005088D01*
X128586250Y-77173938D01*
X128758126Y-77316632D01*
X128828595Y-77357811D01*
X128831445Y-77359476D01*
X128880169Y-77411114D01*
X128893240Y-77480897D01*
X128866509Y-77546669D01*
X128826055Y-77580027D01*
X128813607Y-77586507D01*
X128809474Y-77589610D01*
X128809471Y-77589612D01*
X128785247Y-77607800D01*
X128634965Y-77720635D01*
X128480629Y-77882138D01*
X128354743Y-78066680D01*
X128260688Y-78269305D01*
X128200989Y-78484570D01*
X128177251Y-78706695D01*
X128177548Y-78711848D01*
X128177548Y-78711851D01*
X128183011Y-78806590D01*
X128190110Y-78929715D01*
X128191247Y-78934761D01*
X128191248Y-78934767D01*
X128211119Y-79022939D01*
X128239222Y-79147639D01*
X128323266Y-79354616D01*
X128439987Y-79545088D01*
X128586250Y-79713938D01*
X128758126Y-79856632D01*
X128828595Y-79897811D01*
X128831445Y-79899476D01*
X128880169Y-79951114D01*
X128893240Y-80020897D01*
X128866509Y-80086669D01*
X128826055Y-80120027D01*
X128813607Y-80126507D01*
X128809474Y-80129610D01*
X128809471Y-80129612D01*
X128785247Y-80147800D01*
X128634965Y-80260635D01*
X128480629Y-80422138D01*
X128354743Y-80606680D01*
X128260688Y-80809305D01*
X128200989Y-81024570D01*
X128177251Y-81246695D01*
X128177548Y-81251848D01*
X128177548Y-81251851D01*
X128183011Y-81346590D01*
X128190110Y-81469715D01*
X128191247Y-81474761D01*
X128191248Y-81474767D01*
X128211119Y-81562939D01*
X128239222Y-81687639D01*
X128323266Y-81894616D01*
X128439987Y-82085088D01*
X128586250Y-82253938D01*
X128590230Y-82257242D01*
X128594981Y-82261187D01*
X128634616Y-82320090D01*
X128636113Y-82391071D01*
X128598997Y-82451593D01*
X128558725Y-82476112D01*
X128470095Y-82509338D01*
X128443295Y-82519385D01*
X128326739Y-82606739D01*
X128239385Y-82723295D01*
X128188255Y-82859684D01*
X128181500Y-82921866D01*
X128181500Y-84718134D01*
X128188255Y-84780316D01*
X128239385Y-84916705D01*
X128326739Y-85033261D01*
X128443295Y-85120615D01*
X128451704Y-85123767D01*
X128451705Y-85123768D01*
X128560451Y-85164535D01*
X128617216Y-85207176D01*
X128641916Y-85273738D01*
X128626709Y-85343087D01*
X128607316Y-85369568D01*
X128480629Y-85502138D01*
X128354743Y-85686680D01*
X128260688Y-85889305D01*
X128200989Y-86104570D01*
X128177251Y-86326695D01*
X128177548Y-86331848D01*
X128177548Y-86331851D01*
X128183011Y-86426590D01*
X128190110Y-86549715D01*
X128191247Y-86554761D01*
X128191248Y-86554767D01*
X128211119Y-86642939D01*
X128239222Y-86767639D01*
X128323266Y-86974616D01*
X128439987Y-87165088D01*
X128586250Y-87333938D01*
X128758126Y-87476632D01*
X128828595Y-87517811D01*
X128831445Y-87519476D01*
X128880169Y-87571114D01*
X128893240Y-87640897D01*
X128866509Y-87706669D01*
X128826055Y-87740027D01*
X128813607Y-87746507D01*
X128809474Y-87749610D01*
X128809471Y-87749612D01*
X128785247Y-87767800D01*
X128634965Y-87880635D01*
X128480629Y-88042138D01*
X128354743Y-88226680D01*
X128260688Y-88429305D01*
X128200989Y-88644570D01*
X128177251Y-88866695D01*
X128177548Y-88871848D01*
X128177548Y-88871851D01*
X128183011Y-88966590D01*
X128190110Y-89089715D01*
X128191247Y-89094761D01*
X128191248Y-89094767D01*
X128211119Y-89182939D01*
X128239222Y-89307639D01*
X128323266Y-89514616D01*
X128439987Y-89705088D01*
X128586250Y-89873938D01*
X128758126Y-90016632D01*
X128828595Y-90057811D01*
X128831445Y-90059476D01*
X128880169Y-90111114D01*
X128893240Y-90180897D01*
X128866509Y-90246669D01*
X128826055Y-90280027D01*
X128813607Y-90286507D01*
X128809474Y-90289610D01*
X128809471Y-90289612D01*
X128785247Y-90307800D01*
X128634965Y-90420635D01*
X128480629Y-90582138D01*
X128354743Y-90766680D01*
X128260688Y-90969305D01*
X128200989Y-91184570D01*
X128177251Y-91406695D01*
X128177548Y-91411848D01*
X128177548Y-91411851D01*
X128183011Y-91506590D01*
X128190110Y-91629715D01*
X128191247Y-91634761D01*
X128191248Y-91634767D01*
X128211119Y-91722939D01*
X128239222Y-91847639D01*
X128323266Y-92054616D01*
X128439987Y-92245088D01*
X128586250Y-92413938D01*
X128758126Y-92556632D01*
X128828595Y-92597811D01*
X128831445Y-92599476D01*
X128880169Y-92651114D01*
X128893240Y-92720897D01*
X128866509Y-92786669D01*
X128826055Y-92820027D01*
X128813607Y-92826507D01*
X128809474Y-92829610D01*
X128809471Y-92829612D01*
X128785247Y-92847800D01*
X128634965Y-92960635D01*
X128480629Y-93122138D01*
X128354743Y-93306680D01*
X128260688Y-93509305D01*
X128200989Y-93724570D01*
X128177251Y-93946695D01*
X113120418Y-93946695D01*
X113104852Y-93757361D01*
X113050431Y-93540702D01*
X112961354Y-93335840D01*
X112840014Y-93148277D01*
X112689670Y-92983051D01*
X112685619Y-92979852D01*
X112685615Y-92979848D01*
X112518414Y-92847800D01*
X112518410Y-92847798D01*
X112514359Y-92844598D01*
X112473053Y-92821796D01*
X112423084Y-92771364D01*
X112408312Y-92701921D01*
X112433428Y-92635516D01*
X112460780Y-92608909D01*
X112504603Y-92577650D01*
X112639860Y-92481173D01*
X112798096Y-92323489D01*
X112857594Y-92240689D01*
X112925435Y-92146277D01*
X112928453Y-92142077D01*
X113027430Y-91941811D01*
X113092370Y-91728069D01*
X113121529Y-91506590D01*
X113123156Y-91440000D01*
X113104852Y-91217361D01*
X113050431Y-91000702D01*
X112961354Y-90795840D01*
X112840014Y-90608277D01*
X112689670Y-90443051D01*
X112685619Y-90439852D01*
X112685615Y-90439848D01*
X112518414Y-90307800D01*
X112518410Y-90307798D01*
X112514359Y-90304598D01*
X112473053Y-90281796D01*
X112423084Y-90231364D01*
X112408312Y-90161921D01*
X112433428Y-90095516D01*
X112460780Y-90068909D01*
X112504603Y-90037650D01*
X112639860Y-89941173D01*
X112798096Y-89783489D01*
X112857594Y-89700689D01*
X112925435Y-89606277D01*
X112928453Y-89602077D01*
X113027430Y-89401811D01*
X113092370Y-89188069D01*
X113121529Y-88966590D01*
X113123156Y-88900000D01*
X113104852Y-88677361D01*
X113050431Y-88460702D01*
X112961354Y-88255840D01*
X112840014Y-88068277D01*
X112689670Y-87903051D01*
X112685619Y-87899852D01*
X112685615Y-87899848D01*
X112518414Y-87767800D01*
X112518410Y-87767798D01*
X112514359Y-87764598D01*
X112473053Y-87741796D01*
X112423084Y-87691364D01*
X112408312Y-87621921D01*
X112433428Y-87555516D01*
X112460780Y-87528909D01*
X112504603Y-87497650D01*
X112639860Y-87401173D01*
X112798096Y-87243489D01*
X112857594Y-87160689D01*
X112925435Y-87066277D01*
X112928453Y-87062077D01*
X113027430Y-86861811D01*
X113092370Y-86648069D01*
X113121529Y-86426590D01*
X113123156Y-86360000D01*
X113104852Y-86137361D01*
X113050431Y-85920702D01*
X112961354Y-85715840D01*
X112840014Y-85528277D01*
X112836540Y-85524459D01*
X112836533Y-85524450D01*
X112692435Y-85366088D01*
X112661383Y-85302242D01*
X112669779Y-85231744D01*
X112714956Y-85176976D01*
X112741400Y-85163307D01*
X112848052Y-85123325D01*
X112863649Y-85114786D01*
X112965724Y-85038285D01*
X112978285Y-85025724D01*
X113054786Y-84923649D01*
X113063324Y-84908054D01*
X113108478Y-84787606D01*
X113112105Y-84772351D01*
X113117631Y-84721486D01*
X113118000Y-84714672D01*
X113118000Y-84092115D01*
X113113525Y-84076876D01*
X113112135Y-84075671D01*
X113104452Y-84074000D01*
X110420116Y-84074000D01*
X110404877Y-84078475D01*
X110403672Y-84079865D01*
X110402001Y-84087548D01*
X110402001Y-84714669D01*
X110402371Y-84721490D01*
X110407895Y-84772352D01*
X110411521Y-84787604D01*
X110456676Y-84908054D01*
X110465214Y-84923649D01*
X110541715Y-85025724D01*
X110554276Y-85038285D01*
X110656351Y-85114786D01*
X110671946Y-85123324D01*
X110780827Y-85164142D01*
X110837591Y-85206784D01*
X110862291Y-85273345D01*
X110847083Y-85342694D01*
X110827691Y-85369175D01*
X110704200Y-85498401D01*
X110700629Y-85502138D01*
X110574743Y-85686680D01*
X110480688Y-85889305D01*
X110420989Y-86104570D01*
X110397251Y-86326695D01*
X110397548Y-86331848D01*
X110397548Y-86331851D01*
X110403011Y-86426590D01*
X110410110Y-86549715D01*
X110411247Y-86554761D01*
X110411248Y-86554767D01*
X110431119Y-86642939D01*
X110459222Y-86767639D01*
X110543266Y-86974616D01*
X110659987Y-87165088D01*
X110806250Y-87333938D01*
X110978126Y-87476632D01*
X111048595Y-87517811D01*
X111051445Y-87519476D01*
X111100169Y-87571114D01*
X111113240Y-87640897D01*
X111086509Y-87706669D01*
X111046055Y-87740027D01*
X111033607Y-87746507D01*
X111029474Y-87749610D01*
X111029471Y-87749612D01*
X111005247Y-87767800D01*
X110854965Y-87880635D01*
X110700629Y-88042138D01*
X110574743Y-88226680D01*
X110480688Y-88429305D01*
X110420989Y-88644570D01*
X110397251Y-88866695D01*
X110397548Y-88871848D01*
X110397548Y-88871851D01*
X110403011Y-88966590D01*
X110410110Y-89089715D01*
X110411247Y-89094761D01*
X110411248Y-89094767D01*
X110431119Y-89182939D01*
X110459222Y-89307639D01*
X110543266Y-89514616D01*
X110659987Y-89705088D01*
X110806250Y-89873938D01*
X110978126Y-90016632D01*
X111048595Y-90057811D01*
X111051445Y-90059476D01*
X111100169Y-90111114D01*
X111113240Y-90180897D01*
X111086509Y-90246669D01*
X111046055Y-90280027D01*
X111033607Y-90286507D01*
X111029474Y-90289610D01*
X111029471Y-90289612D01*
X111005247Y-90307800D01*
X110854965Y-90420635D01*
X110700629Y-90582138D01*
X110574743Y-90766680D01*
X110480688Y-90969305D01*
X110420989Y-91184570D01*
X110397251Y-91406695D01*
X110397548Y-91411848D01*
X110397548Y-91411851D01*
X110403011Y-91506590D01*
X110410110Y-91629715D01*
X110411247Y-91634761D01*
X110411248Y-91634767D01*
X110431119Y-91722939D01*
X110459222Y-91847639D01*
X110543266Y-92054616D01*
X110659987Y-92245088D01*
X110806250Y-92413938D01*
X110978126Y-92556632D01*
X111048595Y-92597811D01*
X111051445Y-92599476D01*
X111100169Y-92651114D01*
X111113240Y-92720897D01*
X111086509Y-92786669D01*
X111046055Y-92820027D01*
X111033607Y-92826507D01*
X111029474Y-92829610D01*
X111029471Y-92829612D01*
X111005247Y-92847800D01*
X110854965Y-92960635D01*
X110700629Y-93122138D01*
X110574743Y-93306680D01*
X110480688Y-93509305D01*
X110420989Y-93724570D01*
X110397251Y-93946695D01*
X106045000Y-93946695D01*
X106045000Y-81246695D01*
X110397251Y-81246695D01*
X110397548Y-81251848D01*
X110397548Y-81251851D01*
X110403011Y-81346590D01*
X110410110Y-81469715D01*
X110411247Y-81474761D01*
X110411248Y-81474767D01*
X110431119Y-81562939D01*
X110459222Y-81687639D01*
X110543266Y-81894616D01*
X110659987Y-82085088D01*
X110806250Y-82253938D01*
X110810225Y-82257238D01*
X110810231Y-82257244D01*
X110815425Y-82261556D01*
X110855059Y-82320460D01*
X110856555Y-82391441D01*
X110819439Y-82451962D01*
X110779168Y-82476480D01*
X110671946Y-82516676D01*
X110656351Y-82525214D01*
X110554276Y-82601715D01*
X110541715Y-82614276D01*
X110465214Y-82716351D01*
X110456676Y-82731946D01*
X110411522Y-82852394D01*
X110407895Y-82867649D01*
X110402369Y-82918514D01*
X110402000Y-82925328D01*
X110402000Y-83547885D01*
X110406475Y-83563124D01*
X110407865Y-83564329D01*
X110415548Y-83566000D01*
X113099884Y-83566000D01*
X113115123Y-83561525D01*
X113116328Y-83560135D01*
X113117999Y-83552452D01*
X113117999Y-82925331D01*
X113117629Y-82918510D01*
X113112105Y-82867648D01*
X113108479Y-82852396D01*
X113063324Y-82731946D01*
X113054786Y-82716351D01*
X112978285Y-82614276D01*
X112965724Y-82601715D01*
X112863649Y-82525214D01*
X112848054Y-82516676D01*
X112737813Y-82475348D01*
X112681049Y-82432706D01*
X112656349Y-82366145D01*
X112671557Y-82296796D01*
X112693104Y-82268115D01*
X112794430Y-82167144D01*
X112794440Y-82167132D01*
X112798096Y-82163489D01*
X112857594Y-82080689D01*
X112925435Y-81986277D01*
X112928453Y-81982077D01*
X113027430Y-81781811D01*
X113092370Y-81568069D01*
X113121529Y-81346590D01*
X113123156Y-81280000D01*
X113104852Y-81057361D01*
X113050431Y-80840702D01*
X112961354Y-80635840D01*
X112840014Y-80448277D01*
X112689670Y-80283051D01*
X112685619Y-80279852D01*
X112685615Y-80279848D01*
X112518414Y-80147800D01*
X112518410Y-80147798D01*
X112514359Y-80144598D01*
X112473053Y-80121796D01*
X112423084Y-80071364D01*
X112408312Y-80001921D01*
X112433428Y-79935516D01*
X112460780Y-79908909D01*
X112504603Y-79877650D01*
X112639860Y-79781173D01*
X112798096Y-79623489D01*
X112857594Y-79540689D01*
X112925435Y-79446277D01*
X112928453Y-79442077D01*
X113027430Y-79241811D01*
X113092370Y-79028069D01*
X113121529Y-78806590D01*
X113123156Y-78740000D01*
X113104852Y-78517361D01*
X113050431Y-78300702D01*
X112961354Y-78095840D01*
X112840014Y-77908277D01*
X112689670Y-77743051D01*
X112685619Y-77739852D01*
X112685615Y-77739848D01*
X112518414Y-77607800D01*
X112518410Y-77607798D01*
X112514359Y-77604598D01*
X112473053Y-77581796D01*
X112423084Y-77531364D01*
X112408312Y-77461921D01*
X112433428Y-77395516D01*
X112460780Y-77368909D01*
X112504603Y-77337650D01*
X112639860Y-77241173D01*
X112798096Y-77083489D01*
X112857594Y-77000689D01*
X112925435Y-76906277D01*
X112928453Y-76902077D01*
X113027430Y-76701811D01*
X113092370Y-76488069D01*
X113121529Y-76266590D01*
X113123156Y-76200000D01*
X113104852Y-75977361D01*
X113050431Y-75760702D01*
X112961354Y-75555840D01*
X112840014Y-75368277D01*
X112689670Y-75203051D01*
X112685619Y-75199852D01*
X112685615Y-75199848D01*
X112518414Y-75067800D01*
X112518410Y-75067798D01*
X112514359Y-75064598D01*
X112473053Y-75041796D01*
X112423084Y-74991364D01*
X112408312Y-74921921D01*
X112433428Y-74855516D01*
X112460780Y-74828909D01*
X112504603Y-74797650D01*
X112639860Y-74701173D01*
X112798096Y-74543489D01*
X112857594Y-74460689D01*
X112925435Y-74366277D01*
X112928453Y-74362077D01*
X113027430Y-74161811D01*
X113092370Y-73948069D01*
X113121529Y-73726590D01*
X113123156Y-73660000D01*
X113104852Y-73437361D01*
X113050431Y-73220702D01*
X112961354Y-73015840D01*
X112840014Y-72828277D01*
X112836540Y-72824459D01*
X112836533Y-72824450D01*
X112692435Y-72666088D01*
X112661383Y-72602242D01*
X112669779Y-72531744D01*
X112714956Y-72476976D01*
X112741400Y-72463307D01*
X112848052Y-72423325D01*
X112863649Y-72414786D01*
X112965724Y-72338285D01*
X112978285Y-72325724D01*
X113054786Y-72223649D01*
X113063324Y-72208054D01*
X113108478Y-72087606D01*
X113112105Y-72072351D01*
X113117631Y-72021486D01*
X113118000Y-72014672D01*
X113118000Y-71392115D01*
X113113525Y-71376876D01*
X113112135Y-71375671D01*
X113104452Y-71374000D01*
X110420116Y-71374000D01*
X110404877Y-71378475D01*
X110403672Y-71379865D01*
X110402001Y-71387548D01*
X110402001Y-72014669D01*
X110402371Y-72021490D01*
X110407895Y-72072352D01*
X110411521Y-72087604D01*
X110456676Y-72208054D01*
X110465214Y-72223649D01*
X110541715Y-72325724D01*
X110554276Y-72338285D01*
X110656351Y-72414786D01*
X110671946Y-72423324D01*
X110780827Y-72464142D01*
X110837591Y-72506784D01*
X110862291Y-72573345D01*
X110847083Y-72642694D01*
X110827691Y-72669175D01*
X110704200Y-72798401D01*
X110700629Y-72802138D01*
X110574743Y-72986680D01*
X110480688Y-73189305D01*
X110420989Y-73404570D01*
X110397251Y-73626695D01*
X110397548Y-73631848D01*
X110397548Y-73631851D01*
X110403011Y-73726590D01*
X110410110Y-73849715D01*
X110411247Y-73854761D01*
X110411248Y-73854767D01*
X110431119Y-73942939D01*
X110459222Y-74067639D01*
X110543266Y-74274616D01*
X110659987Y-74465088D01*
X110806250Y-74633938D01*
X110978126Y-74776632D01*
X111048595Y-74817811D01*
X111051445Y-74819476D01*
X111100169Y-74871114D01*
X111113240Y-74940897D01*
X111086509Y-75006669D01*
X111046055Y-75040027D01*
X111033607Y-75046507D01*
X111029474Y-75049610D01*
X111029471Y-75049612D01*
X111005247Y-75067800D01*
X110854965Y-75180635D01*
X110700629Y-75342138D01*
X110574743Y-75526680D01*
X110480688Y-75729305D01*
X110420989Y-75944570D01*
X110397251Y-76166695D01*
X110397548Y-76171848D01*
X110397548Y-76171851D01*
X110403011Y-76266590D01*
X110410110Y-76389715D01*
X110411247Y-76394761D01*
X110411248Y-76394767D01*
X110431119Y-76482939D01*
X110459222Y-76607639D01*
X110543266Y-76814616D01*
X110659987Y-77005088D01*
X110806250Y-77173938D01*
X110978126Y-77316632D01*
X111048595Y-77357811D01*
X111051445Y-77359476D01*
X111100169Y-77411114D01*
X111113240Y-77480897D01*
X111086509Y-77546669D01*
X111046055Y-77580027D01*
X111033607Y-77586507D01*
X111029474Y-77589610D01*
X111029471Y-77589612D01*
X111005247Y-77607800D01*
X110854965Y-77720635D01*
X110700629Y-77882138D01*
X110574743Y-78066680D01*
X110480688Y-78269305D01*
X110420989Y-78484570D01*
X110397251Y-78706695D01*
X110397548Y-78711848D01*
X110397548Y-78711851D01*
X110403011Y-78806590D01*
X110410110Y-78929715D01*
X110411247Y-78934761D01*
X110411248Y-78934767D01*
X110431119Y-79022939D01*
X110459222Y-79147639D01*
X110543266Y-79354616D01*
X110659987Y-79545088D01*
X110806250Y-79713938D01*
X110978126Y-79856632D01*
X111048595Y-79897811D01*
X111051445Y-79899476D01*
X111100169Y-79951114D01*
X111113240Y-80020897D01*
X111086509Y-80086669D01*
X111046055Y-80120027D01*
X111033607Y-80126507D01*
X111029474Y-80129610D01*
X111029471Y-80129612D01*
X111005247Y-80147800D01*
X110854965Y-80260635D01*
X110700629Y-80422138D01*
X110574743Y-80606680D01*
X110480688Y-80809305D01*
X110420989Y-81024570D01*
X110397251Y-81246695D01*
X106045000Y-81246695D01*
X106045000Y-64896000D01*
X106065002Y-64827879D01*
X106118658Y-64781386D01*
X106171000Y-64770000D01*
X110811111Y-64770000D01*
X110879232Y-64790002D01*
G37*
%TD.AperFunction*%
%TD*%
M02*
